<svg xmlns="http://www.w3.org/2000/svg" xmlns:xlink="http://www.w3.org/1999/xlink" x="0" y="0" width="219.96014404296875" height="209.93832397460938" style="
        width:219.96014404296875px;
        height:209.93832397460938px;
        background: transparent;
        fill: none;
">
        <svg xmlns="http://www.w3.org/2000/svg"/>
        
        <svg xmlns="http://www.w3.org/2000/svg" class="role-diagram-draw-area"><g class="shapes-region" style="stroke: black; fill: none;"><g class="arrow-line"><path class="connection real" stroke-dasharray="" d="  M13.99,122.97 C44.06,192.43 171.77,192.15 203.07,125.03" style="stroke: rgb(107, 201, 223); stroke-opacity: 1; stroke-width: 1; fill: none; fill-opacity: 1;"/><g stroke="none" fill="rgb(107,201,223)" fill-opacity="1" transform="matrix(-0.3937814842122714,0.9192040810894938,-0.9192040810894938,-0.3937814842122714,203.9889907836914,122.97184753417969)" style="stroke: none; fill: rgb(107, 201, 223); stroke-width: 1;"><path d=" M10.72,-5.15 L0,0 L10.72,5.15 L7.12,0 Z"/></g></g><g class="arrow-line"><path class="connection real" stroke-dasharray="" d="  M13.99,82.97 C44.06,13.83 172.75,13.14 203.1,80.9" style="stroke: rgb(107, 201, 223); stroke-opacity: 1; stroke-width: 1; fill: none; fill-opacity: 1;"/><g stroke="none" fill="rgb(107,201,223)" fill-opacity="1" transform="matrix(-0.37929467419180507,-0.9252759318872033,0.9252759318872033,-0.37929467419180507,203.9889907836914,82.97184753417969)" style="stroke: none; fill: rgb(107, 201, 223); stroke-width: 1;"><path d=" M10.72,-5.15 L0,0 L10.72,5.15 L7.12,0 Z"/></g></g><g class="arrow-line"><path class="connection real" stroke-dasharray="" d="  M94.36,44.42 C81.99,47.6 73.77,59.98 69.42,75.34 C67.12,83.46 65.91,92.44 65.78,101.47 C65.77,101.96 65.77,102.45 65.77,102.95 C65.74,126.38 72.9,150 87.71,158.78 C89.12,159.61 90.6,160.31 86.79,158.21 M93.62,41.52 C80.36,44.92 71.24,57.91 66.53,74.52 C64.17,82.88 62.91,92.13 62.78,101.42 C62.77,101.93 62.77,102.44 62.77,102.94 C62.74,127.65 70.69,152.17 86.18,161.36 C87.76,162.3 89.42,163.08 85.76,161.1" style="stroke: rgb(107, 201, 223); stroke-opacity: 1; stroke-width: 1; fill: none; fill-opacity: 1;"/><g stroke="none" fill="rgb(107,201,223)" fill-opacity="1" transform="matrix(-0.97054853422223,-0.24090567182837544,0.24090567182837544,-0.97054853422223,93.9889907836914,162.97184753417972)" style="stroke: none; fill: rgb(107, 201, 223); stroke-width: 1;"><path d=" M10.72,-5.15 L0,0 L10.72,5.15 L7.12,0 Z"/></g></g><g class="arrow-line"><path class="connection real" stroke-dasharray="" d="  M124.36,41.52 C137.57,44.93 146.76,57.98 151.53,74.67 C154.04,83.44 155.33,93.19 155.39,102.94 C155.39,103.16 155.39,103.39 155.39,103.61 C155.39,128.12 147.49,152.3 131.87,161.39 C130.28,162.31 128.61,163.09 132.27,161.15 M123.61,44.42 C135.95,47.61 144.23,60.06 148.65,75.49 C151.08,84.02 152.34,93.49 152.39,102.95 C152.39,103.17 152.39,103.39 152.39,103.61 C152.39,126.83 145.28,150.11 130.36,158.79 C128.94,159.62 127.44,160.32 131.26,158.25" style="stroke: rgb(107, 201, 223); stroke-opacity: 1; stroke-width: 1; fill: none; fill-opacity: 1;"/><g stroke="none" fill="rgb(107,201,223)" fill-opacity="1" transform="matrix(0.9715904412543288,-0.2366685751493398,0.2366685751493398,0.9715904412543288,123.9889907836914,162.9718475341797)" style="stroke: none; fill: rgb(107, 201, 223); stroke-width: 1;"><path d=" M10.72,-5.15 L0,0 L10.72,5.15 L7.12,0 Z"/></g></g><g class="arrow-line"><path class="connection real" stroke-dasharray="" d="  M83.99,102.97 L130.99,102.97  M93.99,98.97 L93.99,106.97 M103.99,98.97 L103.99,106.97 M113.99,98.97 L113.99,106.97 M123.99,98.97 L123.99,106.97" style="stroke: rgb(107, 201, 223); stroke-opacity: 1; stroke-width: 1; fill: none; fill-opacity: 1;"/><g stroke="none" fill="rgb(107,201,223)" fill-opacity="1" transform="matrix(-1,1.2246467991473532e-16,-1.2246467991473532e-16,-1,133.9889907836914,102.9718475341797)" style="stroke: none; fill: rgb(107, 201, 223); stroke-width: 1;"><path d=" M10.72,-5.15 L0,0 L10.72,5.15 L7.12,0 Z"/></g></g><g/></g><g/><g/><g/></svg>
        <svg xmlns="http://www.w3.org/2000/svg" xmlns:xlink="http://www.w3.org/1999/xlink" width="217.97085571289062" height="207.94903564453125" style="width:217.97085571289062px;height:207.94903564453125px;font-family:LatinModern-Math, LatinModern, Asana-Math, Asana;background:transparent;"><g><g><g><g transform="matrix(1,0,0,1,5.4705810546875,109.96180725097656)"><path transform="matrix(0.017,0,0,-0.017,0,0)" d="M721 20C721 31 711 31 698 31C636 31 636 38 633 67L572 692C570 712 570 716 553 716C537 716 533 709 527 699L179 115C139 48 100 34 56 31C44 30 35 30 35 11C35 5 40 0 48 0C75 0 106 3 134 3C167 3 202 0 234 0C240 0 253 0 253 19C253 30 244 31 237 31C214 33 190 41 190 66C190 78 196 89 204 103C211 115 212 115 280 231L531 231C533 210 547 74 547 64C547 34 495 31 475 31C461 31 451 31 451 11C451 0 465 0 465 0C506 0 549 3 590 3C615 3 678 0 703 0C709 0 721 0 721 20ZM528 262L299 262L496 592Z" stroke="rgb(107,201,223)" stroke-opacity="1" stroke-width="8" fill="rgb(107,201,223)" fill-opacity="1"></path></g></g></g></g><g><g><g><g transform="matrix(1,0,0,1,201.476318359375,109.96180725097656)"><path transform="matrix(0.017,0,0,-0.017,0,0)" d="M756 545C756 619 690 683 570 683L234 683C215 683 205 683 205 663C205 652 214 652 233 652C233 652 254 652 271 650C289 648 298 647 298 634C298 630 297 627 294 615L160 78C150 39 148 31 69 31C52 31 42 31 42 11C42 0 51 0 69 0L426 0C584 0 702 118 702 216C702 288 644 346 547 357C651 376 756 450 756 545ZM665 549C665 461 579 366 457 366L311 366L373 614C382 649 384 652 427 652L556 652C644 652 665 593 665 549ZM609 227C609 128 520 31 402 31L266 31C252 31 250 31 244 32C234 33 231 34 231 42C231 45 231 47 236 65L305 344L494 344C590 344 609 270 609 227Z" stroke="rgb(107,201,223)" stroke-opacity="1" stroke-width="8" fill="rgb(107,201,223)" fill-opacity="1"></path></g></g></g></g><g><g><g><g transform="matrix(1,0,0,1,105.47781372070312,19.961334228515625)"><path transform="matrix(0.017,0,0,-0.017,0,0)" d="M552 636C552 682 506 705 465 705C431 705 368 687 338 588C332 567 329 557 305 431L236 431C217 431 206 431 206 412C206 400 215 400 234 400L300 400L225 5C207 -92 190 -183 138 -183C134 -183 109 -183 90 -165C136 -162 145 -126 145 -111C145 -88 127 -76 108 -76C82 -76 53 -98 53 -136C53 -181 97 -205 138 -205C193 -205 233 -146 251 -108C283 -45 306 76 307 83L367 400L453 400C473 400 483 400 483 420C483 431 473 431 456 431L373 431C384 489 383 487 394 545C398 566 412 637 418 649C427 668 444 683 465 683C469 683 495 683 514 665C470 661 460 626 460 611C460 588 478 576 497 576C523 576 552 598 552 636Z" stroke="rgb(107,201,223)" stroke-opacity="1" stroke-width="8" fill="rgb(107,201,223)" fill-opacity="1"></path></g></g><g><g><g><g><g transform="matrix(1,0,0,1,114.31658935546875,22.961676025390624)"><path transform="matrix(0.0119,0,0,-0.0119,0,0)" d="M419 0L419 31L387 31C297 31 294 42 294 79L294 640C294 664 294 666 271 666C209 602 121 602 89 602L89 571C109 571 168 571 220 597L220 79C220 43 217 31 127 31L95 31L95 0C130 3 217 3 257 3C297 3 384 3 419 0Z" stroke="rgb(107,201,223)" stroke-opacity="1" stroke-width="8" fill="rgb(107,201,223)" fill-opacity="1"></path></g></g></g></g></g></g></g><g><g><g><g transform="matrix(1,0,0,1,103.47344970703125,197.96546936035156)"><path transform="matrix(0.017,0,0,-0.017,0,0)" d="M552 636C552 682 506 705 465 705C431 705 368 687 338 588C332 567 329 557 305 431L236 431C217 431 206 431 206 412C206 400 215 400 234 400L300 400L225 5C207 -92 190 -183 138 -183C134 -183 109 -183 90 -165C136 -162 145 -126 145 -111C145 -88 127 -76 108 -76C82 -76 53 -98 53 -136C53 -181 97 -205 138 -205C193 -205 233 -146 251 -108C283 -45 306 76 307 83L367 400L453 400C473 400 483 400 483 420C483 431 473 431 456 431L373 431C384 489 383 487 394 545C398 566 412 637 418 649C427 668 444 683 465 683C469 683 495 683 514 665C470 661 460 626 460 611C460 588 478 576 497 576C523 576 552 598 552 636Z" stroke="rgb(107,201,223)" stroke-opacity="1" stroke-width="8" fill="rgb(107,201,223)" fill-opacity="1"></path></g></g><g><g><g><g><g transform="matrix(1,0,0,1,112.31222534179688,200.96581115722657)"><path transform="matrix(0.0119,0,0,-0.0119,0,0)" d="M449 174L424 174C419 144 412 100 402 85C395 77 329 77 307 77L127 77L233 180C389 318 449 372 449 472C449 586 359 666 237 666C124 666 50 574 50 485C50 429 100 429 103 429C120 429 155 441 155 482C155 508 137 534 102 534C94 534 92 534 89 533C112 598 166 635 224 635C315 635 358 554 358 472C358 392 308 313 253 251L61 37C50 26 50 24 50 0L421 0Z" stroke="rgb(107,201,223)" stroke-opacity="1" stroke-width="8" fill="rgb(107,201,223)" fill-opacity="1"></path></g></g></g></g></g></g></g><g><g><g><g transform="matrix(1,0,0,1,40.471588134765625,107.96498107910156)"><path transform="matrix(0.017,0,0,-0.017,0,0)" d="M881 672C881 683 870 683 867 683L739 680L610 683C602 683 591 683 591 663C591 652 600 652 619 652C619 652 640 652 657 650C675 648 684 647 684 634C684 630 683 628 680 615L620 371L315 371L374 606C383 642 386 652 458 652C484 652 492 652 492 672C492 683 481 683 478 683L350 680L221 683C213 683 202 683 202 663C202 652 211 652 230 652C230 652 251 652 268 650C286 648 295 647 295 634C295 630 294 627 291 615L157 78C147 39 145 31 66 31C48 31 39 31 39 11C39 0 53 0 53 0L180 3L244 2C266 2 288 0 309 0C317 0 329 0 329 20C329 31 320 31 301 31C264 31 236 31 236 49C236 55 238 60 239 66L307 340L612 340L543 64C533 32 514 31 452 31C437 31 428 31 428 11C428 0 442 0 442 0L569 3L633 2C655 2 677 0 698 0C706 0 718 0 718 20C718 31 709 31 690 31C653 31 625 31 625 49C625 55 627 60 628 66L763 606C772 642 774 652 847 652C873 652 881 652 881 672Z" stroke="rgb(107,201,223)" stroke-opacity="1" stroke-width="8" fill="rgb(107,201,223)" fill-opacity="1"></path></g></g><g><g><g><g><g transform="matrix(1,0,0,1,55.104949951171875,110.96532287597657)"><path transform="matrix(0.0119,0,0,-0.0119,0,0)" d="M419 0L419 31L387 31C297 31 294 42 294 79L294 640C294 664 294 666 271 666C209 602 121 602 89 602L89 571C109 571 168 571 220 597L220 79C220 43 217 31 127 31L95 31L95 0C130 3 217 3 257 3C297 3 384 3 419 0Z" stroke="rgb(107,201,223)" stroke-opacity="1" stroke-width="8" fill="rgb(107,201,223)" fill-opacity="1"></path></g></g></g></g></g></g></g><g><g><g><g transform="matrix(1,0,0,1,160.47723388671875,107.96498107910156)"><path transform="matrix(0.017,0,0,-0.017,0,0)" d="M881 672C881 683 870 683 867 683L739 680L610 683C602 683 591 683 591 663C591 652 600 652 619 652C619 652 640 652 657 650C675 648 684 647 684 634C684 630 683 628 680 615L620 371L315 371L374 606C383 642 386 652 458 652C484 652 492 652 492 672C492 683 481 683 478 683L350 680L221 683C213 683 202 683 202 663C202 652 211 652 230 652C230 652 251 652 268 650C286 648 295 647 295 634C295 630 294 627 291 615L157 78C147 39 145 31 66 31C48 31 39 31 39 11C39 0 53 0 53 0L180 3L244 2C266 2 288 0 309 0C317 0 329 0 329 20C329 31 320 31 301 31C264 31 236 31 236 49C236 55 238 60 239 66L307 340L612 340L543 64C533 32 514 31 452 31C437 31 428 31 428 11C428 0 442 0 442 0L569 3L633 2C655 2 677 0 698 0C706 0 718 0 718 20C718 31 709 31 690 31C653 31 625 31 625 49C625 55 627 60 628 66L763 606C772 642 774 652 847 652C873 652 881 652 881 672Z" stroke="rgb(107,201,223)" stroke-opacity="1" stroke-width="8" fill="rgb(107,201,223)" fill-opacity="1"></path></g></g><g><g><g><g><g transform="matrix(1,0,0,1,175.110595703125,110.96532287597657)"><path transform="matrix(0.0119,0,0,-0.0119,0,0)" d="M449 174L424 174C419 144 412 100 402 85C395 77 329 77 307 77L127 77L233 180C389 318 449 372 449 472C449 586 359 666 237 666C124 666 50 574 50 485C50 429 100 429 103 429C120 429 155 441 155 482C155 508 137 534 102 534C94 534 92 534 89 533C112 598 166 635 224 635C315 635 358 554 358 472C358 392 308 313 253 251L61 37C50 26 50 24 50 0L421 0Z" stroke="rgb(107,201,223)" stroke-opacity="1" stroke-width="8" fill="rgb(107,201,223)" fill-opacity="1"></path></g></g></g></g></g></g></g><g><g><g><g transform="matrix(1,0,0,1,104.47561645507812,89.96337890625)"><path transform="matrix(0.017,0,0,-0.017,0,0)" d="M643 376C643 461 560 537 424 548L437 600C448 643 451 652 546 652C575 652 583 652 583 671C583 683 572 683 567 683C542 683 516 681 491 681L418 680L341 681C317 681 292 683 268 683C259 683 247 683 247 663C247 652 255 652 281 652C303 652 309 652 333 650C362 647 365 643 365 630C365 625 359 602 356 587L346 548C172 535 23 423 23 307C23 215 115 144 242 135L230 85C219 40 216 31 121 31C92 31 84 31 84 11C84 0 96 0 100 0C125 0 151 2 176 2L248 3L399 0C408 0 420 0 420 19C420 27 414 30 414 30C411 31 409 31 386 31C364 31 359 31 334 33C305 36 302 40 302 53C302 60 314 108 321 135C501 149 643 264 643 376ZM340 526L248 157C209 162 179 173 155 192C114 223 114 266 114 284C114 343 144 504 340 526ZM552 399C552 373 544 185 327 157L419 526C428 525 476 519 512 490C542 466 552 436 552 399Z" stroke="rgb(107,201,223)" stroke-opacity="1" stroke-width="8" fill="rgb(107,201,223)" fill-opacity="1"></path></g></g></g></g></svg>
</svg>
