<svg xmlns="http://www.w3.org/2000/svg" xmlns:xlink="http://www.w3.org/1999/xlink" x="0" y="0" width="507.9556579589844" height="260.96673583984375" style="
        width:507.9556579589844px;
        height:260.96673583984375px;
        background: #00000000;
        fill: none;
">
        <svg xmlns="http://www.w3.org/2000/svg"/>
        
        <svg xmlns="http://www.w3.org/2000/svg" class="role-diagram-draw-area"><g class="shapes-region" style="stroke: black; fill: none;"><g class="arrow-line"><path class="connection real" stroke-dasharray="" d="  M4.64,248.98 C65.97,-53.69 395.31,-94.36 495.97,239.64" style="stroke: rgb(255, 121, 198); stroke-opacity: 1; stroke-width: 1; fill: none; fill-opacity: 1;"/></g><g class="arrow-line"><path class="connection real" stroke-dasharray="" d="  M4.64,248.98 C77.97,185.64 221.97,150.31 302.64,245.64" style="stroke: rgb(255, 121, 198); stroke-opacity: 1; stroke-width: 1; fill: none; fill-opacity: 1;"/></g><g class="arrow-line"><path class="connection real" stroke-dasharray="" d="  M302.64,245.64 C402.64,176.31 445.97,151.64 495.97,239.64" style="stroke: rgb(255, 121, 198); stroke-opacity: 1; stroke-width: 1; fill: none; fill-opacity: 1;"/></g><g class="arrow-line"><path class="connection real" stroke-dasharray="" d="  M38.7,195.99 L55.54,168.17" style="stroke: rgb(255, 121, 198); stroke-opacity: 1; stroke-width: 1; fill: none; fill-opacity: 1;"/><g stroke="none" fill="rgb(255,121,198)" fill-opacity="1" transform="matrix(-0.5177283993663098,0.8555450335836209,-0.8555450335836209,-0.5177283993663098,57.09061686197913,165.59979248046875)" style="stroke: none; fill: rgb(255, 121, 198); stroke-width: 1;"><path d=" M8.93,-4.29 L0,0 L8.93,4.29 Z"/></g></g><g class="arrow-line"><path class="connection real" stroke-dasharray="" d="  M4.64,248.98 C65.97,-53.69 395.31,-94.36 495.97,239.64" style="stroke: rgb(107, 201, 223); stroke-opacity: 1; stroke-width: 1; fill: none; fill-opacity: 1;"/></g><g class="arrow-line"><path class="connection real" stroke-dasharray="" d="  M4.64,248.98 C77.97,185.64 221.97,150.31 302.64,245.64" style="stroke: rgb(107, 201, 223); stroke-opacity: 1; stroke-width: 1; fill: none; fill-opacity: 1;"/></g><g class="arrow-line"><path class="connection real" stroke-dasharray="" d="  M302.64,245.64 C402.64,176.31 445.97,151.64 495.97,239.64" style="stroke: rgb(107, 201, 223); stroke-opacity: 1; stroke-width: 1; fill: none; fill-opacity: 1;"/></g><g class="arrow-line"><path class="connection real" stroke-dasharray="" d="  M93.7,178.99 L106.42,160.09" style="stroke: rgb(255, 121, 198); stroke-opacity: 1; stroke-width: 1; fill: none; fill-opacity: 1;"/><g stroke="none" fill="rgb(255,121,198)" fill-opacity="1" transform="matrix(-0.5581796259215484,0.8297201366762653,-0.8297201366762653,-0.5581796259215484,108.09061686197913,157.59979248046875)" style="stroke: none; fill: rgb(255, 121, 198); stroke-width: 1;"><path d=" M8.93,-4.29 L0,0 L8.93,4.29 Z"/></g></g><g class="arrow-line"><path class="connection real" stroke-dasharray="" d="  M67.7,187.99 L81.74,160.28" style="stroke: rgb(255, 121, 198); stroke-opacity: 1; stroke-width: 1; fill: none; fill-opacity: 1;"/><g stroke="none" fill="rgb(255,121,198)" fill-opacity="1" transform="matrix(-0.45181200698065627,0.8921131712670267,-0.8921131712670267,-0.45181200698065627,83.09061686197913,157.59979248046875)" style="stroke: none; fill: rgb(255, 121, 198); stroke-width: 1;"><path d=" M8.93,-4.29 L0,0 L8.93,4.29 Z"/></g></g><g class="arrow-line"><path class="connection real" stroke-dasharray="" d="  M230.7,170.99 L243.42,152.09" style="stroke: rgb(255, 121, 198); stroke-opacity: 1; stroke-width: 1; fill: none; fill-opacity: 1;"/><g stroke="none" fill="rgb(255,121,198)" fill-opacity="1" transform="matrix(-0.5581796259215484,0.8297201366762653,-0.8297201366762653,-0.5581796259215484,245.09061686197913,149.59979248046875)" style="stroke: none; fill: rgb(255, 121, 198); stroke-width: 1;"><path d=" M8.93,-4.29 L0,0 L8.93,4.29 Z"/></g></g><g class="arrow-line"><path class="connection real" stroke-dasharray="" d="  M181.7,165.99 L194.42,147.09" style="stroke: rgb(255, 121, 198); stroke-opacity: 1; stroke-width: 1; fill: none; fill-opacity: 1;"/><g stroke="none" fill="rgb(255,121,198)" fill-opacity="1" transform="matrix(-0.5581796259215484,0.8297201366762653,-0.8297201366762653,-0.5581796259215484,196.0906168619791,144.59979248046875)" style="stroke: none; fill: rgb(255, 121, 198); stroke-width: 1;"><path d=" M8.93,-4.29 L0,0 L8.93,4.29 Z"/></g></g><g class="arrow-line"><path class="connection real" stroke-dasharray="" d="  M153.7,168.99 L166.42,150.09" style="stroke: rgb(255, 121, 198); stroke-opacity: 1; stroke-width: 1; fill: none; fill-opacity: 1;"/><g stroke="none" fill="rgb(255,121,198)" fill-opacity="1" transform="matrix(-0.5581796259215484,0.8297201366762653,-0.8297201366762653,-0.5581796259215484,168.0906168619791,147.59979248046875)" style="stroke: none; fill: rgb(255, 121, 198); stroke-width: 1;"><path d=" M8.93,-4.29 L0,0 L8.93,4.29 Z"/></g></g><g class="arrow-line"><path class="connection real" stroke-dasharray="" d="  M60.7,148.99 L77.54,121.17" style="stroke: rgb(255, 121, 198); stroke-opacity: 1; stroke-width: 1; fill: none; fill-opacity: 1;"/><g stroke="none" fill="rgb(255,121,198)" fill-opacity="1" transform="matrix(-0.5177283993663098,0.8555450335836209,-0.8555450335836209,-0.5177283993663098,79.09061686197913,118.59979248046875)" style="stroke: none; fill: rgb(255, 121, 198); stroke-width: 1;"><path d=" M8.93,-4.29 L0,0 L8.93,4.29 Z"/></g></g><g class="arrow-line"><path class="connection real" stroke-dasharray="" d="  M113.7,139.99 L143.07,107.82" style="stroke: rgb(255, 121, 198); stroke-opacity: 1; stroke-width: 1; fill: none; fill-opacity: 1;"/><g stroke="none" fill="rgb(255,121,198)" fill-opacity="1" transform="matrix(-0.6741734925434357,0.738573017346143,-0.738573017346143,-0.6741734925434357,145.0906168619791,105.59979248046875)" style="stroke: none; fill: rgb(255, 121, 198); stroke-width: 1;"><path d=" M8.93,-4.29 L0,0 L8.93,4.29 Z"/></g></g><g class="arrow-line"><path class="connection real" stroke-dasharray="" d="  M88.7,141.99 L105.64,111.23" style="stroke: rgb(255, 121, 198); stroke-opacity: 1; stroke-width: 1; fill: none; fill-opacity: 1;"/><g stroke="none" fill="rgb(255,121,198)" fill-opacity="1" transform="matrix(-0.48236533412453536,0.8759701390087024,-0.8759701390087024,-0.48236533412453536,107.09061686197913,108.59979248046875)" style="stroke: none; fill: rgb(255, 121, 198); stroke-width: 1;"><path d=" M8.93,-4.29 L0,0 L8.93,4.29 Z"/></g></g><g class="arrow-line"><path class="connection real" stroke-dasharray="" d="  M194.7,123.99 L218.89,101.64" style="stroke: rgb(255, 121, 198); stroke-opacity: 1; stroke-width: 1; fill: none; fill-opacity: 1;"/><g stroke="none" fill="rgb(255,121,198)" fill-opacity="1" transform="matrix(-0.734440971330458,0.6786725717392543,-0.6786725717392543,-0.734440971330458,221.09061686197913,99.59979248046875)" style="stroke: none; fill: rgb(255, 121, 198); stroke-width: 1;"><path d=" M8.93,-4.29 L0,0 L8.93,4.29 Z"/></g></g><g class="arrow-line"><path class="connection real" stroke-dasharray="" d="  M164.7,129.99 L195.7,106.42" style="stroke: rgb(255, 121, 198); stroke-opacity: 1; stroke-width: 1; fill: none; fill-opacity: 1;"/><g stroke="none" fill="rgb(255,121,198)" fill-opacity="1" transform="matrix(-0.7960020025346211,0.6052939880428957,-0.6052939880428957,-0.7960020025346211,198.09061686197916,104.59979248046875)" style="stroke: none; fill: rgb(255, 121, 198); stroke-width: 1;"><path d=" M8.93,-4.29 L0,0 L8.93,4.29 Z"/></g></g><g class="arrow-line"><path class="connection real" stroke-dasharray="" d="  M136.7,135.99 L171.88,103.63" style="stroke: rgb(255, 121, 198); stroke-opacity: 1; stroke-width: 1; fill: none; fill-opacity: 1;"/><g stroke="none" fill="rgb(255,121,198)" fill-opacity="1" transform="matrix(-0.7359789387659489,0.6770044325504433,-0.6770044325504433,-0.7359789387659489,174.09061686197913,101.59979248046875)" style="stroke: none; fill: rgb(255, 121, 198); stroke-width: 1;"><path d=" M8.93,-4.29 L0,0 L8.93,4.29 Z"/></g></g><g class="arrow-line"><path class="connection real" stroke-dasharray="" d="  M95.7,101.99 L116.31,74.02" style="stroke: rgb(255, 121, 198); stroke-opacity: 1; stroke-width: 1; fill: none; fill-opacity: 1;"/><g stroke="none" fill="rgb(255,121,198)" fill-opacity="1" transform="matrix(-0.5931378895184061,0.8051008905830692,-0.8051008905830692,-0.5931378895184061,118.09061686197913,71.59979248046875)" style="stroke: none; fill: rgb(255, 121, 198); stroke-width: 1;"><path d=" M8.93,-4.29 L0,0 L8.93,4.29 Z"/></g></g><g class="arrow-line"><path class="connection real" stroke-dasharray="" d="  M153.7,89.99 L176.14,63.88" style="stroke: rgb(255, 121, 198); stroke-opacity: 1; stroke-width: 1; fill: none; fill-opacity: 1;"/><g stroke="none" fill="rgb(255,121,198)" fill-opacity="1" transform="matrix(-0.6517013562501208,0.7584756701844517,-0.7584756701844517,-0.6517013562501208,178.09061686197916,61.59979248046875)" style="stroke: none; fill: rgb(255, 121, 198); stroke-width: 1;"><path d=" M8.93,-4.29 L0,0 L8.93,4.29 Z"/></g></g><g class="arrow-line"><path class="connection real" stroke-dasharray="" d="  M126.7,96.99 L145.12,75.86" style="stroke: rgb(255, 121, 198); stroke-opacity: 1; stroke-width: 1; fill: none; fill-opacity: 1;"/><g stroke="none" fill="rgb(255,121,198)" fill-opacity="1" transform="matrix(-0.6571121625034841,0.7537928136364758,-0.7537928136364758,-0.6571121625034841,147.09061686197913,73.59979248046875)" style="stroke: none; fill: rgb(255, 121, 198); stroke-width: 1;"><path d=" M8.93,-4.29 L0,0 L8.93,4.29 Z"/></g></g><g class="arrow-line"><path class="connection real" stroke-dasharray="" d="  M234.7,75.99 L258.54,61.18" style="stroke: rgb(255, 121, 198); stroke-opacity: 1; stroke-width: 1; fill: none; fill-opacity: 1;"/><g stroke="none" fill="rgb(255,121,198)" fill-opacity="1" transform="matrix(-0.8495246013573057,0.5275490040638035,-0.5275490040638035,-0.8495246013573057,261.0906168619792,59.59979248046875)" style="stroke: none; fill: rgb(255, 121, 198); stroke-width: 1;"><path d=" M8.93,-4.29 L0,0 L8.93,4.29 Z"/></g></g><g class="arrow-line"><path class="connection real" stroke-dasharray="" d="  M204.7,80.99 L229.77,60.5" style="stroke: rgb(255, 121, 198); stroke-opacity: 1; stroke-width: 1; fill: none; fill-opacity: 1;"/><g stroke="none" fill="rgb(255,121,198)" fill-opacity="1" transform="matrix(-0.7742822043762883,0.6328404759386015,-0.6328404759386015,-0.7742822043762883,232.0906168619791,58.59979248046875)" style="stroke: none; fill: rgb(255, 121, 198); stroke-width: 1;"><path d=" M8.93,-4.29 L0,0 L8.93,4.29 Z"/></g></g><g class="arrow-line"><path class="connection real" stroke-dasharray="" d="  M178.7,83.99 L198.11,61.86" style="stroke: rgb(255, 121, 198); stroke-opacity: 1; stroke-width: 1; fill: none; fill-opacity: 1;"/><g stroke="none" fill="rgb(255,121,198)" fill-opacity="1" transform="matrix(-0.659345815100069,0.7518398074789773,-0.7518398074789773,-0.659345815100069,200.09061686197916,59.59979248046875)" style="stroke: none; fill: rgb(255, 121, 198); stroke-width: 1;"><path d=" M8.93,-4.29 L0,0 L8.93,4.29 Z"/></g></g><g class="arrow-line"><path class="connection real" stroke-dasharray="" d="  M206.7,165.99 L219.42,147.09" style="stroke: rgb(255, 121, 198); stroke-opacity: 1; stroke-width: 1; fill: none; fill-opacity: 1;"/><g stroke="none" fill="rgb(255,121,198)" fill-opacity="1" transform="matrix(-0.5581796259215484,0.8297201366762653,-0.8297201366762653,-0.5581796259215484,221.09061686197913,144.59979248046875)" style="stroke: none; fill: rgb(255, 121, 198); stroke-width: 1;"><path d=" M8.93,-4.29 L0,0 L8.93,4.29 Z"/></g></g><g class="arrow-line"><path class="connection real" stroke-dasharray="" d="  M257.7,179.99 L276.17,157.9" style="stroke: rgb(255, 121, 198); stroke-opacity: 1; stroke-width: 1; fill: none; fill-opacity: 1;"/><g stroke="none" fill="rgb(255,121,198)" fill-opacity="1" transform="matrix(-0.6413157262219422,0.7672770942107048,-0.7672770942107048,-0.6413157262219422,278.09061686197913,155.59979248046875)" style="stroke: none; fill: rgb(255, 121, 198); stroke-width: 1;"><path d=" M8.93,-4.29 L0,0 L8.93,4.29 Z"/></g></g><g class="arrow-line"><path class="connection real" stroke-dasharray="" d="  M227.7,135.99 L248.88,116.62" style="stroke: rgb(255, 121, 198); stroke-opacity: 1; stroke-width: 1; fill: none; fill-opacity: 1;"/><g stroke="none" fill="rgb(255,121,198)" fill-opacity="1" transform="matrix(-0.7379844088343464,0.674817762301364,-0.674817762301364,-0.7379844088343464,251.09061686197919,114.59979248046875)" style="stroke: none; fill: rgb(255, 121, 198); stroke-width: 1;"><path d=" M8.93,-4.29 L0,0 L8.93,4.29 Z"/></g></g><g class="arrow-line"><path class="connection real" stroke-dasharray="" d="  M123.7,169.99 L134.53,153.89 L136.42,151.09" style="stroke: rgb(255, 121, 198); stroke-opacity: 1; stroke-width: 1; fill: none; fill-opacity: 1;"/><g stroke="none" fill="rgb(255,121,198)" fill-opacity="1" transform="matrix(-0.5581796259215484,0.8297201366762653,-0.8297201366762653,-0.5581796259215484,138.09061686197916,148.59979248046875)" style="stroke: none; fill: rgb(255, 121, 198); stroke-width: 1;"><path d=" M8.93,-4.29 L0,0 L8.93,4.29 Z"/></g></g><g class="arrow-line"><path class="connection real" stroke-dasharray="" d="  M298.7,144.99 L324.27,135.63" style="stroke: rgb(255, 121, 198); stroke-opacity: 1; stroke-width: 1; fill: none; fill-opacity: 1;"/><g stroke="none" fill="rgb(255,121,198)" fill-opacity="1" transform="matrix(-0.9390942520947085,0.34365969458561757,-0.34365969458561757,-0.9390942520947085,327.0906168619791,134.59979248046875)" style="stroke: none; fill: rgb(255, 121, 198); stroke-width: 1;"><path d=" M8.93,-4.29 L0,0 L8.93,4.29 Z"/></g></g><g class="arrow-line"><path class="connection real" stroke-dasharray="" d="  M278.7,188.99 L298.92,169.67" style="stroke: rgb(255, 121, 198); stroke-opacity: 1; stroke-width: 1; fill: none; fill-opacity: 1;"/><g stroke="none" fill="rgb(255,121,198)" fill-opacity="1" transform="matrix(-0.7230877166257108,0.6907562189839594,-0.6907562189839594,-0.7230877166257108,301.09061686197913,167.59979248046875)" style="stroke: none; fill: rgb(255, 121, 198); stroke-width: 1;"><path d=" M8.93,-4.29 L0,0 L8.93,4.29 Z"/></g></g><g class="arrow-line"><path class="connection real" stroke-dasharray="" d="  M260.7,144.99 L278.81,129.55" style="stroke: rgb(255, 121, 198); stroke-opacity: 1; stroke-width: 1; fill: none; fill-opacity: 1;"/><g stroke="none" fill="rgb(255,121,198)" fill-opacity="1" transform="matrix(-0.7608591805274467,0.6489170265967,-0.6489170265967,-0.7608591805274467,281.09061686197913,127.59979248046875)" style="stroke: none; fill: rgb(255, 121, 198); stroke-width: 1;"><path d=" M8.93,-4.29 L0,0 L8.93,4.29 Z"/></g></g><g class="arrow-line"><path class="connection real" stroke-dasharray="" d="  M298.7,121.99 L323.09,121.64" style="stroke: rgb(255, 121, 198); stroke-opacity: 1; stroke-width: 1; fill: none; fill-opacity: 1;"/><g stroke="none" fill="rgb(255,121,198)" fill-opacity="1" transform="matrix(-0.9999000719197535,0.01413669603803311,-0.01413669603803311,-0.9999000719197535,326.0906168619792,121.59979248046875)" style="stroke: none; fill: rgb(255, 121, 198); stroke-width: 1;"><path d=" M8.93,-4.29 L0,0 L8.93,4.29 Z"/></g></g><g class="arrow-line"><path class="connection real" stroke-dasharray="" d="  M286.7,205.99 L316.87,178.62" style="stroke: rgb(255, 121, 198); stroke-opacity: 1; stroke-width: 1; fill: none; fill-opacity: 1;"/><g stroke="none" fill="rgb(255,121,198)" fill-opacity="1" transform="matrix(-0.7405700764403723,0.6719791379805634,-0.6719791379805634,-0.7405700764403723,319.09061686197913,176.59979248046875)" style="stroke: none; fill: rgb(255, 121, 198); stroke-width: 1;"><path d=" M8.93,-4.29 L0,0 L8.93,4.29 Z"/></g></g><g class="arrow-line"><path class="connection real" stroke-dasharray="" d="  M374.7,158.99 L379.44,137.53" style="stroke: rgb(255, 121, 198); stroke-opacity: 1; stroke-width: 1; fill: none; fill-opacity: 1;"/><g stroke="none" fill="rgb(255,121,198)" fill-opacity="1" transform="matrix(-0.21558755264223237,0.9764845145447687,-0.9764845145447687,-0.21558755264223237,380.09061686197913,134.59979248046875)" style="stroke: none; fill: rgb(255, 121, 198); stroke-width: 1;"><path d=" M8.93,-4.29 L0,0 L8.93,4.29 Z"/></g></g><g class="arrow-line"><path class="connection real" stroke-dasharray="" d="  M350.7,165.99 L361.85,141.33" style="stroke: rgb(255, 121, 198); stroke-opacity: 1; stroke-width: 1; fill: none; fill-opacity: 1;"/><g stroke="none" fill="rgb(255,121,198)" fill-opacity="1" transform="matrix(-0.4121505377895017,0.9111157633362648,-0.9111157633362648,-0.4121505377895017,363.0906168619792,138.59979248046875)" style="stroke: none; fill: rgb(255, 121, 198); stroke-width: 1;"><path d=" M8.93,-4.29 L0,0 L8.93,4.29 Z"/></g></g><g class="arrow-line"><path class="connection real" stroke-dasharray="" d="  M322.7,163.99 L338.44,140.1" style="stroke: rgb(255, 121, 198); stroke-opacity: 1; stroke-width: 1; fill: none; fill-opacity: 1;"/><g stroke="none" fill="rgb(255,121,198)" fill-opacity="1" transform="matrix(-0.5501892896743663,0.83503996642533,-0.83503996642533,-0.5501892896743663,340.09061686197913,137.59979248046875)" style="stroke: none; fill: rgb(255, 121, 198); stroke-width: 1;"><path d=" M8.93,-4.29 L0,0 L8.93,4.29 Z"/></g></g><g class="arrow-line"><path class="connection real" stroke-dasharray="" d="  M223.7,112.99 L248.52,98.14" style="stroke: rgb(255, 121, 198); stroke-opacity: 1; stroke-width: 1; fill: none; fill-opacity: 1;"/><g stroke="none" fill="rgb(255,121,198)" fill-opacity="1" transform="matrix(-0.8581545225110461,0.5133914836592427,-0.5133914836592427,-0.8581545225110461,251.09061686197919,96.59979248046875)" style="stroke: none; fill: rgb(255, 121, 198); stroke-width: 1;"><path d=" M8.93,-4.29 L0,0 L8.93,4.29 Z"/></g></g><g class="arrow-line"><path class="connection real" stroke-dasharray="" d="  M302.84,97.29 L325.17,108.91" style="stroke: rgb(255, 121, 198); stroke-opacity: 1; stroke-width: 1; fill: none; fill-opacity: 1;"/><g stroke="none" fill="rgb(255,121,198)" fill-opacity="1" transform="matrix(-0.8872524825861734,-0.46128411217456,0.46128411217456,-0.8872524825861734,327.83511352539057,110.2943115234375)" style="stroke: none; fill: rgb(255, 121, 198); stroke-width: 1;"><path d=" M8.93,-4.29 L0,0 L8.93,4.29 Z"/></g></g><g class="arrow-line"><path class="connection real" stroke-dasharray="" d="  M260.7,99.99 L279.25,93.58" style="stroke: rgb(255, 121, 198); stroke-opacity: 1; stroke-width: 1; fill: none; fill-opacity: 1;"/><g stroke="none" fill="rgb(255,121,198)" fill-opacity="1" transform="matrix(-0.9452341037968682,0.32639315099942184,-0.32639315099942184,-0.9452341037968682,282.0906168619791,92.59979248046875)" style="stroke: none; fill: rgb(255, 121, 198); stroke-width: 1;"><path d=" M8.93,-4.29 L0,0 L8.93,4.29 Z"/></g></g><g class="arrow-line"><path class="connection real" stroke-dasharray="" d="  M362.7,85.99 L363.91,106.6" style="stroke: rgb(255, 121, 198); stroke-opacity: 1; stroke-width: 1; fill: none; fill-opacity: 1;"/><g stroke="none" fill="rgb(255,121,198)" fill-opacity="1" transform="matrix(-0.05860945631109658,-0.998280988314872,0.998280988314872,-0.05860945631109658,364.09061686197913,109.59979248046875)" style="stroke: none; fill: rgb(255, 121, 198); stroke-width: 1;"><path d=" M8.93,-4.29 L0,0 L8.93,4.29 Z"/></g></g><g class="arrow-line"><path class="connection real" stroke-dasharray="" d="  M334.7,89.99 L343.5,107.61" style="stroke: rgb(255, 121, 198); stroke-opacity: 1; stroke-width: 1; fill: none; fill-opacity: 1;"/><g stroke="none" fill="rgb(255,121,198)" fill-opacity="1" transform="matrix(-0.4463540018250262,-0.8948564717622511,0.8948564717622511,-0.4463540018250262,344.8351135253906,110.2943115234375)" style="stroke: none; fill: rgb(255, 121, 198); stroke-width: 1;"><path d=" M8.93,-4.29 L0,0 L8.93,4.29 Z"/></g></g><g class="arrow-line"><path class="connection real" stroke-dasharray="" d="  M265.7,111.99 L283.09,111.66" style="stroke: rgb(255, 121, 198); stroke-opacity: 1; stroke-width: 1; fill: none; fill-opacity: 1;"/><g stroke="none" fill="rgb(255,121,198)" fill-opacity="1" transform="matrix(-0.9998223523808091,0.01884843971540737,-0.01884843971540737,-0.9998223523808091,286.09061686197913,111.59979248046874)" style="stroke: none; fill: rgb(255, 121, 198); stroke-width: 1;"><path d=" M8.93,-4.29 L0,0 L8.93,4.29 Z"/></g></g><g class="arrow-line"><path class="connection real" stroke-dasharray="" d="  M138.7,62.99 L161.21,34.94" style="stroke: rgb(255, 121, 198); stroke-opacity: 1; stroke-width: 1; fill: none; fill-opacity: 1;"/><g stroke="none" fill="rgb(255,121,198)" fill-opacity="1" transform="matrix(-0.6259234721840585,0.7798844830928822,-0.7798844830928822,-0.6259234721840585,163.09061686197913,32.59979248046875)" style="stroke: none; fill: rgb(255, 121, 198); stroke-width: 1;"><path d=" M8.93,-4.29 L0,0 L8.93,4.29 Z"/></g></g><g class="arrow-line"><path class="connection real" stroke-dasharray="" d="  M200.7,41.99 L226.01,15.76" style="stroke: rgb(255, 121, 198); stroke-opacity: 1; stroke-width: 1; fill: none; fill-opacity: 1;"/><g stroke="none" fill="rgb(255,121,198)" fill-opacity="1" transform="matrix(-0.6942816298152453,0.7197034239887196,-0.7197034239887196,-0.6942816298152453,228.09061686197913,13.59979248046875)" style="stroke: none; fill: rgb(255, 121, 198); stroke-width: 1;"><path d=" M8.93,-4.29 L0,0 L8.93,4.29 Z"/></g></g><g class="arrow-line"><path class="connection real" stroke-dasharray="" d="  M172.7,50.99 L195.14,24.88" style="stroke: rgb(255, 121, 198); stroke-opacity: 1; stroke-width: 1; fill: none; fill-opacity: 1;"/><g stroke="none" fill="rgb(255,121,198)" fill-opacity="1" transform="matrix(-0.6517013562501208,0.7584756701844517,-0.7584756701844517,-0.6517013562501208,197.09061686197913,22.59979248046875)" style="stroke: none; fill: rgb(255, 121, 198); stroke-width: 1;"><path d=" M8.93,-4.29 L0,0 L8.93,4.29 Z"/></g></g><g class="arrow-line"><path class="connection real" stroke-dasharray="" d="  M282.7,35.99 L315.87,30.76" style="stroke: rgb(255, 121, 198); stroke-opacity: 1; stroke-width: 1; fill: none; fill-opacity: 1;"/><g stroke="none" fill="rgb(255,121,198)" fill-opacity="1" transform="matrix(-0.9878244793179193,0.15557248490745906,-0.15557248490745906,-0.9878244793179193,318.8351135253907,30.2943115234375)" style="stroke: none; fill: rgb(255, 121, 198); stroke-width: 1;"><path d=" M8.93,-4.29 L0,0 L8.93,4.29 Z"/></g></g><g class="arrow-line"><path class="connection real" stroke-dasharray="" d="  M254.7,35.99 L279.64,18.33" style="stroke: rgb(255, 121, 198); stroke-opacity: 1; stroke-width: 1; fill: none; fill-opacity: 1;"/><g stroke="none" fill="rgb(255,121,198)" fill-opacity="1" transform="matrix(-0.8162384328306942,0.5777151727019919,-0.5777151727019919,-0.8162384328306942,282.09061686197913,16.59979248046875)" style="stroke: none; fill: rgb(255, 121, 198); stroke-width: 1;"><path d=" M8.93,-4.29 L0,0 L8.93,4.29 Z"/></g></g><g class="arrow-line"><path class="connection real" stroke-dasharray="" d="  M226.7,38.99 L257.7,15.42" style="stroke: rgb(255, 121, 198); stroke-opacity: 1; stroke-width: 1; fill: none; fill-opacity: 1;"/><g stroke="none" fill="rgb(255,121,198)" fill-opacity="1" transform="matrix(-0.7960020025346211,0.6052939880428957,-0.6052939880428957,-0.7960020025346211,260.09061686197913,13.59979248046875)" style="stroke: none; fill: rgb(255, 121, 198); stroke-width: 1;"><path d=" M8.93,-4.29 L0,0 L8.93,4.29 Z"/></g></g><g class="arrow-line"><path class="connection real" stroke-dasharray="" d="  M260.7,72.99 L285.36,61.84" style="stroke: rgb(255, 121, 198); stroke-opacity: 1; stroke-width: 1; fill: none; fill-opacity: 1;"/><g stroke="none" fill="rgb(255,121,198)" fill-opacity="1" transform="matrix(-0.9111157633362645,0.4121505377895024,-0.4121505377895024,-0.9111157633362645,288.09061686197913,60.59979248046875)" style="stroke: none; fill: rgb(255, 121, 198); stroke-width: 1;"><path d=" M8.93,-4.29 L0,0 L8.93,4.29 Z"/></g></g><g class="arrow-line"><path class="connection real" stroke-dasharray="" d="  M316.7,48.99 L337.48,65.43" style="stroke: rgb(255, 121, 198); stroke-opacity: 1; stroke-width: 1; fill: none; fill-opacity: 1;"/><g stroke="none" fill="rgb(255,121,198)" fill-opacity="1" transform="matrix(-0.7841269092655713,-0.620600507706546,0.620600507706546,-0.7841269092655713,339.8351135253906,67.2943115234375)" style="stroke: none; fill: rgb(255, 121, 198); stroke-width: 1;"><path d=" M8.93,-4.29 L0,0 L8.93,4.29 Z"/></g></g><g class="arrow-line"><path class="connection real" stroke-dasharray="" d="  M299.7,67.99 L323.94,74.51" style="stroke: rgb(255, 121, 198); stroke-opacity: 1; stroke-width: 1; fill: none; fill-opacity: 1;"/><g stroke="none" fill="rgb(255,121,198)" fill-opacity="1" transform="matrix(-0.9655635052852647,-0.2601674792537159,0.2601674792537159,-0.9655635052852647,326.8351135253906,75.2943115234375)" style="stroke: none; fill: rgb(255, 121, 198); stroke-width: 1;"><path d=" M8.93,-4.29 L0,0 L8.93,4.29 Z"/></g></g><g class="arrow-line"><path class="connection real" stroke-dasharray="" d="  M342.84,46.29 L361.34,72.16" style="stroke: rgb(255, 121, 198); stroke-opacity: 1; stroke-width: 1; fill: none; fill-opacity: 1;"/><g stroke="none" fill="rgb(255,121,198)" fill-opacity="1" transform="matrix(-0.5819810484374625,-0.8132023482870866,0.8132023482870866,-0.5819810484374625,363.0906168619792,74.59979248046875)" style="stroke: none; fill: rgb(255, 121, 198); stroke-width: 1;"><path d=" M8.93,-4.29 L0,0 L8.93,4.29 Z"/></g></g><g class="arrow-line"><path class="connection real" stroke-dasharray="" d="  M395.09,91.6 L386.55,106.98" style="stroke: rgb(255, 121, 198); stroke-opacity: 1; stroke-width: 1; fill: none; fill-opacity: 1;"/><g stroke="none" fill="rgb(255,121,198)" fill-opacity="1" transform="matrix(0.4855726852272746,-0.8741962979566855,0.8741962979566855,0.4855726852272746,385.09061686197913,109.59979248046875)" style="stroke: none; fill: rgb(255, 121, 198); stroke-width: 1;"><path d=" M8.93,-4.29 L0,0 L8.93,4.29 Z"/></g></g><g class="arrow-line"><path class="connection real" stroke-dasharray="" d="  M417.7,108.99 L396.74,120.19" style="stroke: rgb(255, 121, 198); stroke-opacity: 1; stroke-width: 1; fill: none; fill-opacity: 1;"/><g stroke="none" fill="rgb(255,121,198)" fill-opacity="1" transform="matrix(0.8820446455010914,-0.47116583422703096,0.47116583422703096,0.8820446455010914,394.09061686197913,121.59979248046876)" style="stroke: none; fill: rgb(255, 121, 198); stroke-width: 1;"><path d=" M8.93,-4.29 L0,0 L8.93,4.29 Z"/></g></g><g class="arrow-line"><path class="connection real" stroke-dasharray="" d="  M408.7,152.99 L393.99,134.93" style="stroke: rgb(255, 121, 198); stroke-opacity: 1; stroke-width: 1; fill: none; fill-opacity: 1;"/><g stroke="none" fill="rgb(255,121,198)" fill-opacity="1" transform="matrix(0.6317587575079564,0.7751650613333931,-0.7751650613333931,0.6317587575079564,392.09061686197913,132.59979248046875)" style="stroke: none; fill: rgb(255, 121, 198); stroke-width: 1;"><path d=" M8.93,-4.29 L0,0 L8.93,4.29 Z"/></g></g><g class="arrow-line"><path class="connection real" stroke-dasharray="" d="  M430.7,151.99 L424.92,137.09" style="stroke: rgb(255, 121, 198); stroke-opacity: 1; stroke-width: 1; fill: none; fill-opacity: 1;"/><g stroke="none" fill="rgb(255,121,198)" fill-opacity="1" transform="matrix(0.36194999044457354,0.9321975136295811,-0.9321975136295811,0.36194999044457354,423.8351135253906,134.2943115234375)" style="stroke: none; fill: rgb(255, 121, 198); stroke-width: 1;"><path d=" M8.93,-4.29 L0,0 L8.93,4.29 Z"/></g></g><g class="arrow-line"><path class="connection real" stroke-dasharray="" d="  M295.7,223.99 L327.61,202.29" style="stroke: rgb(255, 121, 198); stroke-opacity: 1; stroke-width: 1; fill: none; fill-opacity: 1;"/><g stroke="none" fill="rgb(255,121,198)" fill-opacity="1" transform="matrix(-0.8268843197776314,0.5623720491861982,-0.5623720491861982,-0.8268843197776314,330.09061686197913,200.59979248046875)" style="stroke: none; fill: rgb(255, 121, 198); stroke-width: 1;"><path d=" M8.93,-4.29 L0,0 L8.93,4.29 Z"/></g></g><g class="arrow-line"><path class="connection real" stroke-dasharray="" d="  M339.7,201.99 L355.2,182.93" style="stroke: rgb(255, 121, 198); stroke-opacity: 1; stroke-width: 1; fill: none; fill-opacity: 1;"/><g stroke="none" fill="rgb(255,121,198)" fill-opacity="1" transform="matrix(-0.6308112434743731,0.7759363215537182,-0.7759363215537182,-0.6308112434743731,357.09061686197913,180.59979248046875)" style="stroke: none; fill: rgb(255, 121, 198); stroke-width: 1;"><path d=" M8.93,-4.29 L0,0 L8.93,4.29 Z"/></g></g><g class="arrow-line"><path class="connection real" stroke-dasharray="" d="  M377.7,184.99 L392.09,168.84" style="stroke: rgb(255, 121, 198); stroke-opacity: 1; stroke-width: 1; fill: none; fill-opacity: 1;"/><g stroke="none" fill="rgb(255,121,198)" fill-opacity="1" transform="matrix(-0.6653606574676811,0.746522066314302,-0.746522066314302,-0.6653606574676811,394.0906168619792,166.59979248046875)" style="stroke: none; fill: rgb(255, 121, 198); stroke-width: 1;"><path d=" M8.93,-4.29 L0,0 L8.93,4.29 Z"/></g></g><g class="arrow-line"><path class="connection real" stroke-dasharray="" d="  M410.7,173.99 L417.65,161.23" style="stroke: rgb(255, 121, 198); stroke-opacity: 1; stroke-width: 1; fill: none; fill-opacity: 1;"/><g stroke="none" fill="rgb(255,121,198)" fill-opacity="1" transform="matrix(-0.47853861371351386,0.8780665095453467,-0.8780665095453467,-0.47853861371351386,419.0906168619792,158.59979248046875)" style="stroke: none; fill: rgb(255, 121, 198); stroke-width: 1;"><path d=" M8.93,-4.29 L0,0 L8.93,4.29 Z"/></g></g><g/></g><g/><g/><g/></svg>
        <svg xmlns="http://www.w3.org/2000/svg" xmlns:xlink="http://www.w3.org/1999/xlink" width="505.96636962890625" height="258.9774475097656" style="width:505.96636962890625px;height:258.9774475097656px;font-family:Asana-Math, Asana;background:#FFF;"><g><g><g><g transform="matrix(1,0,0,1,120.1865234375,23.489447021484374)"><path transform="matrix(0.020399999999999998,0,0,-0.020399999999999998,0,0)" d="M937 664L950 695C922 699 775 701 773 692L688 536L442 114L292 692C269 686 146 690 125 692L122 664L148 662C200 658 218 648 218 622C218 616 72 100 70 93C54 41 39 28 -16 23L-19 -3L20 -2C54 -1 79 0 93 0C107 0 133 -1 168 -2L203 -3L206 25L168 28C136 30 119 40 119 55C119 65 121 78 126 96L250 560L399 -18L422 -18L479 86L718 500L770 587L733 67C729 39 717 32 666 28L635 25L632 -3L679 -2C721 -1 751 0 766 0C782 0 812 -1 853 -2L899 -3L902 25L865 28C829 31 811 42 811 63L812 100L853 631C855 650 870 660 899 662Z" stroke="rgb(107,201,223)" stroke-opacity="1" stroke-width="8" fill="rgb(107,201,223)" fill-opacity="1"></path></g></g></g></g><g><g><g><g transform="matrix(1,0,0,1,120.1865234375,23.489447021484374)"><path transform="matrix(0.020399999999999998,0,0,-0.020399999999999998,0,0)" d="M937 664L950 695C922 699 775 701 773 692L688 536L442 114L292 692C269 686 146 690 125 692L122 664L148 662C200 658 218 648 218 622C218 616 72 100 70 93C54 41 39 28 -16 23L-19 -3L20 -2C54 -1 79 0 93 0C107 0 133 -1 168 -2L203 -3L206 25L168 28C136 30 119 40 119 55C119 65 121 78 126 96L250 560L399 -18L422 -18L479 86L718 500L770 587L733 67C729 39 717 32 666 28L635 25L632 -3L679 -2C721 -1 751 0 766 0C782 0 812 -1 853 -2L899 -3L902 25L865 28C829 31 811 42 811 63L812 100L853 631C855 650 870 660 899 662Z" stroke="rgb(107,201,223)" stroke-opacity="1" stroke-width="8" fill="rgb(107,201,223)" fill-opacity="1"></path></g></g></g></g><g><g><g><g transform="matrix(1,0,0,1,393.1869812011719,41.37802734375)"><path transform="matrix(0.020399999999999998,0,0,-0.020399999999999998,0,0)" d="M310 96L239 624C237 646 241 661 281 662L323 664L323 692L282 691C245 690 217 689 199 689C181 689 153 690 116 691L75 692L75 664L100 662C144 659 152 651 159 614L247 -8L296 -8L674 611C699 651 707 658 736 662L754 664L754 692L724 691C697 690 674 689 658 689C648 689 621 690 580 691L534 692L534 664L560 662C598 659 617 649 617 630C617 619 613 608 601 588Z" stroke="rgb(255,121,198)" stroke-opacity="1" stroke-width="8" fill="rgb(255,121,198)" fill-opacity="1"></path></g></g></g></g></svg>
</svg>
