<svg xmlns="http://www.w3.org/2000/svg" xmlns:xlink="http://www.w3.org/1999/xlink" x="0" y="0" width="507.9556579589844" height="260.96673583984375" style="
        width:507.9556579589844px;
        height:260.96673583984375px;
        background: transparent;
        fill: none;
">
        <svg xmlns="http://www.w3.org/2000/svg"/>
        
        <svg xmlns="http://www.w3.org/2000/svg" class="role-diagram-draw-area"><g class="shapes-region" style="stroke: black; fill: none;"><g class="arrow-line"><path class="connection real" stroke-dasharray="" d="  M5.65,251.88 C66.99,-50.79 396.32,-91.45 496.99,242.55" style="stroke: rgb(107, 201, 223); stroke-opacity: 1; stroke-width: 1; fill: none; fill-opacity: 1;"/></g><g class="arrow-line"><path class="connection real" stroke-dasharray="" d="  M5.65,251.88 C78.99,188.55 222.99,153.21 303.65,248.55" style="stroke: rgb(107, 201, 223); stroke-opacity: 1; stroke-width: 1; fill: none; fill-opacity: 1;"/></g><g class="arrow-line"><path class="connection real" stroke-dasharray="" d="  M303.65,248.55 C403.65,179.21 446.99,154.55 496.99,242.55" style="stroke: rgb(107, 201, 223); stroke-opacity: 1; stroke-width: 1; fill: none; fill-opacity: 1;"/></g><g class="arrow-line"><path class="connection real" stroke-dasharray="" d="  M118.32,151.88 C131.77,134.06 145.99,116.84 161.74,102.02 C178.08,86.64 196.04,73.83 216.48,65.61 C235.75,57.86 257.21,54.17 281.56,56.25 C301.53,57.95 323.43,63.52 347.65,73.88" style="stroke: rgb(255, 121, 198); stroke-opacity: 1; stroke-width: 1; fill: none; fill-opacity: 1;"/><g stroke="rgb(255,121,198)" stroke-opacity="1" fill="rgb(255,121,198)" fill-opacity="1" transform="matrix(0.602511734868113,-0.7981100233340117,0.7981100233340117,0.602511734868113,118.31899007161454,151.87862141927081)" style="stroke: rgb(255, 121, 198); fill: rgb(255, 121, 198); stroke-width: 1;"><circle cx="0" cy="0" r="3.35"/></g><g><g stroke="none" fill="rgb(255,121,198)" fill-opacity="1" transform="matrix(-0.655663774065275,0.7550529884574195,-0.7550529884574195,-0.655663774065275,142.4310418782752,122.07915821748128)" style="stroke: none; fill: rgb(255, 121, 198); stroke-width: 1;"><path d=" M8.93,-4.29 L0,0 L8.93,4.29 Z"/></g><g stroke="none" fill="rgb(255,121,198)" fill-opacity="1" transform="matrix(-0.8344633517919393,0.5510634396475256,-0.5510634396475256,-0.8344633517919393,191.69727952048638,78.42307508982518)" style="stroke: none; fill: rgb(255, 121, 198); stroke-width: 1;"><path d=" M8.93,-4.29 L0,0 L8.93,4.29 Z"/></g><g stroke="none" fill="rgb(255,121,198)" fill-opacity="1" transform="matrix(-0.9924179861623915,0.12290866829228679,-0.12290866829228679,-0.9924179861623915,253.68441833070335,56.413943829585435)" style="stroke: none; fill: rgb(255, 121, 198); stroke-width: 1;"><path d=" M8.93,-4.29 L0,0 L8.93,4.29 Z"/></g><g stroke="none" fill="rgb(255,121,198)" fill-opacity="1" transform="matrix(-0.9612616959383189,-0.275637355816999,0.275637355816999,-0.9612616959383189,320.3461952326123,63.88741389937627)" style="stroke: none; fill: rgb(255, 121, 198); stroke-width: 1;"><path d=" M8.93,-4.29 L0,0 L8.93,4.29 Z"/></g></g><g stroke="rgb(255,121,198)" stroke-opacity="1" fill="rgb(255,121,198)" fill-opacity="1" transform="matrix(0.9194101385805529,0.39330013612416725,-0.39330013612416725,0.9194101385805529,347.6523234049479,73.87862141927081)" style="stroke: rgb(255, 121, 198); fill: rgb(255, 121, 198); stroke-width: 1;"><circle cx="0" cy="0" r="3.35"/></g></g><g/></g><g/><g/><g/></svg>
        <svg xmlns="http://www.w3.org/2000/svg" xmlns:xlink="http://www.w3.org/1999/xlink" width="505.96636962890625" height="258.9774475097656" style="width:505.96636962890625px;height:258.9774475097656px;font-family:Asana-Math, Asana;background:transparent;"><g><g><g><g transform="matrix(1,0,0,1,121.20376586914062,26.390509033203124)"><path transform="matrix(0.020399999999999998,0,0,-0.020399999999999998,0,0)" d="M937 664L950 695C922 699 775 701 773 692L688 536L442 114L292 692C269 686 146 690 125 692L122 664L148 662C200 658 218 648 218 622C218 616 72 100 70 93C54 41 39 28 -16 23L-19 -3L20 -2C54 -1 79 0 93 0C107 0 133 -1 168 -2L203 -3L206 25L168 28C136 30 119 40 119 55C119 65 121 78 126 96L250 560L399 -18L422 -18L479 86L718 500L770 587L733 67C729 39 717 32 666 28L635 25L632 -3L679 -2C721 -1 751 0 766 0C782 0 812 -1 853 -2L899 -3L902 25L865 28C829 31 811 42 811 63L812 100L853 631C855 650 870 660 899 662Z" stroke="rgb(107,201,223)" stroke-opacity="1" stroke-width="8" fill="rgb(107,201,223)" fill-opacity="1"></path></g></g></g></g><g><g><g><g transform="matrix(1,0,0,1,277.491455078125,47.321685791015625)"><path transform="matrix(0.017,0,0,-0.017,0,0)" d="M154 473C89 473 51 426 18 377C18 371 27 368 30 365L30 366C54 394 74 412 111 412C206 412 215 290 214 220C212 136 203 53 186 -29C140 -86 92 -181 65 -249C69 -257 74 -265 77 -273C98 -268 119 -260 139 -251C165 -183 189 -106 203 -36C387 199 540 317 547 438C550 493 485 453 459 446L459 435C502 284 287 130 220 19L220 23C302 358 258 473 154 473Z" stroke="rgb(255,121,198)" stroke-opacity="1" stroke-width="8" fill="rgb(255,121,198)" fill-opacity="1"></path></g></g></g></g></svg>
</svg>
