<svg xmlns="http://www.w3.org/2000/svg" xmlns:xlink="http://www.w3.org/1999/xlink" x="0" y="0" width="507.9556579589844" height="260.96673583984375" style="
        width:507.9556579589844px;
        height:260.96673583984375px;
        background: transparent;
        fill: none;
">
        <svg xmlns="http://www.w3.org/2000/svg"/>
        
        <svg xmlns="http://www.w3.org/2000/svg" class="role-diagram-draw-area"><g class="shapes-region" style="stroke: black; fill: none;"><g class="arrow-line"><path class="connection real" stroke-dasharray="" d="  M5.65,251.88 C66.99,-50.79 396.32,-91.45 496.99,242.55" style="stroke: rgb(107, 201, 223); stroke-opacity: 1; stroke-width: 1; fill: none; fill-opacity: 1;"/></g><g class="arrow-line"><path class="connection real" stroke-dasharray="" d="  M5.65,251.88 C78.99,188.55 222.99,153.21 303.65,248.55" style="stroke: rgb(107, 201, 223); stroke-opacity: 1; stroke-width: 1; fill: none; fill-opacity: 1;"/></g><g class="arrow-line"><path class="connection real" stroke-dasharray="" d="  M303.65,248.55 C403.65,179.21 446.99,154.55 496.99,242.55" style="stroke: rgb(107, 201, 223); stroke-opacity: 1; stroke-width: 1; fill: none; fill-opacity: 1;"/></g><g class="arrow-line"><path class="connection real" stroke-dasharray="" d="  M118.32,151.88 C131.77,134.06 145.99,116.84 161.74,102.02 C178.08,86.64 196.04,73.83 216.48,65.61 C235.75,57.86 257.21,54.17 281.56,56.25 C301.53,57.95 323.43,63.52 347.65,73.88" style="stroke: rgb(255, 121, 198); stroke-opacity: 1; stroke-width: 1; fill: none; fill-opacity: 1;"/><g stroke="rgb(255,121,198)" stroke-opacity="1" fill="rgb(255,121,198)" fill-opacity="1" transform="matrix(0.602511734868113,-0.7981100233340117,0.7981100233340117,0.602511734868113,118.31899007161454,151.87862141927081)" style="stroke: rgb(255, 121, 198); fill: rgb(255, 121, 198); stroke-width: 1;"><circle cx="0" cy="0" r="3.35"/></g><g><g stroke="none" fill="rgb(255,121,198)" fill-opacity="1" transform="matrix(-0.655663774065275,0.7550529884574195,-0.7550529884574195,-0.655663774065275,142.4310418782752,122.07915821748128)" style="stroke: none; fill: rgb(255, 121, 198); stroke-width: 1;"><path d=" M8.93,-4.29 L0,0 L8.93,4.29 Z"/></g><g stroke="none" fill="rgb(255,121,198)" fill-opacity="1" transform="matrix(-0.8344633517919393,0.5510634396475256,-0.5510634396475256,-0.8344633517919393,191.69727952048638,78.42307508982518)" style="stroke: none; fill: rgb(255, 121, 198); stroke-width: 1;"><path d=" M8.93,-4.29 L0,0 L8.93,4.29 Z"/></g><g stroke="none" fill="rgb(255,121,198)" fill-opacity="1" transform="matrix(-0.9924179861623915,0.12290866829228679,-0.12290866829228679,-0.9924179861623915,253.68441833070335,56.413943829585435)" style="stroke: none; fill: rgb(255, 121, 198); stroke-width: 1;"><path d=" M8.93,-4.29 L0,0 L8.93,4.29 Z"/></g><g stroke="none" fill="rgb(255,121,198)" fill-opacity="1" transform="matrix(-0.9612616959383189,-0.275637355816999,0.275637355816999,-0.9612616959383189,320.3461952326123,63.88741389937627)" style="stroke: none; fill: rgb(255, 121, 198); stroke-width: 1;"><path d=" M8.93,-4.29 L0,0 L8.93,4.29 Z"/></g></g><g stroke="rgb(255,121,198)" stroke-opacity="1" fill="rgb(255,121,198)" fill-opacity="1" transform="matrix(0.9194101385805529,0.39330013612416725,-0.39330013612416725,0.9194101385805529,347.6523234049479,73.87862141927081)" style="stroke: rgb(255, 121, 198); fill: rgb(255, 121, 198); stroke-width: 1;"><circle cx="0" cy="0" r="3.35"/></g></g><g/></g><g/><g/><g/></svg>
        <svg xmlns="http://www.w3.org/2000/svg" xmlns:xlink="http://www.w3.org/1999/xlink" width="505.96636962890625" height="258.9774475097656" style="width:505.96636962890625px;height:258.9774475097656px;font-family:LatinModern-Math, LatinModern, Asana-Math, Asana;background:transparent;"><g><g><g><g transform="matrix(1,0,0,1,121.20376586914062,26.390509033203124)"><path transform="matrix(0.020399999999999998,0,0,-0.020399999999999998,0,0)" d="M1044 672C1044 683 1034 683 1017 683L885 683C859 683 858 683 846 664L481 94L403 660C400 683 398 683 372 683L235 683C216 683 205 683 205 664C205 652 214 652 234 652C247 652 265 651 277 650C293 648 299 645 299 634C299 630 298 627 295 615L168 106C158 66 141 34 60 31C55 31 42 30 42 12C42 3 48 0 56 0C88 0 123 3 156 3C190 3 226 0 259 0C264 0 277 0 277 20C277 31 266 31 259 31C202 32 191 52 191 75C191 82 192 87 195 98L331 643L332 643L418 23C420 11 421 0 433 0C444 0 450 11 455 18L859 651L860 651L717 78C707 39 705 31 626 31C609 31 598 31 598 12C598 0 610 0 613 0L737 3C778 3 821 0 862 0C868 0 881 0 881 20C881 31 872 31 853 31C816 31 788 31 788 49C788 53 788 55 793 73L926 606C935 642 937 652 1012 652C1035 652 1044 652 1044 672Z" stroke="rgb(107,201,223)" stroke-opacity="1" stroke-width="8" fill="rgb(107,201,223)" fill-opacity="1"></path></g></g></g></g><g><g><g><g transform="matrix(1,0,0,1,278.02642822265625,47.321685791015625)"><path transform="matrix(0.017,0,0,-0.017,0,0)" d="M543 421C543 431 531 431 531 431C528 431 522 431 519 424C467 329 427 229 387 128C386 159 385 235 346 332C322 393 282 442 213 442C88 442 18 290 18 259C18 249 27 249 37 249L41 254C80 369 189 370 200 370C351 370 362 195 362 116C362 55 357 38 350 18C328 -55 298 -171 298 -197C298 -208 303 -215 311 -215C324 -215 332 -193 343 -155C366 -71 376 -14 380 17C382 30 384 43 388 56C420 155 484 304 524 383C531 395 543 417 543 421Z" stroke="rgb(255,121,198)" stroke-opacity="1" stroke-width="8" fill="rgb(255,121,198)" fill-opacity="1"></path></g></g></g></g></svg>
</svg>
