<svg xmlns="http://www.w3.org/2000/svg" xmlns:xlink="http://www.w3.org/1999/xlink" x="0" y="0" width="347.7798156738281" height="259.7912292480469" style="
        width:347.7798156738281px;
        height:259.7912292480469px;
        background: transparent;
        fill: none;
">
        <svg xmlns="http://www.w3.org/2000/svg"/>
        
        <svg xmlns="http://www.w3.org/2000/svg" class="role-diagram-draw-area"><g class="shapes-region" style="stroke: black; fill: none;"><g class="composite-shape"><path class="real" d=" M2.31,24.01 L342.31,24.01 L342.31,254.01 L2.31,254.01 Z" style="stroke-width: 1; stroke: rgb(107, 201, 223); stroke-opacity: 1; fill: none; fill-opacity: 1;"/></g><g class="arrow-line"><path class="connection real" stroke-dasharray="" d="  M18,237 C38.68,165.42 67.45,120.92 99.85,97.11 C172.91,43.43 264.42,94.88 323.31,178.01" style="stroke: rgb(107, 201, 223); stroke-opacity: 1; stroke-width: 1; fill: none; fill-opacity: 1;"/><g stroke="rgb(107,201,223)" stroke-opacity="1" fill="rgb(107,201,223)" fill-opacity="1" transform="matrix(0.2774823366740286,-0.960730738986695,0.960730738986695,0.2774823366740286,18,237)" style="stroke: rgb(107, 201, 223); fill: rgb(107, 201, 223); stroke-width: 1;"><circle cx="0" cy="0" r="3.35"/></g><g stroke="rgb(107,201,223)" stroke-opacity="1" fill="rgb(107,201,223)" fill-opacity="1" transform="matrix(0.5780000584624692,0.8160367224686536,-0.8160367224686536,0.5780000584624692,323.3086242675781,178.01345825195312)" style="stroke: rgb(107, 201, 223); fill: rgb(107, 201, 223); stroke-width: 1;"><circle cx="0" cy="0" r="3.35"/></g></g><g class="arrow-line"><path class="connection real" stroke-dasharray="" d="  M121,85 L182.67,51.45" style="stroke: rgb(255, 121, 198); stroke-opacity: 1; stroke-width: 1; fill: none; fill-opacity: 1;"/><g stroke="none" fill="rgb(255,121,198)" fill-opacity="1" transform="matrix(-0.8784003785150226,0.47792549108063387,-0.47792549108063387,-0.8784003785150226,185.30862426757815,50.013458251953125)" style="stroke: none; fill: rgb(255, 121, 198); stroke-width: 1;"><path d=" M8.93,-4.29 L0,0 L8.93,4.29 Z"/></g></g><g class="arrow-line"><path class="connection real" stroke-dasharray="" d="  M121,85 L135.88,112.38" style="stroke: rgb(189, 147, 249); stroke-opacity: 1; stroke-width: 1; fill: none; fill-opacity: 1;"/><g stroke="none" fill="rgb(189,147,249)" fill-opacity="1" transform="matrix(-0.47746549622598156,-0.8786504992963227,0.8786504992963227,-0.47746549622598156,137.30862426757812,115.01345825195312)" style="stroke: none; fill: rgb(189, 147, 249); stroke-width: 1;"><path d=" M8.93,-4.29 L0,0 L8.93,4.29 Z"/></g></g><g class="arrow-line"><path class="connection real" stroke-dasharray="" d="  M192,78 L236.09,88.33" style="stroke: rgb(255, 121, 198); stroke-opacity: 1; stroke-width: 1; fill: none; fill-opacity: 1;"/><g stroke="none" fill="rgb(255,121,198)" fill-opacity="1" transform="matrix(-0.9736187427898355,-0.2281809450597051,0.2281809450597051,-0.9736187427898355,239.00759887695312,89.01345825195312)" style="stroke: none; fill: rgb(255, 121, 198); stroke-width: 1;"><path d=" M8.93,-4.29 L0,0 L8.93,4.29 Z"/></g></g><g/></g><g/><g/><g/></svg>
        <svg xmlns="http://www.w3.org/2000/svg" xmlns:xlink="http://www.w3.org/1999/xlink" width="345.79052734375" height="257.80194091796875" style="width:345.79052734375px;height:257.80194091796875px;font-family:Asana-Math, Asana;background:transparent;"><g><g><g><g transform="matrix(1,0,0,1,3.488800048828125,18.395635986328124)"><path transform="matrix(0.020399999999999998,0,0,-0.020399999999999998,0,0)" d="M937 664L950 695C922 699 775 701 773 692L688 536L442 114L292 692C269 686 146 690 125 692L122 664L148 662C200 658 218 648 218 622C218 616 72 100 70 93C54 41 39 28 -16 23L-19 -3L20 -2C54 -1 79 0 93 0C107 0 133 -1 168 -2L203 -3L206 25L168 28C136 30 119 40 119 55C119 65 121 78 126 96L250 560L399 -18L422 -18L479 86L718 500L770 587L733 67C729 39 717 32 666 28L635 25L632 -3L679 -2C721 -1 751 0 766 0C782 0 812 -1 853 -2L899 -3L902 25L865 28C829 31 811 42 811 63L812 100L853 631C855 650 870 660 899 662Z" stroke="rgb(107,201,223)" stroke-opacity="1" stroke-width="8" fill="rgb(107,201,223)" fill-opacity="1"></path></g></g></g></g><g><g><g><g transform="matrix(1,0,0,1,276.56463623046875,114.39412536621094)"><path transform="matrix(0.020399999999999998,0,0,-0.020399999999999998,0,0)" d="M342 330L365 330C373 395 380 432 389 458C365 473 330 482 293 482C248 483 175 463 118 400C64 352 25 241 25 136C25 40 67 -11 147 -11C201 -11 249 9 304 54L354 95L346 115L331 105C259 57 221 40 186 40C130 40 101 80 101 159C101 267 136 371 185 409C206 425 230 433 261 433C306 433 342 414 342 390Z" stroke="rgb(107,201,223)" stroke-opacity="1" stroke-width="8" fill="rgb(107,201,223)" fill-opacity="1"></path></g></g></g></g><g><g><g><g><g><g><g transform="matrix(1,0,0,1,134.48834228515625,51.392294311523436)"><path transform="matrix(0.020399999999999998,0,0,-0.020399999999999998,0,0)" d="M154 473C89 473 51 426 18 377C18 371 27 368 30 365L30 366C54 394 74 412 111 412C206 412 215 290 214 220C212 136 203 53 186 -29C140 -86 92 -181 65 -249C69 -257 74 -265 77 -273C98 -268 119 -260 139 -251C165 -183 189 -106 203 -36C387 199 540 317 547 438C550 493 485 453 459 446L459 435C502 284 287 130 220 19L220 23C302 358 258 473 154 473Z" stroke="rgb(255,121,198)" stroke-opacity="1" stroke-width="8" fill="rgb(255,121,198)" fill-opacity="1"></path></g></g></g></g><g><g transform="matrix(1,0,0,1,138.89166259765625,51.392294311523436)"><path transform="matrix(0.020399999999999998,0,0,-0.020399999999999998,0,0)" d="M124 800C94 800 67 772 67 742C67 712 94 684 123 684C155 684 183 711 183 742C183 772 155 800 124 800Z" stroke="rgb(255,121,198)" stroke-opacity="1" stroke-width="8" fill="rgb(255,121,198)" fill-opacity="1"></path></g></g></g><g><g transform="matrix(1,0,0,1,146.3411865234375,51.392294311523436)"><path transform="matrix(0.020399999999999998,0,0,-0.020399999999999998,0,0)" d="M146 266C146 526 243 632 301 700L282 726C225 675 60 542 60 266C60 159 85 58 133 -32C168 -99 200 -138 282 -215L301 -194C255 -137 146 -15 146 266Z" stroke="rgb(255,121,198)" stroke-opacity="1" stroke-width="8" fill="rgb(255,121,198)" fill-opacity="1"></path></g></g><g><g transform="matrix(1,0,0,1,153.1153564453125,51.392294311523436)"><path transform="matrix(0.020399999999999998,0,0,-0.020399999999999998,0,0)" d="M125 390L69 107C68 99 56 61 56 31C56 6 67 -9 86 -9C121 -9 156 11 234 74L265 99L255 117L210 86C181 66 161 56 150 56C141 56 136 64 136 76C136 102 150 183 179 328L192 390L299 390L310 440C272 436 238 434 200 434C216 528 227 577 245 631L234 646C214 634 187 622 156 610L131 440C87 419 61 408 43 403L41 390Z" stroke="rgb(255,121,198)" stroke-opacity="1" stroke-width="8" fill="rgb(255,121,198)" fill-opacity="1"></path></g></g><g><g transform="matrix(1,0,0,1,159.8895263671875,51.392294311523436)"><path transform="matrix(0.020399999999999998,0,0,-0.020399999999999998,0,0)" d="M51 726L32 700C87 636 187 526 187 266C187 -10 83 -131 32 -194L51 -215C104 -165 273 -23 273 265C273 542 108 675 51 726Z" stroke="rgb(255,121,198)" stroke-opacity="1" stroke-width="8" fill="rgb(255,121,198)" fill-opacity="1"></path></g></g></g></g><g><g><g><g transform="matrix(1,0,0,1,112.48553466796875,137.39159240722657)"><path transform="matrix(0.020399999999999998,0,0,-0.020399999999999998,0,0)" d="M662 687L655 697C549 693 443 693 336 693C235 693 134 694 33 697L27 687C88 577 136 455 186 339C235 227 288 113 327 -4L352 -4C395 103 597 565 662 687ZM584 656C518 478 447 304 371 129L364 129C289 302 217 478 152 656Z" stroke="rgb(189,147,249)" stroke-opacity="1" stroke-width="8" fill="rgb(189,147,249)" fill-opacity="1"></path></g></g><g><g><g><g><g transform="matrix(1,0,0,1,127.13397216796875,140.50975158691406)"><path transform="matrix(0.01428,0,0,-0.01428,0,0)" d="M154 473C89 473 51 426 18 377C18 371 27 368 30 365L30 366C54 394 74 412 111 412C206 412 215 290 214 220C212 136 203 53 186 -29C140 -86 92 -181 65 -249C69 -257 74 -265 77 -273C98 -268 119 -260 139 -251C165 -183 189 -106 203 -36C387 199 540 317 547 438C550 493 485 453 459 446L459 435C502 284 287 130 220 19L220 23C302 358 258 473 154 473Z" stroke="rgb(189,147,249)" stroke-opacity="1" stroke-width="8" fill="rgb(189,147,249)" fill-opacity="1"></path></g></g></g></g></g><g><g transform="matrix(1,0,0,1,136.65847778320312,137.39159240722657)"><path transform="matrix(0.020399999999999998,0,0,-0.020399999999999998,0,0)" d="" stroke="rgb(189,147,249)" stroke-opacity="1" stroke-width="8" fill="rgb(189,147,249)" fill-opacity="1"></path></g></g><g><g><g><g><g transform="matrix(1,0,0,1,141.7447509765625,137.39159240722657)"><path transform="matrix(0.020399999999999998,0,0,-0.020399999999999998,0,0)" d="M154 473C89 473 51 426 18 377C18 371 27 368 30 365L30 366C54 394 74 412 111 412C206 412 215 290 214 220C212 136 203 53 186 -29C140 -86 92 -181 65 -249C69 -257 74 -265 77 -273C98 -268 119 -260 139 -251C165 -183 189 -106 203 -36C387 199 540 317 547 438C550 493 485 453 459 446L459 435C502 284 287 130 220 19L220 23C302 358 258 473 154 473Z" stroke="rgb(189,147,249)" stroke-opacity="1" stroke-width="8" fill="rgb(189,147,249)" fill-opacity="1"></path></g></g></g></g><g><g transform="matrix(1,0,0,1,146.1480712890625,137.39159240722657)"><path transform="matrix(0.020399999999999998,0,0,-0.020399999999999998,0,0)" d="M124 800C94 800 67 772 67 742C67 712 94 684 123 684C155 684 183 711 183 742C183 772 155 800 124 800Z" stroke="rgb(189,147,249)" stroke-opacity="1" stroke-width="8" fill="rgb(189,147,249)" fill-opacity="1"></path></g></g></g><g><g transform="matrix(1,0,0,1,153.59759521484375,137.39159240722657)"><path transform="matrix(0.020399999999999998,0,0,-0.020399999999999998,0,0)" d="M146 266C146 526 243 632 301 700L282 726C225 675 60 542 60 266C60 159 85 58 133 -32C168 -99 200 -138 282 -215L301 -194C255 -137 146 -15 146 266Z" stroke="rgb(189,147,249)" stroke-opacity="1" stroke-width="8" fill="rgb(189,147,249)" fill-opacity="1"></path></g></g><g><g transform="matrix(1,0,0,1,160.37176513671875,137.39159240722657)"><path transform="matrix(0.020399999999999998,0,0,-0.020399999999999998,0,0)" d="M125 390L69 107C68 99 56 61 56 31C56 6 67 -9 86 -9C121 -9 156 11 234 74L265 99L255 117L210 86C181 66 161 56 150 56C141 56 136 64 136 76C136 102 150 183 179 328L192 390L299 390L310 440C272 436 238 434 200 434C216 528 227 577 245 631L234 646C214 634 187 622 156 610L131 440C87 419 61 408 43 403L41 390Z" stroke="rgb(189,147,249)" stroke-opacity="1" stroke-width="8" fill="rgb(189,147,249)" fill-opacity="1"></path></g></g><g><g transform="matrix(1,0,0,1,167.14593505859375,137.39159240722657)"><path transform="matrix(0.020399999999999998,0,0,-0.020399999999999998,0,0)" d="M51 726L32 700C87 636 187 526 187 266C187 -10 83 -131 32 -194L51 -215C104 -165 273 -23 273 265C273 542 108 675 51 726Z" stroke="rgb(189,147,249)" stroke-opacity="1" stroke-width="8" fill="rgb(189,147,249)" fill-opacity="1"></path></g></g></g></g><g><g><g><g><g><g><g transform="matrix(1,0,0,1,225.48345947265625,75.39192810058594)"><path transform="matrix(0.020399999999999998,0,0,-0.020399999999999998,0,0)" d="M154 473C89 473 51 426 18 377C18 371 27 368 30 365L30 366C54 394 74 412 111 412C206 412 215 290 214 220C212 136 203 53 186 -29C140 -86 92 -181 65 -249C69 -257 74 -265 77 -273C98 -268 119 -260 139 -251C165 -183 189 -106 203 -36C387 199 540 317 547 438C550 493 485 453 459 446L459 435C502 284 287 130 220 19L220 23C302 358 258 473 154 473Z" stroke="rgb(255,121,198)" stroke-opacity="1" stroke-width="8" fill="rgb(255,121,198)" fill-opacity="1"></path></g></g></g></g><g><g transform="matrix(1,0,0,1,229.88677978515625,75.39192810058594)"><path transform="matrix(0.020399999999999998,0,0,-0.020399999999999998,0,0)" d="M124 800C94 800 67 772 67 742C67 712 94 684 123 684C155 684 183 711 183 742C183 772 155 800 124 800Z" stroke="rgb(255,121,198)" stroke-opacity="1" stroke-width="8" fill="rgb(255,121,198)" fill-opacity="1"></path></g></g></g><g><g transform="matrix(1,0,0,1,237.33636474609375,75.39192810058594)"><path transform="matrix(0.020399999999999998,0,0,-0.020399999999999998,0,0)" d="M146 266C146 526 243 632 301 700L282 726C225 675 60 542 60 266C60 159 85 58 133 -32C168 -99 200 -138 282 -215L301 -194C255 -137 146 -15 146 266Z" stroke="rgb(255,121,198)" stroke-opacity="1" stroke-width="8" fill="rgb(255,121,198)" fill-opacity="1"></path></g></g><g><g transform="matrix(1,0,0,1,244.1104736328125,75.39192810058594)"><path transform="matrix(0.020399999999999998,0,0,-0.020399999999999998,0,0)" d="M125 390L69 107C68 99 56 61 56 31C56 6 67 -9 86 -9C121 -9 156 11 234 74L265 99L255 117L210 86C181 66 161 56 150 56C141 56 136 64 136 76C136 102 150 183 179 328L192 390L299 390L310 440C272 436 238 434 200 434C216 528 227 577 245 631L234 646C214 634 187 622 156 610L131 440C87 419 61 408 43 403L41 390ZM436 470C493 543 531 610 565 696L552 709C516 697 506 694 455 679C449 599 425 533 377 456L392 446Z" stroke="rgb(255,121,198)" stroke-opacity="1" stroke-width="8" fill="rgb(255,121,198)" fill-opacity="1"></path></g></g><g><g transform="matrix(1,0,0,1,256.5360107421875,75.39192810058594)"><path transform="matrix(0.020399999999999998,0,0,-0.020399999999999998,0,0)" d="M51 726L32 700C87 636 187 526 187 266C187 -10 83 -131 32 -194L51 -215C104 -165 273 -23 273 265C273 542 108 675 51 726Z" stroke="rgb(255,121,198)" stroke-opacity="1" stroke-width="8" fill="rgb(255,121,198)" fill-opacity="1"></path></g></g></g></g></svg>
</svg>
