<svg xmlns="http://www.w3.org/2000/svg" xmlns:xlink="http://www.w3.org/1999/xlink" x="0" y="0" width="347.7798156738281" height="259.7912292480469" style="
        width:347.7798156738281px;
        height:259.7912292480469px;
        background: transparent;
        fill: none;
">
        <svg xmlns="http://www.w3.org/2000/svg"/>
        
        <svg xmlns="http://www.w3.org/2000/svg" class="role-diagram-draw-area"><g class="shapes-region" style="stroke: black; fill: none;"><g class="composite-shape"><path class="real" d=" M2.31,24.01 L342.31,24.01 L342.31,254.01 L2.31,254.01 Z" style="stroke-width: 1; stroke: rgb(107, 201, 223); stroke-opacity: 1; fill: none; fill-opacity: 1;"/></g><g class="arrow-line"><path class="connection real" stroke-dasharray="" d="  M18,237 C38.68,165.42 67.45,120.92 99.85,97.11 C172.91,43.43 264.42,94.88 323.31,178.01" style="stroke: rgb(107, 201, 223); stroke-opacity: 1; stroke-width: 1; fill: none; fill-opacity: 1;"/><g stroke="rgb(107,201,223)" stroke-opacity="1" fill="rgb(107,201,223)" fill-opacity="1" transform="matrix(0.2774823366740286,-0.960730738986695,0.960730738986695,0.2774823366740286,18,237)" style="stroke: rgb(107, 201, 223); fill: rgb(107, 201, 223); stroke-width: 1;"><circle cx="0" cy="0" r="3.35"/></g><g stroke="rgb(107,201,223)" stroke-opacity="1" fill="rgb(107,201,223)" fill-opacity="1" transform="matrix(0.5780000584624692,0.8160367224686536,-0.8160367224686536,0.5780000584624692,323.3086242675781,178.01345825195312)" style="stroke: rgb(107, 201, 223); fill: rgb(107, 201, 223); stroke-width: 1;"><circle cx="0" cy="0" r="3.35"/></g></g><g class="arrow-line"><path class="connection real" stroke-dasharray="" d="  M121,85 L182.67,51.45" style="stroke: rgb(255, 121, 198); stroke-opacity: 1; stroke-width: 1; fill: none; fill-opacity: 1;"/><g stroke="none" fill="rgb(255,121,198)" fill-opacity="1" transform="matrix(-0.8784003785150226,0.47792549108063387,-0.47792549108063387,-0.8784003785150226,185.30862426757815,50.013458251953125)" style="stroke: none; fill: rgb(255, 121, 198); stroke-width: 1;"><path d=" M8.93,-4.29 L0,0 L8.93,4.29 Z"/></g></g><g class="arrow-line"><path class="connection real" stroke-dasharray="" d="  M121,85 L135.88,112.38" style="stroke: rgb(189, 147, 249); stroke-opacity: 1; stroke-width: 1; fill: none; fill-opacity: 1;"/><g stroke="none" fill="rgb(189,147,249)" fill-opacity="1" transform="matrix(-0.47746549622598156,-0.8786504992963227,0.8786504992963227,-0.47746549622598156,137.30862426757812,115.01345825195312)" style="stroke: none; fill: rgb(189, 147, 249); stroke-width: 1;"><path d=" M8.93,-4.29 L0,0 L8.93,4.29 Z"/></g></g><g class="arrow-line"><path class="connection real" stroke-dasharray="" d="  M192,78 L236.09,88.33" style="stroke: rgb(255, 121, 198); stroke-opacity: 1; stroke-width: 1; fill: none; fill-opacity: 1;"/><g stroke="none" fill="rgb(255,121,198)" fill-opacity="1" transform="matrix(-0.9736187427898355,-0.2281809450597051,0.2281809450597051,-0.9736187427898355,239.00759887695312,89.01345825195312)" style="stroke: none; fill: rgb(255, 121, 198); stroke-width: 1;"><path d=" M8.93,-4.29 L0,0 L8.93,4.29 Z"/></g></g><g/></g><g/><g/><g/></svg>
        <svg xmlns="http://www.w3.org/2000/svg" xmlns:xlink="http://www.w3.org/1999/xlink" width="345.79052734375" height="257.80194091796875" style="width:345.79052734375px;height:257.80194091796875px;font-family:LatinModern-Math, LatinModern, Asana-Math, Asana;background:transparent;"><g><g><g><g transform="matrix(1,0,0,1,3.488800048828125,18.395635986328124)"><path transform="matrix(0.020399999999999998,0,0,-0.020399999999999998,0,0)" d="M1044 672C1044 683 1034 683 1017 683L885 683C859 683 858 683 846 664L481 94L403 660C400 683 398 683 372 683L235 683C216 683 205 683 205 664C205 652 214 652 234 652C247 652 265 651 277 650C293 648 299 645 299 634C299 630 298 627 295 615L168 106C158 66 141 34 60 31C55 31 42 30 42 12C42 3 48 0 56 0C88 0 123 3 156 3C190 3 226 0 259 0C264 0 277 0 277 20C277 31 266 31 259 31C202 32 191 52 191 75C191 82 192 87 195 98L331 643L332 643L418 23C420 11 421 0 433 0C444 0 450 11 455 18L859 651L860 651L717 78C707 39 705 31 626 31C609 31 598 31 598 12C598 0 610 0 613 0L737 3C778 3 821 0 862 0C868 0 881 0 881 20C881 31 872 31 853 31C816 31 788 31 788 49C788 53 788 55 793 73L926 606C935 642 937 652 1012 652C1035 652 1044 652 1044 672Z" stroke="rgb(107,201,223)" stroke-opacity="1" stroke-width="8" fill="rgb(107,201,223)" fill-opacity="1"></path></g></g></g></g><g><g><g><g transform="matrix(1,0,0,1,276.2933349609375,114.39412536621094)"><path transform="matrix(0.020399999999999998,0,0,-0.020399999999999998,0,0)" d="M430 107C430 113 424 120 418 120C413 120 411 118 405 110C326 11 217 11 205 11C142 11 115 60 115 120C115 161 135 258 169 320C200 377 255 420 310 420C344 420 382 407 396 380C380 380 366 380 352 366C336 351 334 334 334 327C334 303 352 292 371 292C400 292 427 316 427 356C427 405 380 442 309 442C174 442 41 299 41 158C41 68 99 -11 203 -11C346 -11 430 95 430 107Z" stroke="rgb(107,201,223)" stroke-opacity="1" stroke-width="8" fill="rgb(107,201,223)" fill-opacity="1"></path></g></g></g></g><g><g><g><g><g><g><g transform="matrix(1,0,0,1,134.48834228515625,51.392294311523436)"><path transform="matrix(0.020399999999999998,0,0,-0.020399999999999998,0,0)" d="M543 421C543 431 531 431 531 431C528 431 522 431 519 424C467 329 427 229 387 128C386 159 385 235 346 332C322 393 282 442 213 442C88 442 18 290 18 259C18 249 27 249 37 249L41 254C80 369 189 370 200 370C351 370 362 195 362 116C362 55 357 38 350 18C328 -55 298 -171 298 -197C298 -208 303 -215 311 -215C324 -215 332 -193 343 -155C366 -71 376 -14 380 17C382 30 384 43 388 56C420 155 484 304 524 383C531 395 543 417 543 421Z" stroke="rgb(255,121,198)" stroke-opacity="1" stroke-width="8" fill="rgb(255,121,198)" fill-opacity="1"></path></g></g></g></g><g><g transform="matrix(1,0,0,1,138.25115966796875,51.392294311523436)"><path transform="matrix(0.020399999999999998,0,0,-0.020399999999999998,0,0)" d="M124 800C94 800 67 772 67 742C67 712 94 684 123 684C155 684 183 711 183 742C183 772 155 800 124 800Z" stroke="rgb(255,121,198)" stroke-opacity="1" stroke-width="8" fill="rgb(255,121,198)" fill-opacity="1"></path></g></g></g><g><g transform="matrix(1,0,0,1,145.06024169921875,51.392294311523436)"><path transform="matrix(0.020399999999999998,0,0,-0.020399999999999998,0,0)" d="M332 -238C332 -235 330 -232 328 -230C224 -152 155 48 155 208L155 292C155 452 224 652 328 730C330 732 332 735 332 738C332 743 327 748 322 748C320 748 318 747 316 746C206 663 101 463 101 292L101 208C101 37 206 -163 316 -246C318 -247 320 -248 322 -248C327 -248 332 -243 332 -238Z" stroke="rgb(255,121,198)" stroke-opacity="1" stroke-width="8" fill="rgb(255,121,198)" fill-opacity="1"></path></g></g><g><g transform="matrix(1,0,0,1,153.0023193359375,51.392294311523436)"><path transform="matrix(0.020399999999999998,0,0,-0.020399999999999998,0,0)" d="M330 420C330 431 320 431 302 431L214 431C250 573 255 593 255 599C255 616 243 626 226 626C223 626 195 625 186 590L147 431L53 431C33 431 23 431 23 412C23 400 31 400 51 400L139 400C67 116 63 99 63 81C63 27 101 -11 155 -11C257 -11 314 135 314 143C314 153 306 153 302 153C293 153 292 150 287 139C244 35 191 11 157 11C136 11 126 24 126 57C126 81 128 88 132 105L206 400L300 400C320 400 330 400 330 420Z" stroke="rgb(255,121,198)" stroke-opacity="1" stroke-width="8" fill="rgb(255,121,198)" fill-opacity="1"></path></g></g><g><g transform="matrix(1,0,0,1,160.37176513671875,51.392294311523436)"><path transform="matrix(0.020399999999999998,0,0,-0.020399999999999998,0,0)" d="M288 208L288 292C288 463 183 663 73 746C71 747 69 748 67 748C62 748 57 743 57 738C57 735 59 732 61 730C165 652 234 452 234 292L234 208C234 48 165 -152 61 -230C59 -232 57 -235 57 -238C57 -243 62 -248 67 -248C69 -248 71 -247 73 -246C183 -163 288 37 288 208Z" stroke="rgb(255,121,198)" stroke-opacity="1" stroke-width="8" fill="rgb(255,121,198)" fill-opacity="1"></path></g></g></g></g><g><g><g><g transform="matrix(1,0,0,1,112.48553466796875,137.39159240722657)"><path transform="matrix(0.020399999999999998,0,0,-0.020399999999999998,0,0)" d="M785 675C785 683 779 683 763 683L69 683C53 683 47 683 47 675C47 675 47 672 52 663L390 -15C397 -28 399 -33 416 -33C433 -33 435 -28 442 -15L780 663C785 672 785 675 785 675ZM720 612L446 61L445 61L170 612Z" stroke="rgb(189,147,249)" stroke-opacity="1" stroke-width="8" fill="rgb(189,147,249)" fill-opacity="1"></path></g></g><g><g><g><g><g transform="matrix(1,0,0,1,130.09530639648438,140.50975158691406)"><path transform="matrix(0.01428,0,0,-0.01428,0,0)" d="M543 421C543 431 531 431 531 431C528 431 522 431 519 424C467 329 427 229 387 128C386 159 385 235 346 332C322 393 282 442 213 442C88 442 18 290 18 259C18 249 27 249 37 249L41 254C80 369 189 370 200 370C351 370 362 195 362 116C362 55 357 38 350 18C328 -55 298 -171 298 -197C298 -208 303 -215 311 -215C324 -215 332 -193 343 -155C366 -71 376 -14 380 17C382 30 384 43 388 56C420 155 484 304 524 383C531 395 543 417 543 421Z" stroke="rgb(189,147,249)" stroke-opacity="1" stroke-width="8" fill="rgb(189,147,249)" fill-opacity="1"></path></g></g></g></g></g><g><g transform="matrix(1,0,0,1,138.715576171875,137.39159240722657)"><path transform="matrix(0.020399999999999998,0,0,-0.020399999999999998,0,0)" d="" stroke="rgb(189,147,249)" stroke-opacity="1" stroke-width="8" fill="rgb(189,147,249)" fill-opacity="1"></path></g></g><g><g><g><g><g transform="matrix(1,0,0,1,145.48974609375,137.39159240722657)"><path transform="matrix(0.020399999999999998,0,0,-0.020399999999999998,0,0)" d="M543 421C543 431 531 431 531 431C528 431 522 431 519 424C467 329 427 229 387 128C386 159 385 235 346 332C322 393 282 442 213 442C88 442 18 290 18 259C18 249 27 249 37 249L41 254C80 369 189 370 200 370C351 370 362 195 362 116C362 55 357 38 350 18C328 -55 298 -171 298 -197C298 -208 303 -215 311 -215C324 -215 332 -193 343 -155C366 -71 376 -14 380 17C382 30 384 43 388 56C420 155 484 304 524 383C531 395 543 417 543 421Z" stroke="rgb(189,147,249)" stroke-opacity="1" stroke-width="8" fill="rgb(189,147,249)" fill-opacity="1"></path></g></g></g></g><g><g transform="matrix(1,0,0,1,149.2525634765625,137.39159240722657)"><path transform="matrix(0.020399999999999998,0,0,-0.020399999999999998,0,0)" d="M124 800C94 800 67 772 67 742C67 712 94 684 123 684C155 684 183 711 183 742C183 772 155 800 124 800Z" stroke="rgb(189,147,249)" stroke-opacity="1" stroke-width="8" fill="rgb(189,147,249)" fill-opacity="1"></path></g></g></g><g><g transform="matrix(1,0,0,1,156.0616455078125,137.39159240722657)"><path transform="matrix(0.020399999999999998,0,0,-0.020399999999999998,0,0)" d="M332 -238C332 -235 330 -232 328 -230C224 -152 155 48 155 208L155 292C155 452 224 652 328 730C330 732 332 735 332 738C332 743 327 748 322 748C320 748 318 747 316 746C206 663 101 463 101 292L101 208C101 37 206 -163 316 -246C318 -247 320 -248 322 -248C327 -248 332 -243 332 -238Z" stroke="rgb(189,147,249)" stroke-opacity="1" stroke-width="8" fill="rgb(189,147,249)" fill-opacity="1"></path></g></g><g><g transform="matrix(1,0,0,1,164.00372314453125,137.39159240722657)"><path transform="matrix(0.020399999999999998,0,0,-0.020399999999999998,0,0)" d="M330 420C330 431 320 431 302 431L214 431C250 573 255 593 255 599C255 616 243 626 226 626C223 626 195 625 186 590L147 431L53 431C33 431 23 431 23 412C23 400 31 400 51 400L139 400C67 116 63 99 63 81C63 27 101 -11 155 -11C257 -11 314 135 314 143C314 153 306 153 302 153C293 153 292 150 287 139C244 35 191 11 157 11C136 11 126 24 126 57C126 81 128 88 132 105L206 400L300 400C320 400 330 400 330 420Z" stroke="rgb(189,147,249)" stroke-opacity="1" stroke-width="8" fill="rgb(189,147,249)" fill-opacity="1"></path></g></g><g><g transform="matrix(1,0,0,1,171.3731689453125,137.39159240722657)"><path transform="matrix(0.020399999999999998,0,0,-0.020399999999999998,0,0)" d="M288 208L288 292C288 463 183 663 73 746C71 747 69 748 67 748C62 748 57 743 57 738C57 735 59 732 61 730C165 652 234 452 234 292L234 208C234 48 165 -152 61 -230C59 -232 57 -235 57 -238C57 -243 62 -248 67 -248C69 -248 71 -247 73 -246C183 -163 288 37 288 208Z" stroke="rgb(189,147,249)" stroke-opacity="1" stroke-width="8" fill="rgb(189,147,249)" fill-opacity="1"></path></g></g></g></g><g><g><g><g><g><g><g transform="matrix(1,0,0,1,225.48345947265625,75.39192810058594)"><path transform="matrix(0.020399999999999998,0,0,-0.020399999999999998,0,0)" d="M543 421C543 431 531 431 531 431C528 431 522 431 519 424C467 329 427 229 387 128C386 159 385 235 346 332C322 393 282 442 213 442C88 442 18 290 18 259C18 249 27 249 37 249L41 254C80 369 189 370 200 370C351 370 362 195 362 116C362 55 357 38 350 18C328 -55 298 -171 298 -197C298 -208 303 -215 311 -215C324 -215 332 -193 343 -155C366 -71 376 -14 380 17C382 30 384 43 388 56C420 155 484 304 524 383C531 395 543 417 543 421Z" stroke="rgb(255,121,198)" stroke-opacity="1" stroke-width="8" fill="rgb(255,121,198)" fill-opacity="1"></path></g></g></g></g><g><g transform="matrix(1,0,0,1,229.24627685546875,75.39192810058594)"><path transform="matrix(0.020399999999999998,0,0,-0.020399999999999998,0,0)" d="M124 800C94 800 67 772 67 742C67 712 94 684 123 684C155 684 183 711 183 742C183 772 155 800 124 800Z" stroke="rgb(255,121,198)" stroke-opacity="1" stroke-width="8" fill="rgb(255,121,198)" fill-opacity="1"></path></g></g></g><g><g transform="matrix(1,0,0,1,236.05535888671875,75.39192810058594)"><path transform="matrix(0.020399999999999998,0,0,-0.020399999999999998,0,0)" d="M332 -238C332 -235 330 -232 328 -230C224 -152 155 48 155 208L155 292C155 452 224 652 328 730C330 732 332 735 332 738C332 743 327 748 322 748C320 748 318 747 316 746C206 663 101 463 101 292L101 208C101 37 206 -163 316 -246C318 -247 320 -248 322 -248C327 -248 332 -243 332 -238Z" stroke="rgb(255,121,198)" stroke-opacity="1" stroke-width="8" fill="rgb(255,121,198)" fill-opacity="1"></path></g></g><g><g transform="matrix(1,0,0,1,243.9974365234375,75.39192810058594)"><path transform="matrix(0.020399999999999998,0,0,-0.020399999999999998,0,0)" d="M330 420C330 431 320 431 302 431L214 431C250 573 255 593 255 599C255 616 243 626 226 626C223 626 195 625 186 590L147 431L53 431C33 431 23 431 23 412C23 400 31 400 51 400L139 400C67 116 63 99 63 81C63 27 101 -11 155 -11C257 -11 314 135 314 143C314 153 306 153 302 153C293 153 292 150 287 139C244 35 191 11 157 11C136 11 126 24 126 57C126 81 128 88 132 105L206 400L300 400C320 400 330 400 330 420ZM535 670C537 690 520 705 500 705C480 705 463 690 465 670L487 423L513 423Z" stroke="rgb(255,121,198)" stroke-opacity="1" stroke-width="8" fill="rgb(255,121,198)" fill-opacity="1"></path></g></g><g><g transform="matrix(1,0,0,1,257.03338623046875,75.39192810058594)"><path transform="matrix(0.020399999999999998,0,0,-0.020399999999999998,0,0)" d="M288 208L288 292C288 463 183 663 73 746C71 747 69 748 67 748C62 748 57 743 57 738C57 735 59 732 61 730C165 652 234 452 234 292L234 208C234 48 165 -152 61 -230C59 -232 57 -235 57 -238C57 -243 62 -248 67 -248C69 -248 71 -247 73 -246C183 -163 288 37 288 208Z" stroke="rgb(255,121,198)" stroke-opacity="1" stroke-width="8" fill="rgb(255,121,198)" fill-opacity="1"></path></g></g></g></g></svg>
</svg>
