<svg xmlns="http://www.w3.org/2000/svg" xmlns:xlink="http://www.w3.org/1999/xlink" x="0" y="0" width="240.9894002278646" height="137.98014322916666" style="
        width:240.9894002278646px;
        height:137.98014322916666px;
        background: transparent;
        fill: none;
">
        <svg xmlns="http://www.w3.org/2000/svg"/>
        
        <svg xmlns="http://www.w3.org/2000/svg" class="role-diagram-draw-area"><g class="shapes-region" style="stroke: black; fill: none;"><g class="arrow-line"><path class="connection real" stroke-dasharray="" d="  M19.33,112.67 L81,112.03" style="stroke: rgb(107, 201, 223); stroke-opacity: 1; stroke-width: 1; fill: none; fill-opacity: 1;"/><g stroke="none" fill="rgb(107,201,223)" fill-opacity="1" transform="matrix(-0.9999469818065809,0.010297260602187882,-0.010297260602187882,-0.9999469818065809,84,112)" style="stroke: none; fill: rgb(107, 201, 223); stroke-width: 1;"><path d=" M10.72,-5.15 L0,0 L10.72,5.15 L7.12,0 Z"/></g></g><g class="arrow-line"><path class="connection real" stroke-dasharray="" d="  M16,100 L97.83,22.07" style="stroke: rgb(107, 201, 223); stroke-opacity: 1; stroke-width: 1; fill: none; fill-opacity: 1;"/><g stroke="none" fill="rgb(107,201,223)" fill-opacity="1" transform="matrix(-0.7241718614374668,0.6896195437356705,-0.6896195437356705,-0.7241718614374668,100.00000000000001,20)" style="stroke: none; fill: rgb(107, 201, 223); stroke-width: 1;"><path d=" M10.72,-5.15 L0,0 L10.72,5.15 L7.12,0 Z"/></g></g><g class="arrow-line"><path class="connection real" stroke-dasharray="" d="  M212,100 L126.22,22.02" style="stroke: rgb(107, 201, 223); stroke-opacity: 1; stroke-width: 1; fill: none; fill-opacity: 1;"/><g stroke="none" fill="rgb(107,201,223)" fill-opacity="1" transform="matrix(0.7399833821035144,0.6726251513366447,-0.6726251513366447,0.7399833821035144,124,20)" style="stroke: none; fill: rgb(107, 201, 223); stroke-width: 1;"><path d=" M10.72,-5.15 L0,0 L10.72,5.15 L7.12,0 Z"/></g></g><g class="arrow-line"><path class="connection real" stroke-dasharray="6 6" d="  M112,100 L112,27" style="stroke: rgb(107, 201, 223); stroke-opacity: 1; stroke-width: 1; fill: none; fill-opacity: 1;"/><g stroke="none" fill="rgb(107,201,223)" fill-opacity="1" transform="matrix(3.061616997868383e-16,1,-1,3.061616997868383e-16,112,24)" style="stroke: none; fill: rgb(107, 201, 223); stroke-width: 1;"><path d=" M10.72,-5.15 L0,0 L10.72,5.15 L7.12,0 Z"/></g></g><g class="arrow-line"><path class="connection real" stroke-dasharray="" d="  M143,111.97 L204.67,111.33" style="stroke: rgb(107, 201, 223); stroke-opacity: 1; stroke-width: 1; fill: none; fill-opacity: 1;"/><g stroke="none" fill="rgb(107,201,223)" fill-opacity="1" transform="matrix(0.9999469818065809,-0.010297260602189535,0.010297260602189535,0.9999469818065809,140,112)" style="stroke: none; fill: rgb(107, 201, 223); stroke-width: 1;"><path d=" M10.72,-5.15 L0,0 L10.72,5.15 L7.12,0 Z"/></g></g><g/></g><g/><g/><g/></svg>
        <svg xmlns="http://www.w3.org/2000/svg" xmlns:xlink="http://www.w3.org/1999/xlink" width="238.99106852213544" height="135.9818115234375" style="width:238.99106852213544px;height:135.9818115234375px;font-family:LatinModern-Math, LatinModern, Asana-Math, Asana;background:transparent;"><g><g><g><g transform="matrix(1,0,0,1,90.16023763020833,116.37428792317709)"><path transform="matrix(0.017,0,0,-0.017,0,0)" d="M769 671C769 679 764 683 756 683C730 683 701 680 674 680C641 680 607 683 575 683C569 683 556 683 556 664C556 653 565 652 572 652C599 650 618 640 618 619C618 604 603 581 603 581L296 93L228 622C228 639 251 652 297 652C311 652 322 652 322 672C322 681 314 683 308 683C268 683 225 680 184 680C166 680 147 681 129 681C111 681 92 683 75 683C68 683 56 683 56 664C56 652 65 652 81 652C137 652 138 643 141 618L220 1C223 -19 227 -22 240 -22C256 -22 260 -17 268 -4L628 569C677 647 719 650 756 652C768 653 769 671 769 671Z" stroke="rgb(107,201,223)" stroke-opacity="1" stroke-width="8" fill="rgb(107,201,223)" fill-opacity="1"></path></g></g><g><g transform="matrix(1,0,0,1,103.47493489583333,116.37428792317709)"><path transform="matrix(0.017,0,0,-0.017,0,0)" d="M690 270L409 270L409 551C560 541 680 421 690 270ZM369 270L88 270C98 421 218 541 369 551ZM369 -51C218 -41 98 79 88 230L369 230ZM690 230C680 79 560 -41 409 -51L409 230ZM731 250C731 439 578 592 389 592C200 592 47 439 47 250C47 61 200 -92 389 -92C578 -92 731 61 731 250Z" stroke="rgb(107,201,223)" stroke-opacity="1" stroke-width="8" fill="rgb(107,201,223)" fill-opacity="1"></path></g></g><g><g transform="matrix(1,0,0,1,120.1036376953125,116.37428792317709)"><path transform="matrix(0.017,0,0,-0.017,0,0)" d="M1048 672C1048 676 1044 683 1036 683C1012 683 984 680 959 680C925 680 888 683 855 683C849 683 836 683 836 664C836 653 845 652 851 652C875 651 910 643 910 613C910 602 905 594 897 580L627 109L590 605C589 625 587 651 660 652C677 652 687 652 687 672C687 682 676 683 672 683C632 683 590 680 550 680C527 680 468 683 445 683C439 683 426 683 426 663C426 652 436 652 450 652C494 652 501 646 503 627L509 550L256 109L218 616C218 628 218 651 294 652C304 652 315 652 315 672C315 683 301 683 301 683C261 683 219 680 178 680C143 680 107 683 73 683C68 683 55 683 55 664C55 652 64 652 80 652C130 652 131 643 133 615L178 4C179 -14 180 -22 194 -22C206 -22 209 -16 218 -1L512 509L549 4C551 -17 553 -22 565 -22C578 -22 584 -12 589 -3L917 567C942 611 966 647 1029 652C1038 653 1048 653 1048 672Z" stroke="rgb(107,201,223)" stroke-opacity="1" stroke-width="8" fill="rgb(107,201,223)" fill-opacity="1"></path></g></g></g></g><g><g><g><g transform="matrix(1,0,0,1,6.424519856770832,116.37428792317709)"><path transform="matrix(0.017,0,0,-0.017,0,0)" d="M769 671C769 679 764 683 756 683C730 683 701 680 674 680C641 680 607 683 575 683C569 683 556 683 556 664C556 653 565 652 572 652C599 650 618 640 618 619C618 604 603 581 603 581L296 93L228 622C228 639 251 652 297 652C311 652 322 652 322 672C322 681 314 683 308 683C268 683 225 680 184 680C166 680 147 681 129 681C111 681 92 683 75 683C68 683 56 683 56 664C56 652 65 652 81 652C137 652 138 643 141 618L220 1C223 -19 227 -22 240 -22C256 -22 260 -17 268 -4L628 569C677 647 719 650 756 652C768 653 769 671 769 671Z" stroke="rgb(107,201,223)" stroke-opacity="1" stroke-width="8" fill="rgb(107,201,223)" fill-opacity="1"></path></g></g></g></g><g><g><g><g transform="matrix(1,0,0,1,207.1578369140625,117.37345377604166)"><path transform="matrix(0.017,0,0,-0.017,0,0)" d="M1048 672C1048 676 1044 683 1036 683C1012 683 984 680 959 680C925 680 888 683 855 683C849 683 836 683 836 664C836 653 845 652 851 652C875 651 910 643 910 613C910 602 905 594 897 580L627 109L590 605C589 625 587 651 660 652C677 652 687 652 687 672C687 682 676 683 672 683C632 683 590 680 550 680C527 680 468 683 445 683C439 683 426 683 426 663C426 652 436 652 450 652C494 652 501 646 503 627L509 550L256 109L218 616C218 628 218 651 294 652C304 652 315 652 315 672C315 683 301 683 301 683C261 683 219 680 178 680C143 680 107 683 73 683C68 683 55 683 55 664C55 652 64 652 80 652C130 652 131 643 133 615L178 4C179 -14 180 -22 194 -22C206 -22 209 -16 218 -1L512 509L549 4C551 -17 553 -22 565 -22C578 -22 584 -12 589 -3L917 567C942 611 966 647 1029 652C1038 653 1048 653 1048 672Z" stroke="rgb(107,201,223)" stroke-opacity="1" stroke-width="8" fill="rgb(107,201,223)" fill-opacity="1"></path></g></g></g></g><g><g><g><g transform="matrix(1,0,0,1,106.15596516927083,20.372762044270843)"><path transform="matrix(0.017,0,0,-0.017,0,0)" d="M723 674C723 683 718 683 698 683L276 683C252 683 251 682 245 663L190 483C188 478 187 469 187 469C187 469 187 458 199 458C208 458 210 465 212 468C250 586 302 652 458 652L621 652L62 27C62 27 58 12 58 9C58 0 65 0 83 0L518 0C542 0 543 1 549 20L620 241C621 245 624 252 624 256C624 261 620 267 611 267C602 267 601 263 594 242C550 106 502 34 332 34L161 34L720 659C721 663 723 668 723 674Z" stroke="rgb(107,201,223)" stroke-opacity="1" stroke-width="8" fill="rgb(107,201,223)" fill-opacity="1"></path></g></g></g></g><g><g><g><g transform="matrix(1,0,0,1,38.158284505208336,124.37215169270834)"><path transform="matrix(0.017,0,0,-0.017,0,0)" d="M324 143C324 153 315 153 312 153C303 153 301 149 299 142C268 44 185 11 142 11C128 11 116 14 116 44C116 68 124 91 134 118C179 239 220 407 220 415C220 432 208 442 191 442C180 442 162 435 154 416C147 397 138 348 132 329C130 324 105 236 102 223C99 213 90 188 88 178C80 150 56 103 56 71C56 30 84 -11 140 -11C254 -11 324 110 324 143Z" stroke="rgb(107,201,223)" stroke-opacity="1" stroke-width="8" fill="rgb(107,201,223)" fill-opacity="1"></path></g></g><g><g><g><g><g transform="matrix(1,0,0,1,44.686767578125,127.66334635416669)"><path transform="matrix(0.0119,0,0,-0.0119,0,0)" d="M769 671C769 679 764 683 756 683C730 683 701 680 674 680C641 680 607 683 575 683C569 683 556 683 556 664C556 653 565 652 572 652C599 650 618 640 618 619C618 604 603 581 603 581L296 93L228 622C228 639 251 652 297 652C311 652 322 652 322 672C322 681 314 683 308 683C268 683 225 680 184 680C166 680 147 681 129 681C111 681 92 683 75 683C68 683 56 683 56 664C56 652 65 652 81 652C137 652 138 643 141 618L220 1C223 -19 227 -22 240 -22C256 -22 260 -17 268 -4L628 569C677 647 719 650 756 652C768 653 769 671 769 671Z" stroke="rgb(107,201,223)" stroke-opacity="1" stroke-width="8" fill="rgb(107,201,223)" fill-opacity="1"></path></g></g></g></g></g></g></g><g><g><g><g transform="matrix(1,0,0,1,169.15779622395834,124.37215169270834)"><path transform="matrix(0.017,0,0,-0.017,0,0)" d="M324 143C324 153 315 153 312 153C303 153 301 149 299 142C268 44 185 11 142 11C128 11 116 14 116 44C116 68 124 91 134 118C179 239 220 407 220 415C220 432 208 442 191 442C180 442 162 435 154 416C147 397 138 348 132 329C130 324 105 236 102 223C99 213 90 188 88 178C80 150 56 103 56 71C56 30 84 -11 140 -11C254 -11 324 110 324 143Z" stroke="rgb(107,201,223)" stroke-opacity="1" stroke-width="8" fill="rgb(107,201,223)" fill-opacity="1"></path></g></g><g><g><g><g><g transform="matrix(1,0,0,1,175.68631998697916,127.66334635416669)"><path transform="matrix(0.0119,0,0,-0.0119,0,0)" d="M1048 672C1048 676 1044 683 1036 683C1012 683 984 680 959 680C925 680 888 683 855 683C849 683 836 683 836 664C836 653 845 652 851 652C875 651 910 643 910 613C910 602 905 594 897 580L627 109L590 605C589 625 587 651 660 652C677 652 687 652 687 672C687 682 676 683 672 683C632 683 590 680 550 680C527 680 468 683 445 683C439 683 426 683 426 663C426 652 436 652 450 652C494 652 501 646 503 627L509 550L256 109L218 616C218 628 218 651 294 652C304 652 315 652 315 672C315 683 301 683 301 683C261 683 219 680 178 680C143 680 107 683 73 683C68 683 55 683 55 664C55 652 64 652 80 652C130 652 131 643 133 615L178 4C179 -14 180 -22 194 -22C206 -22 209 -16 218 -1L512 509L549 4C551 -17 553 -22 565 -22C578 -22 584 -12 589 -3L917 567C942 611 966 647 1029 652C1038 653 1048 653 1048 672Z" stroke="rgb(107,201,223)" stroke-opacity="1" stroke-width="8" fill="rgb(107,201,223)" fill-opacity="1"></path></g></g></g></g></g></g></g><g><g><g><g transform="matrix(1,0,0,1,42.159464518229164,52.37327067057291)"><path transform="matrix(0.017,0,0,-0.017,0,0)" d="M552 636C552 682 506 705 465 705C431 705 368 687 338 588C332 567 329 557 305 431L236 431C217 431 206 431 206 412C206 400 215 400 234 400L300 400L225 5C207 -92 190 -183 138 -183C134 -183 109 -183 90 -165C136 -162 145 -126 145 -111C145 -88 127 -76 108 -76C82 -76 53 -98 53 -136C53 -181 97 -205 138 -205C193 -205 233 -146 251 -108C283 -45 306 76 307 83L367 400L453 400C473 400 483 400 483 420C483 431 473 431 456 431L373 431C384 489 383 487 394 545C398 566 412 637 418 649C427 668 444 683 465 683C469 683 495 683 514 665C470 661 460 626 460 611C460 588 478 576 497 576C523 576 552 598 552 636Z" stroke="rgb(107,201,223)" stroke-opacity="1" stroke-width="8" fill="rgb(107,201,223)" fill-opacity="1"></path></g></g><g><g><g><g><g transform="matrix(1,0,0,1,50.99827067057292,55.66446533203125)"><path transform="matrix(0.0119,0,0,-0.0119,0,0)" d="M769 671C769 679 764 683 756 683C730 683 701 680 674 680C641 680 607 683 575 683C569 683 556 683 556 664C556 653 565 652 572 652C599 650 618 640 618 619C618 604 603 581 603 581L296 93L228 622C228 639 251 652 297 652C311 652 322 652 322 672C322 681 314 683 308 683C268 683 225 680 184 680C166 680 147 681 129 681C111 681 92 683 75 683C68 683 56 683 56 664C56 652 65 652 81 652C137 652 138 643 141 618L220 1C223 -19 227 -22 240 -22C256 -22 260 -17 268 -4L628 569C677 647 719 650 756 652C768 653 769 671 769 671Z" stroke="rgb(107,201,223)" stroke-opacity="1" stroke-width="8" fill="rgb(107,201,223)" fill-opacity="1"></path></g></g></g></g></g></g></g><g><g><g><g transform="matrix(1,0,0,1,173.15901692708334,56.37447102864584)"><path transform="matrix(0.017,0,0,-0.017,0,0)" d="M552 636C552 682 506 705 465 705C431 705 368 687 338 588C332 567 329 557 305 431L236 431C217 431 206 431 206 412C206 400 215 400 234 400L300 400L225 5C207 -92 190 -183 138 -183C134 -183 109 -183 90 -165C136 -162 145 -126 145 -111C145 -88 127 -76 108 -76C82 -76 53 -98 53 -136C53 -181 97 -205 138 -205C193 -205 233 -146 251 -108C283 -45 306 76 307 83L367 400L453 400C473 400 483 400 483 420C483 431 473 431 456 431L373 431C384 489 383 487 394 545C398 566 412 637 418 649C427 668 444 683 465 683C469 683 495 683 514 665C470 661 460 626 460 611C460 588 478 576 497 576C523 576 552 598 552 636Z" stroke="rgb(107,201,223)" stroke-opacity="1" stroke-width="8" fill="rgb(107,201,223)" fill-opacity="1"></path></g></g><g><g><g><g><g transform="matrix(1,0,0,1,181.997802734375,59.665665690104156)"><path transform="matrix(0.0119,0,0,-0.0119,0,0)" d="M1048 672C1048 676 1044 683 1036 683C1012 683 984 680 959 680C925 680 888 683 855 683C849 683 836 683 836 664C836 653 845 652 851 652C875 651 910 643 910 613C910 602 905 594 897 580L627 109L590 605C589 625 587 651 660 652C677 652 687 652 687 672C687 682 676 683 672 683C632 683 590 680 550 680C527 680 468 683 445 683C439 683 426 683 426 663C426 652 436 652 450 652C494 652 501 646 503 627L509 550L256 109L218 616C218 628 218 651 294 652C304 652 315 652 315 672C315 683 301 683 301 683C261 683 219 680 178 680C143 680 107 683 73 683C68 683 55 683 55 664C55 652 64 652 80 652C130 652 131 643 133 615L178 4C179 -14 180 -22 194 -22C206 -22 209 -16 218 -1L512 509L549 4C551 -17 553 -22 565 -22C578 -22 584 -12 589 -3L917 567C942 611 966 647 1029 652C1038 653 1048 653 1048 672Z" stroke="rgb(107,201,223)" stroke-opacity="1" stroke-width="8" fill="rgb(107,201,223)" fill-opacity="1"></path></g></g></g></g></g></g></g><g><g><g><g transform="matrix(1,0,0,1,97.21769205729167,68.37351481119791)"><path transform="matrix(0.017,0,0,-0.017,0,0)" d="M552 636C552 682 506 705 465 705C431 705 368 687 338 588C332 567 329 557 305 431L236 431C217 431 206 431 206 412C206 400 215 400 234 400L300 400L225 5C207 -92 190 -183 138 -183C134 -183 109 -183 90 -165C136 -162 145 -126 145 -111C145 -88 127 -76 108 -76C82 -76 53 -98 53 -136C53 -181 97 -205 138 -205C193 -205 233 -146 251 -108C283 -45 306 76 307 83L367 400L453 400C473 400 483 400 483 420C483 431 473 431 456 431L373 431C384 489 383 487 394 545C398 566 412 637 418 649C427 668 444 683 465 683C469 683 495 683 514 665C470 661 460 626 460 611C460 588 478 576 497 576C523 576 552 598 552 636Z" stroke="rgb(107,201,223)" stroke-opacity="1" stroke-width="8" fill="rgb(107,201,223)" fill-opacity="1"></path></g></g></g></g></svg>
</svg>
