<svg xmlns="http://www.w3.org/2000/svg" xmlns:xlink="http://www.w3.org/1999/xlink" x="0" y="0" width="240.9894002278646" height="137.98014322916666" style="
        width:240.9894002278646px;
        height:137.98014322916666px;
        background: transparent;
        fill: none;
">
        <svg xmlns="http://www.w3.org/2000/svg"/>
        
        <svg xmlns="http://www.w3.org/2000/svg" class="role-diagram-draw-area"><g class="shapes-region" style="stroke: black; fill: none;"><g class="arrow-line"><path class="connection real" stroke-dasharray="" d="  M22.33,112.64 L84,112" style="stroke: rgb(107, 201, 223); stroke-opacity: 1; stroke-width: 1; fill: none; fill-opacity: 1;"/><g stroke="none" fill="rgb(107,201,223)" fill-opacity="1" transform="matrix(0.9999469818065809,-0.010297260602189535,0.010297260602189535,0.9999469818065809,19.33333333333333,112.66666666666669)" style="stroke: none; fill: rgb(107, 201, 223); stroke-width: 1;"><path d=" M10.72,-5.15 L0,0 L10.72,5.15 L7.12,0 Z"/></g></g><g class="arrow-line"><path class="connection real" stroke-dasharray="" d="  M18.17,97.93 L100,20" style="stroke: rgb(107, 201, 223); stroke-opacity: 1; stroke-width: 1; fill: none; fill-opacity: 1;"/><g stroke="none" fill="rgb(107,201,223)" fill-opacity="1" transform="matrix(0.7241718614374669,-0.6896195437356704,0.6896195437356704,0.7241718614374669,16,100)" style="stroke: none; fill: rgb(107, 201, 223); stroke-width: 1;"><path d=" M10.72,-5.15 L0,0 L10.72,5.15 L7.12,0 Z"/></g></g><g class="arrow-line"><path class="connection real" stroke-dasharray="" d="  M209.78,97.98 L124,20" style="stroke: rgb(107, 201, 223); stroke-opacity: 1; stroke-width: 1; fill: none; fill-opacity: 1;"/><g stroke="none" fill="rgb(107,201,223)" fill-opacity="1" transform="matrix(-0.7399833821035143,-0.6726251513366448,0.6726251513366448,-0.7399833821035143,212,100)" style="stroke: none; fill: rgb(107, 201, 223); stroke-width: 1;"><path d=" M10.72,-5.15 L0,0 L10.72,5.15 L7.12,0 Z"/></g></g><g class="arrow-line"><path class="connection real" stroke-dasharray="6 6" d="  M112,97 L112,24" style="stroke: rgb(107, 201, 223); stroke-opacity: 1; stroke-width: 1; fill: none; fill-opacity: 1;"/><g stroke="none" fill="rgb(107,201,223)" fill-opacity="1" transform="matrix(-1.8369701987210297e-16,-1,1,-1.8369701987210297e-16,112,99.99999999999999)" style="stroke: none; fill: rgb(107, 201, 223); stroke-width: 1;"><path d=" M10.72,-5.15 L0,0 L10.72,5.15 L7.12,0 Z"/></g></g><g class="arrow-line"><path class="connection real" stroke-dasharray="" d="  M140,112 L201.67,111.36" style="stroke: rgb(107, 201, 223); stroke-opacity: 1; stroke-width: 1; fill: none; fill-opacity: 1;"/><g stroke="none" fill="rgb(107,201,223)" fill-opacity="1" transform="matrix(-0.9999469818065809,0.010297260602187882,-0.010297260602187882,-0.9999469818065809,204.66666666666666,111.3333333333333)" style="stroke: none; fill: rgb(107, 201, 223); stroke-width: 1;"><path d=" M10.72,-5.15 L0,0 L10.72,5.15 L7.12,0 Z"/></g></g><g/></g><g/><g/><g/></svg>
        <svg xmlns="http://www.w3.org/2000/svg" xmlns:xlink="http://www.w3.org/1999/xlink" width="238.99106852213544" height="135.9818115234375" style="width:238.99106852213544px;height:135.9818115234375px;font-family:LatinModern-Math, LatinModern, Asana-Math, Asana;background:transparent;"><g><g><g><g transform="matrix(1,0,0,1,90.16023763020833,116.374267578125)"><path transform="matrix(0.017,0,0,-0.017,0,0)" d="M769 671C769 679 764 683 756 683C730 683 701 680 674 680C641 680 607 683 575 683C569 683 556 683 556 664C556 653 565 652 572 652C599 650 618 640 618 619C618 604 603 581 603 581L296 93L228 622C228 639 251 652 297 652C311 652 322 652 322 672C322 681 314 683 308 683C268 683 225 680 184 680C166 680 147 681 129 681C111 681 92 683 75 683C68 683 56 683 56 664C56 652 65 652 81 652C137 652 138 643 141 618L220 1C223 -19 227 -22 240 -22C256 -22 260 -17 268 -4L628 569C677 647 719 650 756 652C768 653 769 671 769 671Z" stroke="rgb(107,201,223)" stroke-opacity="1" stroke-width="8" fill="rgb(107,201,223)" fill-opacity="1"></path></g></g><g><g transform="matrix(1,0,0,1,103.47493489583333,116.374267578125)"><path transform="matrix(0.017,0,0,-0.017,0,0)" d="M624 15C632 22 632 35 624 43L417 250L624 457C632 465 632 478 624 485C617 493 604 493 596 485L389 278L182 485C174 493 161 493 154 485C146 478 146 465 154 457L361 250L154 43C146 35 146 22 154 15C161 7 174 7 182 15L389 222L596 15C604 7 617 7 624 15Z" stroke="rgb(107,201,223)" stroke-opacity="1" stroke-width="8" fill="rgb(107,201,223)" fill-opacity="1"></path></g></g><g><g transform="matrix(1,0,0,1,120.1036376953125,116.374267578125)"><path transform="matrix(0.017,0,0,-0.017,0,0)" d="M1048 672C1048 676 1044 683 1036 683C1012 683 984 680 959 680C925 680 888 683 855 683C849 683 836 683 836 664C836 653 845 652 851 652C875 651 910 643 910 613C910 602 905 594 897 580L627 109L590 605C589 625 587 651 660 652C677 652 687 652 687 672C687 682 676 683 672 683C632 683 590 680 550 680C527 680 468 683 445 683C439 683 426 683 426 663C426 652 436 652 450 652C494 652 501 646 503 627L509 550L256 109L218 616C218 628 218 651 294 652C304 652 315 652 315 672C315 683 301 683 301 683C261 683 219 680 178 680C143 680 107 683 73 683C68 683 55 683 55 664C55 652 64 652 80 652C130 652 131 643 133 615L178 4C179 -14 180 -22 194 -22C206 -22 209 -16 218 -1L512 509L549 4C551 -17 553 -22 565 -22C578 -22 584 -12 589 -3L917 567C942 611 966 647 1029 652C1038 653 1048 653 1048 672Z" stroke="rgb(107,201,223)" stroke-opacity="1" stroke-width="8" fill="rgb(107,201,223)" fill-opacity="1"></path></g></g></g></g><g><g><g><g transform="matrix(1,0,0,1,6.424519856770832,116.374267578125)"><path transform="matrix(0.017,0,0,-0.017,0,0)" d="M769 671C769 679 764 683 756 683C730 683 701 680 674 680C641 680 607 683 575 683C569 683 556 683 556 664C556 653 565 652 572 652C599 650 618 640 618 619C618 604 603 581 603 581L296 93L228 622C228 639 251 652 297 652C311 652 322 652 322 672C322 681 314 683 308 683C268 683 225 680 184 680C166 680 147 681 129 681C111 681 92 683 75 683C68 683 56 683 56 664C56 652 65 652 81 652C137 652 138 643 141 618L220 1C223 -19 227 -22 240 -22C256 -22 260 -17 268 -4L628 569C677 647 719 650 756 652C768 653 769 671 769 671Z" stroke="rgb(107,201,223)" stroke-opacity="1" stroke-width="8" fill="rgb(107,201,223)" fill-opacity="1"></path></g></g></g></g><g><g><g><g transform="matrix(1,0,0,1,207.1578369140625,117.37345377604169)"><path transform="matrix(0.017,0,0,-0.017,0,0)" d="M1048 672C1048 676 1044 683 1036 683C1012 683 984 680 959 680C925 680 888 683 855 683C849 683 836 683 836 664C836 653 845 652 851 652C875 651 910 643 910 613C910 602 905 594 897 580L627 109L590 605C589 625 587 651 660 652C677 652 687 652 687 672C687 682 676 683 672 683C632 683 590 680 550 680C527 680 468 683 445 683C439 683 426 683 426 663C426 652 436 652 450 652C494 652 501 646 503 627L509 550L256 109L218 616C218 628 218 651 294 652C304 652 315 652 315 672C315 683 301 683 301 683C261 683 219 680 178 680C143 680 107 683 73 683C68 683 55 683 55 664C55 652 64 652 80 652C130 652 131 643 133 615L178 4C179 -14 180 -22 194 -22C206 -22 209 -16 218 -1L512 509L549 4C551 -17 553 -22 565 -22C578 -22 584 -12 589 -3L917 567C942 611 966 647 1029 652C1038 653 1048 653 1048 672Z" stroke="rgb(107,201,223)" stroke-opacity="1" stroke-width="8" fill="rgb(107,201,223)" fill-opacity="1"></path></g></g></g></g><g><g><g><g transform="matrix(1,0,0,1,106.15596516927083,20.37274169921875)"><path transform="matrix(0.017,0,0,-0.017,0,0)" d="M723 674C723 683 718 683 698 683L276 683C252 683 251 682 245 663L190 483C188 478 187 469 187 469C187 469 187 458 199 458C208 458 210 465 212 468C250 586 302 652 458 652L621 652L62 27C62 27 58 12 58 9C58 0 65 0 83 0L518 0C542 0 543 1 549 20L620 241C621 245 624 252 624 256C624 261 620 267 611 267C602 267 601 263 594 242C550 106 502 34 332 34L161 34L720 659C721 663 723 668 723 674Z" stroke="rgb(107,201,223)" stroke-opacity="1" stroke-width="8" fill="rgb(107,201,223)" fill-opacity="1"></path></g></g></g></g><g><g><g><g transform="matrix(1,0,0,1,38.158284505208336,124.37215169270831)"><path transform="matrix(0.017,0,0,-0.017,0,0)" d="M567 407C567 431 546 431 527 431L192 431C170 431 132 431 88 384C53 345 27 299 27 294C27 294 27 284 39 284C47 284 49 288 55 296C104 373 162 373 182 373L239 373C207 252 153 131 111 40C103 25 103 23 103 16C103 -3 119 -11 132 -11C162 -11 170 17 182 54C196 100 196 102 209 152L265 373L378 373C345 225 336 182 336 115C336 100 336 73 344 39C354 -5 365 -11 380 -11C400 -11 421 7 421 27C421 33 421 35 415 49C386 121 386 186 386 214C386 267 393 321 404 373L518 373C531 373 567 373 567 407Z" stroke="rgb(107,201,223)" stroke-opacity="1" stroke-width="8" fill="rgb(107,201,223)" fill-opacity="1"></path></g></g><g><g><g><g><g transform="matrix(1,0,0,1,48.35793050130208,127.66334635416669)"><path transform="matrix(0.0119,0,0,-0.0119,0,0)" d="M769 671C769 679 764 683 756 683C730 683 701 680 674 680C641 680 607 683 575 683C569 683 556 683 556 664C556 653 565 652 572 652C599 650 618 640 618 619C618 604 603 581 603 581L296 93L228 622C228 639 251 652 297 652C311 652 322 652 322 672C322 681 314 683 308 683C268 683 225 680 184 680C166 680 147 681 129 681C111 681 92 683 75 683C68 683 56 683 56 664C56 652 65 652 81 652C137 652 138 643 141 618L220 1C223 -19 227 -22 240 -22C256 -22 260 -17 268 -4L628 569C677 647 719 650 756 652C768 653 769 671 769 671Z" stroke="rgb(107,201,223)" stroke-opacity="1" stroke-width="8" fill="rgb(107,201,223)" fill-opacity="1"></path></g></g></g></g></g></g></g><g><g><g><g transform="matrix(1,0,0,1,169.15779622395834,124.37215169270831)"><path transform="matrix(0.017,0,0,-0.017,0,0)" d="M567 407C567 431 546 431 527 431L192 431C170 431 132 431 88 384C53 345 27 299 27 294C27 294 27 284 39 284C47 284 49 288 55 296C104 373 162 373 182 373L239 373C207 252 153 131 111 40C103 25 103 23 103 16C103 -3 119 -11 132 -11C162 -11 170 17 182 54C196 100 196 102 209 152L265 373L378 373C345 225 336 182 336 115C336 100 336 73 344 39C354 -5 365 -11 380 -11C400 -11 421 7 421 27C421 33 421 35 415 49C386 121 386 186 386 214C386 267 393 321 404 373L518 373C531 373 567 373 567 407Z" stroke="rgb(107,201,223)" stroke-opacity="1" stroke-width="8" fill="rgb(107,201,223)" fill-opacity="1"></path></g></g><g><g><g><g><g transform="matrix(1,0,0,1,179.35746256510416,127.66334635416669)"><path transform="matrix(0.0119,0,0,-0.0119,0,0)" d="M1048 672C1048 676 1044 683 1036 683C1012 683 984 680 959 680C925 680 888 683 855 683C849 683 836 683 836 664C836 653 845 652 851 652C875 651 910 643 910 613C910 602 905 594 897 580L627 109L590 605C589 625 587 651 660 652C677 652 687 652 687 672C687 682 676 683 672 683C632 683 590 680 550 680C527 680 468 683 445 683C439 683 426 683 426 663C426 652 436 652 450 652C494 652 501 646 503 627L509 550L256 109L218 616C218 628 218 651 294 652C304 652 315 652 315 672C315 683 301 683 301 683C261 683 219 680 178 680C143 680 107 683 73 683C68 683 55 683 55 664C55 652 64 652 80 652C130 652 131 643 133 615L178 4C179 -14 180 -22 194 -22C206 -22 209 -16 218 -1L512 509L549 4C551 -17 553 -22 565 -22C578 -22 584 -12 589 -3L917 567C942 611 966 647 1029 652C1038 653 1048 653 1048 672Z" stroke="rgb(107,201,223)" stroke-opacity="1" stroke-width="8" fill="rgb(107,201,223)" fill-opacity="1"></path></g></g></g></g></g></g></g><g><g><g><g transform="matrix(1,0,0,1,42.159464518229164,52.373250325520814)"><path transform="matrix(0.017,0,0,-0.017,0,0)" d="M552 636C552 682 506 705 465 705C431 705 368 687 338 588C332 567 329 557 305 431L236 431C217 431 206 431 206 412C206 400 215 400 234 400L300 400L225 5C207 -92 190 -183 138 -183C134 -183 109 -183 90 -165C136 -162 145 -126 145 -111C145 -88 127 -76 108 -76C82 -76 53 -98 53 -136C53 -181 97 -205 138 -205C193 -205 233 -146 251 -108C283 -45 306 76 307 83L367 400L453 400C473 400 483 400 483 420C483 431 473 431 456 431L373 431C384 489 383 487 394 545C398 566 412 637 418 649C427 668 444 683 465 683C469 683 495 683 514 665C470 661 460 626 460 611C460 588 478 576 497 576C523 576 552 598 552 636Z" stroke="rgb(107,201,223)" stroke-opacity="1" stroke-width="8" fill="rgb(107,201,223)" fill-opacity="1"></path></g></g><g><g><g><g><g transform="matrix(1,0,0,1,50.99827067057292,55.66446533203125)"><path transform="matrix(0.0119,0,0,-0.0119,0,0)" d="M769 671C769 679 764 683 756 683C730 683 701 680 674 680C641 680 607 683 575 683C569 683 556 683 556 664C556 653 565 652 572 652C599 650 618 640 618 619C618 604 603 581 603 581L296 93L228 622C228 639 251 652 297 652C311 652 322 652 322 672C322 681 314 683 308 683C268 683 225 680 184 680C166 680 147 681 129 681C111 681 92 683 75 683C68 683 56 683 56 664C56 652 65 652 81 652C137 652 138 643 141 618L220 1C223 -19 227 -22 240 -22C256 -22 260 -17 268 -4L628 569C677 647 719 650 756 652C768 653 769 671 769 671Z" stroke="rgb(107,201,223)" stroke-opacity="1" stroke-width="8" fill="rgb(107,201,223)" fill-opacity="1"></path></g></g></g></g></g></g></g><g><g><g><g transform="matrix(1,0,0,1,173.15901692708334,56.37445068359375)"><path transform="matrix(0.017,0,0,-0.017,0,0)" d="M552 636C552 682 506 705 465 705C431 705 368 687 338 588C332 567 329 557 305 431L236 431C217 431 206 431 206 412C206 400 215 400 234 400L300 400L225 5C207 -92 190 -183 138 -183C134 -183 109 -183 90 -165C136 -162 145 -126 145 -111C145 -88 127 -76 108 -76C82 -76 53 -98 53 -136C53 -181 97 -205 138 -205C193 -205 233 -146 251 -108C283 -45 306 76 307 83L367 400L453 400C473 400 483 400 483 420C483 431 473 431 456 431L373 431C384 489 383 487 394 545C398 566 412 637 418 649C427 668 444 683 465 683C469 683 495 683 514 665C470 661 460 626 460 611C460 588 478 576 497 576C523 576 552 598 552 636Z" stroke="rgb(107,201,223)" stroke-opacity="1" stroke-width="8" fill="rgb(107,201,223)" fill-opacity="1"></path></g></g><g><g><g><g><g transform="matrix(1,0,0,1,181.997802734375,59.66564534505206)"><path transform="matrix(0.0119,0,0,-0.0119,0,0)" d="M1048 672C1048 676 1044 683 1036 683C1012 683 984 680 959 680C925 680 888 683 855 683C849 683 836 683 836 664C836 653 845 652 851 652C875 651 910 643 910 613C910 602 905 594 897 580L627 109L590 605C589 625 587 651 660 652C677 652 687 652 687 672C687 682 676 683 672 683C632 683 590 680 550 680C527 680 468 683 445 683C439 683 426 683 426 663C426 652 436 652 450 652C494 652 501 646 503 627L509 550L256 109L218 616C218 628 218 651 294 652C304 652 315 652 315 672C315 683 301 683 301 683C261 683 219 680 178 680C143 680 107 683 73 683C68 683 55 683 55 664C55 652 64 652 80 652C130 652 131 643 133 615L178 4C179 -14 180 -22 194 -22C206 -22 209 -16 218 -1L512 509L549 4C551 -17 553 -22 565 -22C578 -22 584 -12 589 -3L917 567C942 611 966 647 1029 652C1038 653 1048 653 1048 672Z" stroke="rgb(107,201,223)" stroke-opacity="1" stroke-width="8" fill="rgb(107,201,223)" fill-opacity="1"></path></g></g></g></g></g></g></g><g><g><g><g transform="matrix(1,0,0,1,97.21769205729167,68.37351481119794)"><path transform="matrix(0.017,0,0,-0.017,0,0)" d="M552 636C552 682 506 705 465 705C431 705 368 687 338 588C332 567 329 557 305 431L236 431C217 431 206 431 206 412C206 400 215 400 234 400L300 400L225 5C207 -92 190 -183 138 -183C134 -183 109 -183 90 -165C136 -162 145 -126 145 -111C145 -88 127 -76 108 -76C82 -76 53 -98 53 -136C53 -181 97 -205 138 -205C193 -205 233 -146 251 -108C283 -45 306 76 307 83L367 400L453 400C473 400 483 400 483 420C483 431 473 431 456 431L373 431C384 489 383 487 394 545C398 566 412 637 418 649C427 668 444 683 465 683C469 683 495 683 514 665C470 661 460 626 460 611C460 588 478 576 497 576C523 576 552 598 552 636Z" stroke="rgb(107,201,223)" stroke-opacity="1" stroke-width="8" fill="rgb(107,201,223)" fill-opacity="1"></path></g></g></g></g></svg>
</svg>
