<svg xmlns="http://www.w3.org/2000/svg" xmlns:xlink="http://www.w3.org/1999/xlink" x="0" y="0" width="181.6484375" height="136.1328125" style="
        width:181.6484375px;
        height:136.1328125px;
        background: transparent;
        fill: none;
">
        <svg xmlns="http://www.w3.org/2000/svg"/>
        
        <svg xmlns="http://www.w3.org/2000/svg" class="role-diagram-draw-area" style="overflow: visible;"><g class="shapes-region" style="stroke: black; fill: none;"><g class="arrow-line"><path class="connection real" stroke-dasharray="" d="  M45,20 L85.67,19.91" style="stroke: rgb(107, 201, 223); stroke-opacity: 1; stroke-width: 1; fill: none; fill-opacity: 1;"/><g stroke="none" fill="rgb(107,201,223)" fill-opacity="1" transform="matrix(-0.9999978067553793,0.0020943935712196115,-0.0020943935712196115,-0.9999978067553793,88.66666666666664,19.90625)" style="stroke: none; fill: rgb(107, 201, 223); stroke-width: 1;"><path d=" M10.72,-5.15 L0,0 L10.72,5.15 L7.12,0 Z"/></g></g><g class="arrow-line"><path class="connection real" stroke-dasharray="" d="  M25,100 L25,38" style="stroke: rgb(107, 201, 223); stroke-opacity: 1; stroke-width: 1; fill: none; fill-opacity: 1;"/><g stroke="none" fill="rgb(107,201,223)" fill-opacity="1" transform="matrix(3.061616997868383e-16,1,-1,3.061616997868383e-16,25,35)" style="stroke: none; fill: rgb(107, 201, 223); stroke-width: 1;"><path d=" M10.72,-5.15 L0,0 L10.72,5.15 L7.12,0 Z"/></g></g><g class="arrow-line"><path class="connection real" stroke-dasharray="" d="  M130,97 L130,30" style="stroke: rgb(107, 201, 223); stroke-opacity: 1; stroke-width: 1; fill: none; fill-opacity: 1;"/><g stroke="none" fill="rgb(107,201,223)" fill-opacity="1" transform="matrix(-1.8369701987210297e-16,-1,1,-1.8369701987210297e-16,130,100)" style="stroke: none; fill: rgb(107, 201, 223); stroke-width: 1;"><path d=" M10.72,-5.15 L0,0 L10.72,5.15 L7.12,0 Z"/></g></g><g class="arrow-line"><path class="connection real" stroke-dasharray="6 6" d="  M45,110 L107,110" style="stroke: rgb(107, 201, 223); stroke-opacity: 1; stroke-width: 1; fill: none; fill-opacity: 1;"/><g stroke="none" fill="rgb(107,201,223)" fill-opacity="1" transform="matrix(-1,1.2246467991473532e-16,-1.2246467991473532e-16,-1,109.99999999999999,110.00000000000001)" style="stroke: none; fill: rgb(107, 201, 223); stroke-width: 1;"><path d=" M10.72,-5.15 L0,0 L10.72,5.15 L7.12,0 Z"/></g></g><g/></g><g/><g/><g/></svg>
        <svg xmlns="http://www.w3.org/2000/svg" xmlns:xlink="http://www.w3.org/1999/xlink" width="179.6484375" height="134.1328125" style="width:179.6484375px;height:134.1328125px;font-family:LatinModern-Math, LatinModern, Asana-Math, Asana;background:transparent;"><g><g><g><g transform="matrix(1,0,0,1,92,26.5)"><path transform="matrix(0.017,0,0,-0.017,0,0)" d="M425 -238C425 -231 420 -226 413 -226C338 -226 283 -177 283 -125L283 125C283 183 235 229 168 250C235 271 283 317 283 375L283 625C283 677 338 726 413 726C420 726 425 731 425 738C425 745 420 750 413 750C308 750 217 698 217 625L217 375C217 317 162 262 87 262C80 262 75 257 75 250C75 243 80 238 87 238C162 238 217 183 217 125L217 -125C217 -198 308 -250 413 -250C420 -250 425 -245 425 -238Z" stroke="rgb(107,201,223)" stroke-opacity="1" stroke-width="8" fill="rgb(107,201,223)" fill-opacity="1"></path></g></g><g><g transform="matrix(1,0,0,1,101.34375,26)"><path transform="matrix(0.017,0,0,-0.017,0,0)" d="M769 671C769 679 764 683 756 683C730 683 701 680 674 680C641 680 607 683 575 683C569 683 556 683 556 664C556 653 565 652 572 652C599 650 618 640 618 619C618 604 603 581 603 581L296 93L228 622C228 639 251 652 297 652C311 652 322 652 322 672C322 681 314 683 308 683C268 683 225 680 184 680C166 680 147 681 129 681C111 681 92 683 75 683C68 683 56 683 56 664C56 652 65 652 81 652C137 652 138 643 141 618L220 1C223 -19 227 -22 240 -22C256 -22 260 -17 268 -4L628 569C677 647 719 650 756 652C768 653 769 671 769 671Z" stroke="rgb(107,201,223)" stroke-opacity="1" stroke-width="8" fill="rgb(107,201,223)" fill-opacity="1"></path></g></g><g><g transform="matrix(1,0,0,1,112.1015625,26.5)"><path transform="matrix(0.017,0,0,-0.017,0,0)" d="M425 250C425 257 420 262 413 262C338 262 283 317 283 375L283 625C283 698 192 750 87 750C80 750 75 745 75 738C75 731 80 726 87 726C162 726 217 677 217 625L217 375C217 317 265 271 332 250C265 229 217 183 217 125L217 -125C217 -177 162 -226 87 -226C80 -226 75 -231 75 -238C75 -245 80 -250 87 -250C192 -250 283 -198 283 -125L283 125C283 183 338 238 413 238C420 238 425 243 425 250Z" stroke="rgb(107,201,223)" stroke-opacity="1" stroke-width="8" fill="rgb(107,201,223)" fill-opacity="1"></path></g></g><g><g transform="matrix(1,0,0,1,124,26)"><path transform="matrix(0.017,0,0,-0.017,0,0)" d="M713 15C713 31 707 31 684 31C610 31 610 38 610 77L610 606C610 645 610 652 687 652C707 652 713 652 713 668C713 683 704 683 696 683C655 683 611 680 569 680C527 680 483 683 441 683C433 683 424 683 424 668C424 652 430 652 453 652C527 652 527 645 527 606L527 31L222 31L222 606C222 645 222 652 299 652C319 652 325 652 325 668C325 683 316 683 308 683C267 683 223 680 181 680C139 680 95 683 53 683C45 683 36 683 36 668C36 652 42 652 65 652C139 652 139 645 139 606L139 77C139 38 139 31 62 31C42 31 36 31 36 15C36 0 43 0 62 0L687 0C706 0 713 0 713 15Z" stroke="rgb(107,201,223)" stroke-opacity="1" stroke-width="8" fill="rgb(107,201,223)" fill-opacity="1"></path></g></g><g><g transform="matrix(1,0,0,1,140.1484375,26.5)"><path transform="matrix(0.017,0,0,-0.017,0,0)" d="M425 -238C425 -231 420 -226 413 -226C338 -226 283 -177 283 -125L283 125C283 183 235 229 168 250C235 271 283 317 283 375L283 625C283 677 338 726 413 726C420 726 425 731 425 738C425 745 420 750 413 750C308 750 217 698 217 625L217 375C217 317 162 262 87 262C80 262 75 257 75 250C75 243 80 238 87 238C162 238 217 183 217 125L217 -125C217 -198 308 -250 413 -250C420 -250 425 -245 425 -238Z" stroke="rgb(107,201,223)" stroke-opacity="1" stroke-width="8" fill="rgb(107,201,223)" fill-opacity="1"></path></g></g><g><g transform="matrix(1,0,0,1,149.4921875,26)"><path transform="matrix(0.017,0,0,-0.017,0,0)" d="M1048 672C1048 676 1044 683 1036 683C1012 683 984 680 959 680C925 680 888 683 855 683C849 683 836 683 836 664C836 653 845 652 851 652C875 651 910 643 910 613C910 602 905 594 897 580L627 109L590 605C589 625 587 651 660 652C677 652 687 652 687 672C687 682 676 683 672 683C632 683 590 680 550 680C527 680 468 683 445 683C439 683 426 683 426 663C426 652 436 652 450 652C494 652 501 646 503 627L509 550L256 109L218 616C218 628 218 651 294 652C304 652 315 652 315 672C315 683 301 683 301 683C261 683 219 680 178 680C143 680 107 683 73 683C68 683 55 683 55 664C55 652 64 652 80 652C130 652 131 643 133 615L178 4C179 -14 180 -22 194 -22C206 -22 209 -16 218 -1L512 509L549 4C551 -17 553 -22 565 -22C578 -22 584 -12 589 -3L917 567C942 611 966 647 1029 652C1038 653 1048 653 1048 672Z" stroke="rgb(107,201,223)" stroke-opacity="1" stroke-width="8" fill="rgb(107,201,223)" fill-opacity="1"></path></g></g><g><g transform="matrix(1,0,0,1,166.390625,26.5)"><path transform="matrix(0.017,0,0,-0.017,0,0)" d="M425 250C425 257 420 262 413 262C338 262 283 317 283 375L283 625C283 698 192 750 87 750C80 750 75 745 75 738C75 731 80 726 87 726C162 726 217 677 217 625L217 375C217 317 265 271 332 250C265 229 217 183 217 125L217 -125C217 -177 162 -226 87 -226C80 -226 75 -231 75 -238C75 -245 80 -250 87 -250C192 -250 283 -198 283 -125L283 125C283 183 338 238 413 238C420 238 425 243 425 250Z" stroke="rgb(107,201,223)" stroke-opacity="1" stroke-width="8" fill="rgb(107,201,223)" fill-opacity="1"></path></g></g></g></g><g><g><g><g transform="matrix(1,0,0,1,12,26.5)"><path transform="matrix(0.017,0,0,-0.017,0,0)" d="M425 -238C425 -231 420 -226 413 -226C338 -226 283 -177 283 -125L283 125C283 183 235 229 168 250C235 271 283 317 283 375L283 625C283 677 338 726 413 726C420 726 425 731 425 738C425 745 420 750 413 750C308 750 217 698 217 625L217 375C217 317 162 262 87 262C80 262 75 257 75 250C75 243 80 238 87 238C162 238 217 183 217 125L217 -125C217 -198 308 -250 413 -250C420 -250 425 -245 425 -238Z" stroke="rgb(107,201,223)" stroke-opacity="1" stroke-width="8" fill="rgb(107,201,223)" fill-opacity="1"></path></g></g><g><g transform="matrix(1,0,0,1,21.34375,26)"><path transform="matrix(0.017,0,0,-0.017,0,0)" d="M769 671C769 679 764 683 756 683C730 683 701 680 674 680C641 680 607 683 575 683C569 683 556 683 556 664C556 653 565 652 572 652C599 650 618 640 618 619C618 604 603 581 603 581L296 93L228 622C228 639 251 652 297 652C311 652 322 652 322 672C322 681 314 683 308 683C268 683 225 680 184 680C166 680 147 681 129 681C111 681 92 683 75 683C68 683 56 683 56 664C56 652 65 652 81 652C137 652 138 643 141 618L220 1C223 -19 227 -22 240 -22C256 -22 260 -17 268 -4L628 569C677 647 719 650 756 652C768 653 769 671 769 671Z" stroke="rgb(107,201,223)" stroke-opacity="1" stroke-width="8" fill="rgb(107,201,223)" fill-opacity="1"></path></g></g><g><g transform="matrix(1,0,0,1,32.1015625,26.5)"><path transform="matrix(0.017,0,0,-0.017,0,0)" d="M425 250C425 257 420 262 413 262C338 262 283 317 283 375L283 625C283 698 192 750 87 750C80 750 75 745 75 738C75 731 80 726 87 726C162 726 217 677 217 625L217 375C217 317 265 271 332 250C265 229 217 183 217 125L217 -125C217 -177 162 -226 87 -226C80 -226 75 -231 75 -238C75 -245 80 -250 87 -250C192 -250 283 -198 283 -125L283 125C283 183 338 238 413 238C420 238 425 243 425 250Z" stroke="rgb(107,201,223)" stroke-opacity="1" stroke-width="8" fill="rgb(107,201,223)" fill-opacity="1"></path></g></g></g></g><g><g><g><g transform="matrix(1,0,0,1,12,117.5)"><path transform="matrix(0.017,0,0,-0.017,0,0)" d="M425 -238C425 -231 420 -226 413 -226C338 -226 283 -177 283 -125L283 125C283 183 235 229 168 250C235 271 283 317 283 375L283 625C283 677 338 726 413 726C420 726 425 731 425 738C425 745 420 750 413 750C308 750 217 698 217 625L217 375C217 317 162 262 87 262C80 262 75 257 75 250C75 243 80 238 87 238C162 238 217 183 217 125L217 -125C217 -198 308 -250 413 -250C420 -250 425 -245 425 -238Z" stroke="rgb(107,201,223)" stroke-opacity="1" stroke-width="8" fill="rgb(107,201,223)" fill-opacity="1"></path></g></g><g><g transform="matrix(1,0,0,1,21.34375,117)"><path transform="matrix(0.017,0,0,-0.017,0,0)" d="M419 0L419 31L387 31C297 31 294 42 294 79L294 640C294 664 294 666 271 666C209 602 121 602 89 602L89 571C109 571 168 571 220 597L220 79C220 43 217 31 127 31L95 31L95 0C130 3 217 3 257 3C297 3 384 3 419 0Z" stroke="rgb(107,201,223)" stroke-opacity="1" stroke-width="8" fill="rgb(107,201,223)" fill-opacity="1"></path></g></g><g><g transform="matrix(1,0,0,1,30.6875,117.5)"><path transform="matrix(0.017,0,0,-0.017,0,0)" d="M425 250C425 257 420 262 413 262C338 262 283 317 283 375L283 625C283 698 192 750 87 750C80 750 75 745 75 738C75 731 80 726 87 726C162 726 217 677 217 625L217 375C217 317 265 271 332 250C265 229 217 183 217 125L217 -125C217 -177 162 -226 87 -226C80 -226 75 -231 75 -238C75 -245 80 -250 87 -250C192 -250 283 -198 283 -125L283 125C283 183 338 238 413 238C420 238 425 243 425 250Z" stroke="rgb(107,201,223)" stroke-opacity="1" stroke-width="8" fill="rgb(107,201,223)" fill-opacity="1"></path></g></g></g></g><g><g><g><g transform="matrix(1,0,0,1,55,11)"><path transform="matrix(0.017,0,0,-0.017,0,0)" d="M324 143C324 153 315 153 312 153C303 153 301 149 299 142C268 44 185 11 142 11C128 11 116 14 116 44C116 68 124 91 134 118C179 239 220 407 220 415C220 432 208 442 191 442C180 442 162 435 154 416C147 397 138 348 132 329C130 324 105 236 102 223C99 213 90 188 88 178C80 150 56 103 56 71C56 30 84 -11 140 -11C254 -11 324 110 324 143Z" stroke="rgb(107,201,223)" stroke-opacity="1" stroke-width="8" fill="rgb(107,201,223)" fill-opacity="1"></path></g></g><g><g><g><g><g transform="matrix(1,0,0,1,61.53125,14.5015625)"><path transform="matrix(0.0119,0,0,-0.0119,0,0)" d="M769 671C769 679 764 683 756 683C730 683 701 680 674 680C641 680 607 683 575 683C569 683 556 683 556 664C556 653 565 652 572 652C599 650 618 640 618 619C618 604 603 581 603 581L296 93L228 622C228 639 251 652 297 652C311 652 322 652 322 672C322 681 314 683 308 683C268 683 225 680 184 680C166 680 147 681 129 681C111 681 92 683 75 683C68 683 56 683 56 664C56 652 65 652 81 652C137 652 138 643 141 618L220 1C223 -19 227 -22 240 -22C256 -22 260 -17 268 -4L628 569C677 647 719 650 756 652C768 653 769 671 769 671Z" stroke="rgb(107,201,223)" stroke-opacity="1" stroke-width="8" fill="rgb(107,201,223)" fill-opacity="1"></path></g></g></g></g></g></g></g><g><g><g><g transform="matrix(1,0,0,1,2,70)"><path transform="matrix(0.017,0,0,-0.017,0,0)" d="M420 356C420 401 377 442 301 442C169 442 132 340 132 296C132 218 206 203 235 197C287 187 339 176 339 121C339 95 316 11 196 11C182 11 105 11 82 64C120 59 145 89 145 117C145 140 129 152 108 152C82 152 52 131 52 86C52 29 109 -11 195 -11C357 -11 396 110 396 155C396 191 377 216 365 228C338 256 309 261 265 270C229 278 189 285 189 330C189 359 213 420 301 420C326 420 376 413 391 374C363 373 343 351 343 329C343 315 352 300 374 300C396 300 420 317 420 356Z" stroke="rgb(107,201,223)" stroke-opacity="1" stroke-width="8" fill="rgb(107,201,223)" fill-opacity="1"></path></g></g><g><g><g><g><g transform="matrix(1,0,0,1,10.484375,73.5015625)"><path transform="matrix(0.0119,0,0,-0.0119,0,0)" d="M769 671C769 679 764 683 756 683C730 683 701 680 674 680C641 680 607 683 575 683C569 683 556 683 556 664C556 653 565 652 572 652C599 650 618 640 618 619C618 604 603 581 603 581L296 93L228 622C228 639 251 652 297 652C311 652 322 652 322 672C322 681 314 683 308 683C268 683 225 680 184 680C166 680 147 681 129 681C111 681 92 683 75 683C68 683 56 683 56 664C56 652 65 652 81 652C137 652 138 643 141 618L220 1C223 -19 227 -22 240 -22C256 -22 260 -17 268 -4L628 569C677 647 719 650 756 652C768 653 769 671 769 671Z" stroke="rgb(107,201,223)" stroke-opacity="1" stroke-width="8" fill="rgb(107,201,223)" fill-opacity="1"></path></g></g></g></g></g></g></g><g><g><g><g transform="matrix(1,0,0,1,134,71)"><path transform="matrix(0.017,0,0,-0.017,0,0)" d="M704 666C704 677 694 677 677 677L122 677C98 677 97 676 90 657L30 481C29 479 24 463 24 463C24 457 29 452 36 452C46 452 47 457 53 473C107 628 133 646 281 646L320 646C348 646 348 642 348 634C348 628 345 616 344 613L210 79C201 42 198 31 91 31C55 31 49 31 49 12C49 0 60 0 66 0C93 0 121 2 148 2L233 3L316 2C345 2 375 0 403 0C413 0 425 0 425 20C425 31 417 31 391 31C366 31 353 31 327 33C298 36 290 39 290 55C290 55 290 61 294 76L427 607C434 635 438 641 450 644C459 646 492 646 513 646C614 646 659 642 659 564C659 549 655 510 651 484C650 480 648 468 648 465C648 459 651 452 660 452C671 452 673 460 675 475L702 649C703 653 704 663 704 666Z" stroke="rgb(107,201,223)" stroke-opacity="1" stroke-width="8" fill="rgb(107,201,223)" fill-opacity="1"></path></g></g></g></g><g><g><g><g transform="matrix(1,0,0,1,112,117.5)"><path transform="matrix(0.017,0,0,-0.017,0,0)" d="M425 -238C425 -231 420 -226 413 -226C338 -226 283 -177 283 -125L283 125C283 183 235 229 168 250C235 271 283 317 283 375L283 625C283 677 338 726 413 726C420 726 425 731 425 738C425 745 420 750 413 750C308 750 217 698 217 625L217 375C217 317 162 262 87 262C80 262 75 257 75 250C75 243 80 238 87 238C162 238 217 183 217 125L217 -125C217 -198 308 -250 413 -250C420 -250 425 -245 425 -238Z" stroke="rgb(107,201,223)" stroke-opacity="1" stroke-width="8" fill="rgb(107,201,223)" fill-opacity="1"></path></g></g><g><g transform="matrix(1,0,0,1,121.34375,117)"><path transform="matrix(0.017,0,0,-0.017,0,0)" d="M419 0L419 31L387 31C297 31 294 42 294 79L294 640C294 664 294 666 271 666C209 602 121 602 89 602L89 571C109 571 168 571 220 597L220 79C220 43 217 31 127 31L95 31L95 0C130 3 217 3 257 3C297 3 384 3 419 0Z" stroke="rgb(107,201,223)" stroke-opacity="1" stroke-width="8" fill="rgb(107,201,223)" fill-opacity="1"></path></g></g><g><g transform="matrix(1,0,0,1,129.84375,117)"><path transform="matrix(0.017,0,0,-0.017,0,0)" d="M203 1C203 67 178 106 139 106C106 106 86 81 86 53C86 26 106 0 139 0C151 0 164 4 174 13C177 15 179 16 179 16C179 16 181 15 181 1C181 -73 146 -133 113 -166C102 -177 102 -179 102 -182C102 -189 107 -193 112 -193C123 -193 203 -116 203 1Z" stroke="rgb(107,201,223)" stroke-opacity="1" stroke-width="8" fill="rgb(107,201,223)" fill-opacity="1"></path></g></g><g><g transform="matrix(1,0,0,1,137.96875,117)"><path transform="matrix(0.017,0,0,-0.017,0,0)" d="M449 174L424 174C419 144 412 100 402 85C395 77 329 77 307 77L127 77L233 180C389 318 449 372 449 472C449 586 359 666 237 666C124 666 50 574 50 485C50 429 100 429 103 429C120 429 155 441 155 482C155 508 137 534 102 534C94 534 92 534 89 533C112 598 166 635 224 635C315 635 358 554 358 472C358 392 308 313 253 251L61 37C50 26 50 24 50 0L421 0Z" stroke="rgb(107,201,223)" stroke-opacity="1" stroke-width="8" fill="rgb(107,201,223)" fill-opacity="1"></path></g></g><g><g transform="matrix(1,0,0,1,147.3125,117.5)"><path transform="matrix(0.017,0,0,-0.017,0,0)" d="M425 250C425 257 420 262 413 262C338 262 283 317 283 375L283 625C283 698 192 750 87 750C80 750 75 745 75 738C75 731 80 726 87 726C162 726 217 677 217 625L217 375C217 317 265 271 332 250C265 229 217 183 217 125L217 -125C217 -177 162 -226 87 -226C80 -226 75 -231 75 -238C75 -245 80 -250 87 -250C192 -250 283 -198 283 -125L283 125C283 183 338 238 413 238C420 238 425 243 425 250Z" stroke="rgb(107,201,223)" stroke-opacity="1" stroke-width="8" fill="rgb(107,201,223)" fill-opacity="1"></path></g></g></g></g><g><g><g><g transform="matrix(1,0,0,1,62,125)"><path transform="matrix(0.017,0,0,-0.017,0,0)" d="M420 356C420 401 377 442 301 442C169 442 132 340 132 296C132 218 206 203 235 197C287 187 339 176 339 121C339 95 316 11 196 11C182 11 105 11 82 64C120 59 145 89 145 117C145 140 129 152 108 152C82 152 52 131 52 86C52 29 109 -11 195 -11C357 -11 396 110 396 155C396 191 377 216 365 228C338 256 309 261 265 270C229 278 189 285 189 330C189 359 213 420 301 420C326 420 376 413 391 374C363 373 343 351 343 329C343 315 352 300 374 300C396 300 420 317 420 356Z" stroke="rgb(107,201,223)" stroke-opacity="1" stroke-width="8" fill="rgb(107,201,223)" fill-opacity="1"></path></g></g><g><g><g><g><g transform="matrix(1,0,0,1,70.484375,128.5015625)"><path transform="matrix(0.0119,0,0,-0.0119,0,0)" d="M704 666C704 677 694 677 677 677L122 677C98 677 97 676 90 657L30 481C29 479 24 463 24 463C24 457 29 452 36 452C46 452 47 457 53 473C107 628 133 646 281 646L320 646C348 646 348 642 348 634C348 628 345 616 344 613L210 79C201 42 198 31 91 31C55 31 49 31 49 12C49 0 60 0 66 0C93 0 121 2 148 2L233 3L316 2C345 2 375 0 403 0C413 0 425 0 425 20C425 31 417 31 391 31C366 31 353 31 327 33C298 36 290 39 290 55C290 55 290 61 294 76L427 607C434 635 438 641 450 644C459 646 492 646 513 646C614 646 659 642 659 564C659 549 655 510 651 484C650 480 648 468 648 465C648 459 651 452 660 452C671 452 673 460 675 475L702 649C703 653 704 663 704 666Z" stroke="rgb(107,201,223)" stroke-opacity="1" stroke-width="8" fill="rgb(107,201,223)" fill-opacity="1"></path></g></g></g></g></g></g></g></svg>
</svg>
