<svg xmlns="http://www.w3.org/2000/svg" xmlns:xlink="http://www.w3.org/1999/xlink" x="0" y="0" width="198.6355183919271" height="122.6264139811198" style="
        width:198.6355183919271px;
        height:122.6264139811198px;
        background: transparent;
        fill: none;
">
        <svg xmlns="http://www.w3.org/2000/svg"/>
        
        <svg xmlns="http://www.w3.org/2000/svg" class="role-diagram-draw-area"><g class="shapes-region" style="stroke: black; fill: none;"><g class="arrow-line"><path class="connection real" stroke-dasharray="" d="  M138,20 L56,20" style="stroke: rgb(107, 201, 223); stroke-opacity: 1; stroke-width: 1; fill: none; fill-opacity: 1;"/><g stroke="none" fill="rgb(107,201,223)" fill-opacity="1" transform="matrix(-1,1.2246467991473532e-16,-1.2246467991473532e-16,-1,141,20.000000000000004)" style="stroke: none; fill: rgb(107, 201, 223); stroke-width: 1;"><path d=" M10.72,-5.15 L0,0 L10.72,5.15 L7.12,0 Z"/></g></g><g class="arrow-line"><path class="connection real" stroke-dasharray="" d="  M45,33 L153.11,99.11" style="stroke: rgb(107, 201, 223); stroke-opacity: 1; stroke-width: 1; fill: none; fill-opacity: 1;"/><g stroke="none" fill="rgb(107,201,223)" fill-opacity="1" transform="matrix(-0.8530958056494934,-0.5217542969475591,0.5217542969475591,-0.8530958056494934,155.67122395833334,100.67988077799481)" style="stroke: none; fill: rgb(107, 201, 223); stroke-width: 1;"><path d=" M10.72,-5.15 L0,0 L10.72,5.15 L7.12,0 Z"/></g></g><g class="arrow-line"><path class="connection real" stroke-dasharray="6 6" d="  M169,33.67 L169,87.01" style="stroke: rgb(107, 201, 223); stroke-opacity: 1; stroke-width: 1; fill: none; fill-opacity: 1;"/><g stroke="none" fill="rgb(107,201,223)" fill-opacity="1" transform="matrix(-1.8369701987210297e-16,-1,1,-1.8369701987210297e-16,169,90.01321411132815)" style="stroke: none; fill: rgb(107, 201, 223); stroke-width: 1;"><path d=" M10.72,-5.15 L0,0 L10.72,5.15 L7.12,0 Z"/></g></g><g/></g><g/><g/><g/></svg>
        <svg xmlns="http://www.w3.org/2000/svg" xmlns:xlink="http://www.w3.org/1999/xlink" width="196.6371866861979" height="120.62807210286458" style="width:196.6371866861979px;height:120.62807210286458px;font-family:LatinModern-Math, LatinModern, Asana-Math, Asana;background:transparent;"><g><g><g><g transform="matrix(1,0,0,1,147.15804036458334,24.37395222981771)"><path transform="matrix(0.017,0,0,-0.017,0,0)" d="M769 671C769 679 764 683 756 683C730 683 701 680 674 680C641 680 607 683 575 683C569 683 556 683 556 664C556 653 565 652 572 652C599 650 618 640 618 619C618 604 603 581 603 581L296 93L228 622C228 639 251 652 297 652C311 652 322 652 322 672C322 681 314 683 308 683C268 683 225 680 184 680C166 680 147 681 129 681C111 681 92 683 75 683C68 683 56 683 56 664C56 652 65 652 81 652C137 652 138 643 141 618L220 1C223 -19 227 -22 240 -22C256 -22 260 -17 268 -4L628 569C677 647 719 650 756 652C768 653 769 671 769 671Z" stroke="rgb(107,201,223)" stroke-opacity="1" stroke-width="8" fill="rgb(107,201,223)" fill-opacity="1"></path></g></g><g><g transform="matrix(1,0,0,1,160.47273763020834,24.37395222981771)"><path transform="matrix(0.017,0,0,-0.017,0,0)" d="M691 250C691 174 663 104 616 51L417 250L616 449C663 396 691 326 691 250ZM588 477L389 278L190 477C243 524 313 552 389 552C465 552 535 524 588 477ZM361 250L162 51C115 104 87 174 87 250C87 326 115 396 162 449ZM588 23C535 -24 465 -52 389 -52C313 -52 243 -24 190 23L389 222ZM731 250C731 439 578 592 389 592C200 592 47 439 47 250C47 61 200 -92 389 -92C578 -92 731 61 731 250Z" stroke="rgb(107,201,223)" stroke-opacity="1" stroke-width="8" fill="rgb(107,201,223)" fill-opacity="1"></path></g></g><g><g transform="matrix(1,0,0,1,177.10139973958334,24.37395222981771)"><path transform="matrix(0.017,0,0,-0.017,0,0)" d="M1048 672C1048 676 1044 683 1036 683C1012 683 984 680 959 680C925 680 888 683 855 683C849 683 836 683 836 664C836 653 845 652 851 652C875 651 910 643 910 613C910 602 905 594 897 580L627 109L590 605C589 625 587 651 660 652C677 652 687 652 687 672C687 682 676 683 672 683C632 683 590 680 550 680C527 680 468 683 445 683C439 683 426 683 426 663C426 652 436 652 450 652C494 652 501 646 503 627L509 550L256 109L218 616C218 628 218 651 294 652C304 652 315 652 315 672C315 683 301 683 301 683C261 683 219 680 178 680C143 680 107 683 73 683C68 683 55 683 55 664C55 652 64 652 80 652C130 652 131 643 133 615L178 4C179 -14 180 -22 194 -22C206 -22 209 -16 218 -1L512 509L549 4C551 -17 553 -22 565 -22C578 -22 584 -12 589 -3L917 567C942 611 966 647 1029 652C1038 653 1048 653 1048 672Z" stroke="rgb(107,201,223)" stroke-opacity="1" stroke-width="8" fill="rgb(107,201,223)" fill-opacity="1"></path></g></g></g></g><g><g><g><g transform="matrix(1,0,0,1,2.161092122395832,24.37395222981771)"><path transform="matrix(0.017,0,0,-0.017,0,0)" d="M769 671C769 679 764 683 756 683C730 683 701 680 674 680C641 680 607 683 575 683C569 683 556 683 556 664C556 653 565 652 572 652C599 650 618 640 618 619C618 604 603 581 603 581L296 93L228 622C228 639 251 652 297 652C311 652 322 652 322 672C322 681 314 683 308 683C268 683 225 680 184 680C166 680 147 681 129 681C111 681 92 683 75 683C68 683 56 683 56 664C56 652 65 652 81 652C137 652 138 643 141 618L220 1C223 -19 227 -22 240 -22C256 -22 260 -17 268 -4L628 569C677 647 719 650 756 652C768 653 769 671 769 671Z" stroke="rgb(107,201,223)" stroke-opacity="1" stroke-width="8" fill="rgb(107,201,223)" fill-opacity="1"></path></g></g><g><g transform="matrix(1,0,0,1,15.475809733072914,24.37395222981771)"><path transform="matrix(0.017,0,0,-0.017,0,0)" d="M624 15C632 22 632 35 624 43L417 250L624 457C632 465 632 478 624 485C617 493 604 493 596 485L389 278L182 485C174 493 161 493 154 485C146 478 146 465 154 457L361 250L154 43C146 35 146 22 154 15C161 7 174 7 182 15L389 222L596 15C604 7 617 7 624 15Z" stroke="rgb(107,201,223)" stroke-opacity="1" stroke-width="8" fill="rgb(107,201,223)" fill-opacity="1"></path></g></g><g><g transform="matrix(1,0,0,1,32.1044921875,24.37395222981771)"><path transform="matrix(0.017,0,0,-0.017,0,0)" d="M1048 672C1048 676 1044 683 1036 683C1012 683 984 680 959 680C925 680 888 683 855 683C849 683 836 683 836 664C836 653 845 652 851 652C875 651 910 643 910 613C910 602 905 594 897 580L627 109L590 605C589 625 587 651 660 652C677 652 687 652 687 672C687 682 676 683 672 683C632 683 590 680 550 680C527 680 468 683 445 683C439 683 426 683 426 663C426 652 436 652 450 652C494 652 501 646 503 627L509 550L256 109L218 616C218 628 218 651 294 652C304 652 315 652 315 672C315 683 301 683 301 683C261 683 219 680 178 680C143 680 107 683 73 683C68 683 55 683 55 664C55 652 64 652 80 652C130 652 131 643 133 615L178 4C179 -14 180 -22 194 -22C206 -22 209 -16 218 -1L512 509L549 4C551 -17 553 -22 565 -22C578 -22 584 -12 589 -3L917 567C942 611 966 647 1029 652C1038 653 1048 653 1048 672Z" stroke="rgb(107,201,223)" stroke-opacity="1" stroke-width="8" fill="rgb(107,201,223)" fill-opacity="1"></path></g></g></g></g><g><g><g><g transform="matrix(1,0,0,1,163.15828450520834,108.37188720703125)"><path transform="matrix(0.017,0,0,-0.017,0,0)" d="M723 674C723 683 718 683 698 683L276 683C252 683 251 682 245 663L190 483C188 478 187 469 187 469C187 469 187 458 199 458C208 458 210 465 212 468C250 586 302 652 458 652L621 652L62 27C62 27 58 12 58 9C58 0 65 0 83 0L518 0C542 0 543 1 549 20L620 241C621 245 624 252 624 256C624 261 620 267 611 267C602 267 601 263 594 242C550 106 502 34 332 34L161 34L720 659C721 663 723 668 723 674Z" stroke="rgb(107,201,223)" stroke-opacity="1" stroke-width="8" fill="rgb(107,201,223)" fill-opacity="1"></path></g></g></g></g><g><g><g><g transform="matrix(1,0,0,1,92.1585693359375,13.378580729166666)"><path transform="matrix(0.017,0,0,-0.017,0,0)" d="M619 304C619 382 580 442 505 442C360 442 300 248 240 53C132 73 76 129 76 201C76 229 99 339 159 408C167 417 167 421 167 421C167 425 165 431 155 431C127 431 50 286 50 190C50 96 116 23 223 -2L170 -170C166 -183 165 -185 165 -190C165 -212 184 -218 194 -218C199 -218 221 -215 231 -192C234 -184 239 -151 266 -9C275 -10 282 -11 299 -11C465 -11 619 146 619 304ZM591 282C591 169 462 47 308 47C300 47 298 47 290 48C278 48 277 49 277 52L297 160C328 288 406 384 495 384C564 384 591 330 591 282Z" stroke="rgb(107,201,223)" stroke-opacity="1" stroke-width="8" fill="rgb(107,201,223)" fill-opacity="1"></path></g></g></g></g><g><g><g><g transform="matrix(1,0,0,1,88.15283203125,86.37210083007812)"><path transform="matrix(0.017,0,0,-0.017,0,0)" d="M546 143C546 153 537 153 534 153C524 153 524 150 519 135C504 82 472 11 417 11C400 11 393 21 393 44C393 69 402 93 411 115C427 158 472 277 472 335C472 400 432 442 357 442C294 442 246 411 209 365L287 683C287 683 287 694 274 694C251 694 178 686 152 684C144 683 133 682 133 664C133 652 142 652 157 652C205 652 207 645 207 635L204 615L59 39C55 25 55 23 55 17C55 -6 75 -11 84 -11C100 -11 116 1 121 15L140 91L162 181C168 203 174 225 179 248C181 254 189 287 190 293C193 302 224 358 258 385C280 401 311 420 354 420C397 420 408 386 408 350C408 296 370 187 346 126C338 103 333 91 333 71C333 24 368 -11 415 -11C509 -11 546 135 546 143Z" stroke="rgb(107,201,223)" stroke-opacity="1" stroke-width="8" fill="rgb(107,201,223)" fill-opacity="1"></path></g></g></g></g><g><g><g><g><g><g><g transform="matrix(1,0,0,1,178.15482584635416,61.37030029296875)"><path transform="matrix(0.017,0,0,-0.017,0,0)" d="M546 143C546 153 537 153 534 153C524 153 524 150 519 135C504 82 472 11 417 11C400 11 393 21 393 44C393 69 402 93 411 115C427 158 472 277 472 335C472 400 432 442 357 442C294 442 246 411 209 365L287 683C287 683 287 694 274 694C251 694 178 686 152 684C144 683 133 682 133 664C133 652 142 652 157 652C205 652 207 645 207 635L204 615L59 39C55 25 55 23 55 17C55 -6 75 -11 84 -11C100 -11 116 1 121 15L140 91L162 181C168 203 174 225 179 248C181 254 189 287 190 293C193 302 224 358 258 385C280 401 311 420 354 420C397 420 408 386 408 350C408 296 370 187 346 126C338 103 333 91 333 71C333 24 368 -11 415 -11C509 -11 546 135 546 143Z" stroke="rgb(107,201,223)" stroke-opacity="1" stroke-width="8" fill="rgb(107,201,223)" fill-opacity="1"></path></g></g></g></g><svg x="178.15482584635416" overflow="visible" y="37.66094970703125" height="8.997034072875977" width="9.792751948038756"><path d="M0.00,8.05 C 0.61 5.60, 2.45 5.60, 4.90 7.44  S 9.18 6.83, 9.79 5.60" style="fill:none;fill-opacity:1;stroke-width:1px;stroke:rgb(107,201,223);stroke-opacity:1;"></path></svg></g></g></g></svg>
</svg>
