<svg xmlns="http://www.w3.org/2000/svg" xmlns:xlink="http://www.w3.org/1999/xlink" x="0" y="0" width="301.9657897949219" height="178.9309539794922" style="
        width:301.9657897949219px;
        height:178.9309539794922px;
        background: transparent;
        fill: none;
">
        <svg xmlns="http://www.w3.org/2000/svg"/>
        
        <svg xmlns="http://www.w3.org/2000/svg" class="role-diagram-draw-area"><g class="shapes-region" style="stroke: black; fill: none;"><g class="arrow-line"><path class="connection real" stroke-dasharray="" d="  M51.71,136.71 C105.67,166.71 207.71,125.71 247.71,95.71" style="stroke: rgb(189, 147, 249); stroke-opacity: 1; stroke-width: 1; fill: rgb(255, 121, 198); fill-opacity: 0.13;"/><g><g stroke="none" fill="rgb(189,147,249)" fill-opacity="1" transform="matrix(-0.9631156167651556,0.2690879200987552,-0.2690879200987552,-0.9631156167651556,159.40784214843754,137.44888939843747)" style="stroke: none; fill: rgb(189, 147, 249); stroke-width: 1;"><path d=" M8.93,-4.29 L0,0 L8.93,4.29 Z"/></g></g></g><g class="arrow-line"><path class="connection real" stroke-dasharray="" d="  M51.71,136.71 C71.67,72.71 158.67,4.71 247.71,95.71" style="stroke: rgb(189, 147, 249); stroke-opacity: 1; stroke-width: 1; fill: rgb(255, 121, 198); fill-opacity: 0.13;"/><g><g stroke="none" fill="rgb(189,147,249)" fill-opacity="1" transform="matrix(-0.9804089265795956,0.196972933884443,-0.196972933884443,-0.9804089265795956,142.55367909790044,52.920398273437485)" style="stroke: none; fill: rgb(189, 147, 249); stroke-width: 1;"><path d=" M8.93,-4.29 L0,0 L8.93,4.29 Z"/></g></g></g><g class="composite-shape"><path class="real" d=" M4.67,27 L294.67,27 L294.67,172 L4.67,172 Z" style="stroke-width: 2; stroke: rgb(107, 201, 223); stroke-opacity: 1; fill: none; fill-opacity: 1;"/></g><g class="composite-shape"><path class="real" d=" M48,136.71 C48,134.66 49.66,133 51.71,133 C53.77,133 55.43,134.66 55.43,136.71 C55.43,138.77 53.77,140.43 51.71,140.43 C49.66,140.43 48,138.77 48,136.71 Z" style="stroke-width: 1; stroke: rgb(107, 201, 223); stroke-opacity: 1; fill: rgb(107, 201, 223); fill-opacity: 1;"/></g><g class="composite-shape"><path class="real" d=" M244,95.71 C244,93.66 245.66,92 247.71,92 C249.77,92 251.43,93.66 251.43,95.71 C251.43,97.77 249.77,99.43 247.71,99.43 C245.66,99.43 244,97.77 244,95.71 Z" style="stroke-width: 1; stroke: rgb(107, 201, 223); stroke-opacity: 1; fill: rgb(107, 201, 223); fill-opacity: 1;"/></g><g/></g><g/><g/><g/></svg>
        <svg xmlns="http://www.w3.org/2000/svg" xmlns:xlink="http://www.w3.org/1999/xlink" width="299.9764709472656" height="176.94166564941406" style="width:299.9764709472656px;height:176.94166564941406px;font-family:LatinModern-Math, LatinModern, Asana-Math, Asana;background:transparent;"><g><g><g><g transform="matrix(1,0,0,1,169.83599853515625,150.38980712890626)"><path transform="matrix(0.020399999999999998,0,0,-0.020399999999999998,0,0)" d="M474 395C474 412 462 422 445 422C435 422 408 415 404 379C386 416 351 442 311 442C197 442 73 302 73 158C73 59 134 0 206 0C265 0 312 47 322 58L323 57L290 -75C286 -84 252 -183 146 -183C127 -183 94 -182 66 -173C96 -164 107 -138 107 -121C107 -105 96 -86 69 -86C47 -86 15 -104 15 -144C15 -185 52 -205 148 -205C273 -205 345 -127 360 -67L471 377C472 383 474 388 474 395ZM392 334C392 329 390 323 389 319L341 128C335 102 312 77 290 58C269 40 238 22 209 22C159 22 144 74 144 114C144 162 173 280 200 331C227 380 270 420 312 420C378 420 392 339 392 334Z" stroke="rgb(189,147,249)" stroke-opacity="1" stroke-width="8" fill="rgb(189,147,249)" fill-opacity="1"></path></g></g></g></g><g><g><g><g transform="matrix(1,0,0,1,105.71139526367188,55.39346923828125)"><path transform="matrix(0.020399999999999998,0,0,-0.020399999999999998,0,0)" d="M552 636C552 682 506 705 465 705C431 705 368 687 338 588C332 567 329 557 305 431L236 431C217 431 206 431 206 412C206 400 215 400 234 400L300 400L225 5C207 -92 190 -183 138 -183C134 -183 109 -183 90 -165C136 -162 145 -126 145 -111C145 -88 127 -76 108 -76C82 -76 53 -98 53 -136C53 -181 97 -205 138 -205C193 -205 233 -146 251 -108C283 -45 306 76 307 83L367 400L453 400C473 400 483 400 483 420C483 431 473 431 456 431L373 431C384 489 383 487 394 545C398 566 412 637 418 649C427 668 444 683 465 683C469 683 495 683 514 665C470 661 460 626 460 611C460 588 478 576 497 576C523 576 552 598 552 636Z" stroke="rgb(189,147,249)" stroke-opacity="1" stroke-width="8" fill="rgb(189,147,249)" fill-opacity="1"></path></g></g></g></g><g><g><g><g transform="matrix(1,0,0,1,35.4832763671875,151.39200439453126)"><path transform="matrix(0.020399999999999998,0,0,-0.020399999999999998,0,0)" d="M498 143C498 153 489 153 486 153C476 153 475 149 472 135C455 70 437 11 396 11C369 11 366 37 366 57C366 79 368 87 379 131L401 221L437 361C444 389 444 391 444 395C444 412 432 422 415 422C391 422 376 400 373 378C355 415 326 442 281 442C164 442 40 295 40 149C40 55 95 -11 173 -11C193 -11 243 -7 303 64C311 22 346 -11 394 -11C429 -11 452 12 468 44C485 80 498 143 498 143ZM361 332C361 326 359 320 358 315L308 119C303 101 303 99 288 82C244 27 203 11 175 11C125 11 111 66 111 105C111 155 143 278 166 324C197 383 242 420 282 420C347 420 361 338 361 332Z" stroke="rgb(107,201,223)" stroke-opacity="1" stroke-width="8" fill="rgb(107,201,223)" fill-opacity="1"></path></g></g></g></g><g><g><g><g transform="matrix(1,0,0,1,260.32623291015625,106.39176025390626)"><path transform="matrix(0.020399999999999998,0,0,-0.020399999999999998,0,0)" d="M415 282C415 373 362 442 282 442C236 442 195 413 165 382L239 683C239 683 239 694 226 694C203 694 130 686 104 684C96 683 85 682 85 664C85 652 94 652 109 652C157 652 159 645 159 635C159 628 150 594 145 573L63 247C51 197 47 181 47 146C47 51 100 -11 174 -11C292 -11 415 138 415 282ZM343 326C343 267 310 152 292 114C259 47 213 11 174 11C140 11 107 38 107 112C107 131 107 150 123 213L145 305C151 327 151 329 160 340C209 405 254 420 280 420C316 420 343 390 343 326Z" stroke="rgb(107,201,223)" stroke-opacity="1" stroke-width="8" fill="rgb(107,201,223)" fill-opacity="1"></path></g></g></g></g><g><g><g><g transform="matrix(1,0,0,1,5.485626220703125,20.4)"><path transform="matrix(0.020399999999999998,0,0,-0.020399999999999998,0,0)" d="M851 672C851 672 851 683 838 683C808 683 775 680 744 680C707 680 669 683 633 683C627 683 614 683 614 663C614 656 619 653 626 652C635 651 666 649 666 621C666 607 655 594 647 585L485 411L401 610L396 623C396 629 413 648 455 652C465 653 475 654 475 671C475 683 463 683 460 683C419 683 376 680 334 680C309 680 247 683 222 683C216 683 204 683 204 663C204 652 214 652 227 652C287 652 293 642 302 620L420 341L209 114C203 109 202 108 196 103C147 50 100 34 49 31C36 30 27 30 27 11C27 11 27 0 40 0C70 0 103 3 134 3C171 3 210 0 246 0C252 0 264 0 264 20C264 30 252 31 252 31C243 32 212 34 212 62C212 78 227 94 239 107L341 215L431 313L532 74L537 60C537 52 518 35 479 31C468 30 459 29 459 12C459 0 470 0 474 0L600 3C625 3 686 0 711 0C718 0 730 0 730 19C730 31 720 31 712 31C645 32 643 35 626 75L497 384C565 454 670 573 702 601C731 625 769 649 829 652C842 653 851 653 851 672Z" stroke="rgb(107,201,223)" stroke-opacity="1" stroke-width="8" fill="rgb(107,201,223)" fill-opacity="1"></path></g></g></g></g><g><g><g><g transform="matrix(1,0,0,1,107.482177734375,106.33902587890626)"><path transform="matrix(0.020399999999999998,0,0,-0.020399999999999998,0,0)" d="M881 672C881 683 870 683 867 683L739 680L610 683C602 683 591 683 591 663C591 652 600 652 619 652C619 652 640 652 657 650C675 648 684 647 684 634C684 630 683 628 680 615L620 371L315 371L374 606C383 642 386 652 458 652C484 652 492 652 492 672C492 683 481 683 478 683L350 680L221 683C213 683 202 683 202 663C202 652 211 652 230 652C230 652 251 652 268 650C286 648 295 647 295 634C295 630 294 627 291 615L157 78C147 39 145 31 66 31C48 31 39 31 39 11C39 0 53 0 53 0L180 3L244 2C266 2 288 0 309 0C317 0 329 0 329 20C329 31 320 31 301 31C264 31 236 31 236 49C236 55 238 60 239 66L307 340L612 340L543 64C533 32 514 31 452 31C437 31 428 31 428 11C428 0 442 0 442 0L569 3L633 2C655 2 677 0 698 0C706 0 718 0 718 20C718 31 709 31 690 31C653 31 625 31 625 49C625 55 627 60 628 66L763 606C772 642 774 652 847 652C873 652 881 652 881 672Z" stroke="rgb(255,121,198)" stroke-opacity="1" stroke-width="8" fill="rgb(255,121,198)" fill-opacity="1"></path></g></g><g><g transform="matrix(1,0,0,1,124.43637084960938,106.33902587890626)"><path transform="matrix(0.020399999999999998,0,0,-0.020399999999999998,0,0)" d="M332 -238C332 -235 330 -232 328 -230C224 -152 155 48 155 208L155 292C155 452 224 652 328 730C330 732 332 735 332 738C332 743 327 748 322 748C320 748 318 747 316 746C206 663 101 463 101 292L101 208C101 37 206 -163 316 -246C318 -247 320 -248 322 -248C327 -248 332 -243 332 -238Z" stroke="rgb(255,121,198)" stroke-opacity="1" stroke-width="8" fill="rgb(255,121,198)" fill-opacity="1"></path></g></g><g><g transform="matrix(1,0,0,1,132.37847900390625,106.33902587890626)"><path transform="matrix(0.020399999999999998,0,0,-0.020399999999999998,0,0)" d="M256 -230C256 -219 247 -210 236 -210L154 -210L154 710L236 710C247 710 256 719 256 730C256 741 247 750 236 750L114 750L114 -250L236 -250C247 -250 256 -241 256 -230Z" stroke="rgb(255,121,198)" stroke-opacity="1" stroke-width="8" fill="rgb(255,121,198)" fill-opacity="1"></path></g></g><g><g transform="matrix(1,0,0,1,138.052490234375,106.33902587890626)"><path transform="matrix(0.020399999999999998,0,0,-0.020399999999999998,0,0)" d="M460 320C460 400 455 480 420 554C374 650 292 666 250 666C190 666 117 640 76 547C44 478 39 400 39 320C39 245 43 155 84 79C127 -2 200 -22 249 -22C303 -22 379 -1 423 94C455 163 460 241 460 320ZM377 332C377 257 377 189 366 125C351 30 294 0 249 0C210 0 151 25 133 121C122 181 122 273 122 332C122 396 122 462 130 516C149 635 224 644 249 644C282 644 348 626 367 527C377 471 377 395 377 332Z" stroke="rgb(255,121,198)" stroke-opacity="1" stroke-width="8" fill="rgb(255,121,198)" fill-opacity="1"></path></g></g><g><g transform="matrix(1,0,0,1,148.255126953125,106.33902587890626)"><path transform="matrix(0.020399999999999998,0,0,-0.020399999999999998,0,0)" d="M203 1C203 67 178 106 139 106C106 106 86 81 86 53C86 26 106 0 139 0C151 0 164 4 174 13C177 15 179 16 179 16C179 16 181 15 181 1C181 -73 146 -133 113 -166C102 -177 102 -179 102 -182C102 -189 107 -193 112 -193C123 -193 203 -116 203 1Z" stroke="rgb(255,121,198)" stroke-opacity="1" stroke-width="8" fill="rgb(255,121,198)" fill-opacity="1"></path></g></g><g><g transform="matrix(1,0,0,1,158.0057373046875,106.33902587890626)"><path transform="matrix(0.020399999999999998,0,0,-0.020399999999999998,0,0)" d="M419 0L419 31L387 31C297 31 294 42 294 79L294 640C294 664 294 666 271 666C209 602 121 602 89 602L89 571C109 571 168 571 220 597L220 79C220 43 217 31 127 31L95 31L95 0C130 3 217 3 257 3C297 3 384 3 419 0Z" stroke="rgb(255,121,198)" stroke-opacity="1" stroke-width="8" fill="rgb(255,121,198)" fill-opacity="1"></path></g></g><g><g transform="matrix(1,0,0,1,168.2083740234375,106.33902587890626)"><path transform="matrix(0.020399999999999998,0,0,-0.020399999999999998,0,0)" d="M164 -250L164 750L42 750C31 750 22 741 22 730C22 719 31 710 42 710L124 710L124 -210L42 -210C31 -210 22 -219 22 -230C22 -241 31 -250 42 -250Z" stroke="rgb(255,121,198)" stroke-opacity="1" stroke-width="8" fill="rgb(255,121,198)" fill-opacity="1"></path></g></g><g><g transform="matrix(1,0,0,1,173.88238525390625,106.33902587890626)"><path transform="matrix(0.020399999999999998,0,0,-0.020399999999999998,0,0)" d="M288 208L288 292C288 463 183 663 73 746C71 747 69 748 67 748C62 748 57 743 57 738C57 735 59 732 61 730C165 652 234 452 234 292L234 208C234 48 165 -152 61 -230C59 -232 57 -235 57 -238C57 -243 62 -248 67 -248C69 -248 71 -247 73 -246C183 -163 288 37 288 208Z" stroke="rgb(255,121,198)" stroke-opacity="1" stroke-width="8" fill="rgb(255,121,198)" fill-opacity="1"></path></g></g></g></g></svg>
</svg>
