<svg xmlns="http://www.w3.org/2000/svg" xmlns:xlink="http://www.w3.org/1999/xlink" x="0" y="0" width="301.9657897949219" height="178.9309539794922" style="
        width:301.9657897949219px;
        height:178.9309539794922px;
        background: transparent;
        fill: none;
">
        <svg xmlns="http://www.w3.org/2000/svg"/>
        
        <svg xmlns="http://www.w3.org/2000/svg" class="role-diagram-draw-area"><g class="shapes-region" style="stroke: black; fill: none;"><g class="arrow-line"><path class="connection real" stroke-dasharray="" d="  M51.71,136.71 C105.67,166.71 207.71,125.71 247.71,95.71" style="stroke: rgb(189, 147, 249); stroke-opacity: 1; stroke-width: 1; fill: none; fill-opacity: 1;"/><g><g stroke="none" fill="rgb(189,147,249)" fill-opacity="1" transform="matrix(-0.9631156167651556,0.2690879200987552,-0.2690879200987552,-0.9631156167651556,159.40784214843754,137.44888939843747)" style="stroke: none; fill: rgb(189, 147, 249); stroke-width: 1;"><path d=" M8.93,-4.29 L0,0 L8.93,4.29 Z"/></g></g></g><g class="arrow-line"><path class="connection real" stroke-dasharray="" d="  M51.71,136.71 C71.67,72.71 158.67,4.71 247.71,95.71" style="stroke: rgb(189, 147, 249); stroke-opacity: 1; stroke-width: 1; fill: none; fill-opacity: 1;"/><g><g stroke="none" fill="rgb(189,147,249)" fill-opacity="1" transform="matrix(-0.9804089265795956,0.196972933884443,-0.196972933884443,-0.9804089265795956,142.55367909790044,52.920398273437485)" style="stroke: none; fill: rgb(189, 147, 249); stroke-width: 1;"><path d=" M8.93,-4.29 L0,0 L8.93,4.29 Z"/></g></g></g><g class="composite-shape"><path class="real" d=" M4.67,27 L294.67,27 L294.67,172 L4.67,172 Z" style="stroke-width: 2; stroke: rgb(107, 201, 223); stroke-opacity: 1; fill: none; fill-opacity: 1;"/></g><g class="composite-shape"><path class="real" d=" M48,136.71 C48,134.66 49.66,133 51.71,133 C53.77,133 55.43,134.66 55.43,136.71 C55.43,138.77 53.77,140.43 51.71,140.43 C49.66,140.43 48,138.77 48,136.71 Z" style="stroke-width: 1; stroke: rgb(107, 201, 223); stroke-opacity: 1; fill: rgb(107, 201, 223); fill-opacity: 1;"/></g><g class="composite-shape"><path class="real" d=" M244,95.71 C244,93.66 245.66,92 247.71,92 C249.77,92 251.43,93.66 251.43,95.71 C251.43,97.77 249.77,99.43 247.71,99.43 C245.66,99.43 244,97.77 244,95.71 Z" style="stroke-width: 1; stroke: rgb(107, 201, 223); stroke-opacity: 1; fill: rgb(107, 201, 223); fill-opacity: 1;"/></g><g/></g><g/><g/><g/></svg>
        <svg xmlns="http://www.w3.org/2000/svg" xmlns:xlink="http://www.w3.org/1999/xlink" width="299.9764709472656" height="176.94166564941406" style="width:299.9764709472656px;height:176.94166564941406px;font-family:Asana-Math, Asana;background:transparent;"><g><g><g><g transform="matrix(1,0,0,1,169.617431640625,150.38980712890626)"><path transform="matrix(0.020399999999999998,0,0,-0.020399999999999998,0,0)" d="M275 482C208 482 55 419 55 259C55 182 100 136 177 136C185 136 196 136 207 137L166 99C150 84 139 66 139 52C139 42 146 31 160 19C91 -4 -37 -48 -37 -159C-37 -230 33 -276 142 -276C271 -276 384 -204 384 -121C384 -85 363 -49 320 -14L260 35C226 62 213 81 213 100C213 114 228 128 240 146C338 170 409 253 409 342C409 357 406 376 405 380C422 378 430 378 439 378C456 378 466 379 489 382L498 427L495 433C467 426 447 424 393 424C393 425 369 482 275 482ZM176 1L253 -58C299 -94 318 -121 318 -154C318 -206 249 -248 166 -248C84 -248 27 -206 27 -145C27 -43 137 -11 176 1ZM250 448C308 448 337 412 337 341C337 238 289 168 219 168C158 168 126 209 126 288C126 383 177 448 250 448Z" stroke="rgb(189,147,249)" stroke-opacity="1" stroke-width="8" fill="rgb(189,147,249)" fill-opacity="1"></path></g></g></g></g><g><g><g><g transform="matrix(1,0,0,1,105.48532104492188,55.393499755859374)"><path transform="matrix(0.020399999999999998,0,0,-0.020399999999999998,0,0)" d="M345 437L329 437L350 549C366 635 394 673 440 673C470 673 497 658 512 634L522 638C527 654 537 685 545 705L550 720C534 727 503 733 480 733C469 733 453 730 445 726C421 715 339 654 316 630C294 608 282 578 271 521L256 442C215 422 195 414 170 405L165 383L246 383L237 327C207 132 170 -54 148 -123C130 -182 100 -213 64 -213C41 -213 30 -206 12 -184L-2 -188C-6 -211 -20 -259 -25 -268C-16 -273 -1 -276 10 -276C51 -276 105 -245 144 -198C215 -114 235 -18 319 383L423 383C427 402 434 425 440 439L436 446C407 439 408 437 345 437Z" stroke="rgb(189,147,249)" stroke-opacity="1" stroke-width="8" fill="rgb(189,147,249)" fill-opacity="1"></path></g></g></g></g><g><g><g><g transform="matrix(1,0,0,1,36.184051513671875,151.39197387695313)"><path transform="matrix(0.020399999999999998,0,0,-0.020399999999999998,0,0)" d="M271 204L242 77C238 60 236 42 236 26C236 4 245 -9 260 -9C283 -9 324 17 406 85L399 106C375 86 346 59 324 59C315 59 309 68 309 82C309 87 309 90 310 93L402 472L392 481L359 463C318 478 301 482 274 482C246 482 226 477 199 464C137 433 104 403 79 354C35 265 4 145 4 67C4 23 19 -11 38 -11C75 -11 155 41 271 204ZM319 414C297 305 278 253 244 201C187 117 126 59 94 59C82 59 76 72 76 99C76 163 104 280 139 360C163 415 186 433 234 433C257 433 275 429 319 414Z" stroke="rgb(107,201,223)" stroke-opacity="1" stroke-width="8" fill="rgb(107,201,223)" fill-opacity="1"></path></g></g></g></g><g><g><g><g transform="matrix(1,0,0,1,259.99468994140625,106.39176025390626)"><path transform="matrix(0.020399999999999998,0,0,-0.020399999999999998,0,0)" d="M235 722L223 733C171 707 135 698 63 691L59 670L107 670C131 670 141 663 141 646C141 639 140 628 139 622L38 71C37 68 37 64 37 61C37 22 85 -11 140 -11C177 -11 228 8 271 39C367 107 433 244 433 376C433 414 424 453 412 468C405 477 392 482 377 482C353 482 323 474 295 460C244 433 211 403 149 324ZM322 424C348 424 361 401 361 352C361 288 340 202 310 137C277 68 237 36 183 36C137 36 112 59 112 101C112 135 127 276 208 361C241 395 293 424 322 424Z" stroke="rgb(107,201,223)" stroke-opacity="1" stroke-width="8" fill="rgb(107,201,223)" fill-opacity="1"></path></g></g></g></g><g><g><g><g transform="matrix(1,0,0,1,5.485626220703125,20.4)"><path transform="matrix(0.020399999999999998,0,0,-0.020399999999999998,0,0)" d="M416 25L416 -3C464 -1 509 0 551 0C591 0 636 -1 684 -3L684 25L659 27C618 30 605 37 591 61L420 368L641 620C671 653 680 659 706 662L734 664L734 692L620 689C608 689 594 689 505 692L505 664L538 662C570 660 583 655 583 643C583 632 578 623 560 601L399 405L295 604C286 622 281 634 281 642C281 654 294 660 324 662L361 664L361 692L315 691C274 690 244 689 228 689C211 689 181 690 140 691L95 692L95 664L121 662C170 657 182 650 202 613L348 343L110 61C95 43 72 31 48 28L20 25L20 -3C69 -1 110 0 145 0C181 0 221 -1 264 -3L264 25L232 28C194 32 177 38 177 50C177 58 181 67 187 75L369 306L488 80C497 62 502 49 502 40C502 32 495 29 470 29L454 28Z" stroke="rgb(107,201,223)" stroke-opacity="1" stroke-width="8" fill="rgb(107,201,223)" fill-opacity="1"></path></g></g></g></g></svg>
</svg>
