<svg xmlns="http://www.w3.org/2000/svg" xmlns:xlink="http://www.w3.org/1999/xlink" x="0" y="0" width="301.9657897949219" height="178.9309539794922" style="
        width:301.9657897949219px;
        height:178.9309539794922px;
        background: transparent;
        fill: none;
">
        <svg xmlns="http://www.w3.org/2000/svg"/>
        
        <svg xmlns="http://www.w3.org/2000/svg" class="role-diagram-draw-area"><g class="shapes-region" style="stroke: black; fill: none;"><g class="arrow-line"><path class="connection real" stroke-dasharray="" d="  M51.71,136.71 C105.67,166.71 207.71,125.71 247.71,95.71" style="stroke: rgb(189, 147, 249); stroke-opacity: 1; stroke-width: 1; fill: none; fill-opacity: 1;"/><g><g stroke="none" fill="rgb(189,147,249)" fill-opacity="1" transform="matrix(-0.9631156167651556,0.2690879200987552,-0.2690879200987552,-0.9631156167651556,159.40784214843754,137.44888939843747)" style="stroke: none; fill: rgb(189, 147, 249); stroke-width: 1;"><path d=" M8.93,-4.29 L0,0 L8.93,4.29 Z"/></g></g></g><g class="arrow-line"><path class="connection real" stroke-dasharray="" d="  M51.71,136.71 C71.67,72.71 158.67,4.71 247.71,95.71" style="stroke: rgb(189, 147, 249); stroke-opacity: 1; stroke-width: 1; fill: none; fill-opacity: 1;"/><g><g stroke="none" fill="rgb(189,147,249)" fill-opacity="1" transform="matrix(-0.9804089265795956,0.196972933884443,-0.196972933884443,-0.9804089265795956,142.55367909790044,52.920398273437485)" style="stroke: none; fill: rgb(189, 147, 249); stroke-width: 1;"><path d=" M8.93,-4.29 L0,0 L8.93,4.29 Z"/></g></g></g><g class="composite-shape"><path class="real" d=" M4.67,27 L294.67,27 L294.67,172 L4.67,172 Z" style="stroke-width: 2; stroke: rgb(107, 201, 223); stroke-opacity: 1; fill: none; fill-opacity: 1;"/></g><g class="composite-shape"><defs><!-- react-text: 154894 --> <!-- /react-text --><pattern id="_pgfyrmcd6uq1" x="0" y="0" width="11.313708498984761" height="11.313708498984761" patternTransform="rotate(45,0,0)" patternUnits="userSpaceOnUse"><path d="M0,0 L0,11.313708498984761" style="stroke: rgb(107, 201, 223); stroke-opacity: 1; stroke-width: 1; fill: none;"/><path d="M5.656854249492381,0 L5.656854249492381,11.313708498984761" style="stroke: rgb(107, 201, 223); stroke-opacity: 1; stroke-width: 1; fill: none;"/><path d="M11.313708498984761,0 L11.313708498984761,11.313708498984761" style="stroke: rgb(107, 201, 223); stroke-opacity: 1; stroke-width: 1; fill: none;"/><path d="M0,0 L11.313708498984761,0" style="stroke: rgb(107, 201, 223); stroke-opacity: 1; stroke-width: 1; fill: none;"/><path d="M0,5.656854249492381 L11.313708498984761,5.656854249492381" style="stroke: rgb(107, 201, 223); stroke-opacity: 1; stroke-width: 1; fill: none;"/><path d="M0,11.313708498984761 L11.313708498984761,11.313708498984761" style="stroke: rgb(107, 201, 223); stroke-opacity: 1; stroke-width: 1; fill: none;"/></pattern></defs><path class="real" d=" M138,94.5 C138,88.15 143.15,83 149.5,83 C155.85,83 161,88.15 161,94.5 C161,100.85 155.85,106 149.5,106 C143.15,106 138,100.85 138,94.5 Z" style="stroke-width: 2; stroke: rgb(107, 201, 223); stroke-opacity: 1; fill: url(&quot;#_pgfyrmcd6uq1&quot;); fill-opacity: 1;"/></g><g class="composite-shape"><path class="real" d=" M48,136.71 C48,134.66 49.66,133 51.71,133 C53.77,133 55.43,134.66 55.43,136.71 C55.43,138.77 53.77,140.43 51.71,140.43 C49.66,140.43 48,138.77 48,136.71 Z" style="stroke-width: 1; stroke: rgb(107, 201, 223); stroke-opacity: 1; fill: rgb(107, 201, 223); fill-opacity: 1;"/></g><g class="composite-shape"><path class="real" d=" M244,95.71 C244,93.66 245.66,92 247.71,92 C249.77,92 251.43,93.66 251.43,95.71 C251.43,97.77 249.77,99.43 247.71,99.43 C245.66,99.43 244,97.77 244,95.71 Z" style="stroke-width: 1; stroke: rgb(107, 201, 223); stroke-opacity: 1; fill: rgb(107, 201, 223); fill-opacity: 1;"/></g><g/></g><g/><g/><g/></svg>
        <svg xmlns="http://www.w3.org/2000/svg" xmlns:xlink="http://www.w3.org/1999/xlink" width="299.9764709472656" height="176.94166564941406" style="width:299.9764709472656px;height:176.94166564941406px;font-family:LatinModern-Math, LatinModern, Asana-Math, Asana;background:transparent;"><g><g><g><g transform="matrix(1,0,0,1,169.83599853515625,150.38980712890626)"><path transform="matrix(0.020399999999999998,0,0,-0.020399999999999998,0,0)" d="M474 395C474 412 462 422 445 422C435 422 408 415 404 379C386 416 351 442 311 442C197 442 73 302 73 158C73 59 134 0 206 0C265 0 312 47 322 58L323 57L290 -75C286 -84 252 -183 146 -183C127 -183 94 -182 66 -173C96 -164 107 -138 107 -121C107 -105 96 -86 69 -86C47 -86 15 -104 15 -144C15 -185 52 -205 148 -205C273 -205 345 -127 360 -67L471 377C472 383 474 388 474 395ZM392 334C392 329 390 323 389 319L341 128C335 102 312 77 290 58C269 40 238 22 209 22C159 22 144 74 144 114C144 162 173 280 200 331C227 380 270 420 312 420C378 420 392 339 392 334Z" stroke="rgb(189,147,249)" stroke-opacity="1" stroke-width="8" fill="rgb(189,147,249)" fill-opacity="1"></path></g></g></g></g><g><g><g><g transform="matrix(1,0,0,1,105.71139526367188,55.39346923828125)"><path transform="matrix(0.020399999999999998,0,0,-0.020399999999999998,0,0)" d="M552 636C552 682 506 705 465 705C431 705 368 687 338 588C332 567 329 557 305 431L236 431C217 431 206 431 206 412C206 400 215 400 234 400L300 400L225 5C207 -92 190 -183 138 -183C134 -183 109 -183 90 -165C136 -162 145 -126 145 -111C145 -88 127 -76 108 -76C82 -76 53 -98 53 -136C53 -181 97 -205 138 -205C193 -205 233 -146 251 -108C283 -45 306 76 307 83L367 400L453 400C473 400 483 400 483 420C483 431 473 431 456 431L373 431C384 489 383 487 394 545C398 566 412 637 418 649C427 668 444 683 465 683C469 683 495 683 514 665C470 661 460 626 460 611C460 588 478 576 497 576C523 576 552 598 552 636Z" stroke="rgb(189,147,249)" stroke-opacity="1" stroke-width="8" fill="rgb(189,147,249)" fill-opacity="1"></path></g></g></g></g><g><g><g><g transform="matrix(1,0,0,1,35.4832763671875,151.39200439453126)"><path transform="matrix(0.020399999999999998,0,0,-0.020399999999999998,0,0)" d="M498 143C498 153 489 153 486 153C476 153 475 149 472 135C455 70 437 11 396 11C369 11 366 37 366 57C366 79 368 87 379 131L401 221L437 361C444 389 444 391 444 395C444 412 432 422 415 422C391 422 376 400 373 378C355 415 326 442 281 442C164 442 40 295 40 149C40 55 95 -11 173 -11C193 -11 243 -7 303 64C311 22 346 -11 394 -11C429 -11 452 12 468 44C485 80 498 143 498 143ZM361 332C361 326 359 320 358 315L308 119C303 101 303 99 288 82C244 27 203 11 175 11C125 11 111 66 111 105C111 155 143 278 166 324C197 383 242 420 282 420C347 420 361 338 361 332Z" stroke="rgb(107,201,223)" stroke-opacity="1" stroke-width="8" fill="rgb(107,201,223)" fill-opacity="1"></path></g></g></g></g><g><g><g><g transform="matrix(1,0,0,1,260.32623291015625,106.39176025390626)"><path transform="matrix(0.020399999999999998,0,0,-0.020399999999999998,0,0)" d="M415 282C415 373 362 442 282 442C236 442 195 413 165 382L239 683C239 683 239 694 226 694C203 694 130 686 104 684C96 683 85 682 85 664C85 652 94 652 109 652C157 652 159 645 159 635C159 628 150 594 145 573L63 247C51 197 47 181 47 146C47 51 100 -11 174 -11C292 -11 415 138 415 282ZM343 326C343 267 310 152 292 114C259 47 213 11 174 11C140 11 107 38 107 112C107 131 107 150 123 213L145 305C151 327 151 329 160 340C209 405 254 420 280 420C316 420 343 390 343 326Z" stroke="rgb(107,201,223)" stroke-opacity="1" stroke-width="8" fill="rgb(107,201,223)" fill-opacity="1"></path></g></g></g></g><g><g><g><g transform="matrix(1,0,0,1,5.485626220703125,20.4)"><path transform="matrix(0.020399999999999998,0,0,-0.020399999999999998,0,0)" d="M851 672C851 672 851 683 838 683C808 683 775 680 744 680C707 680 669 683 633 683C627 683 614 683 614 663C614 656 619 653 626 652C635 651 666 649 666 621C666 607 655 594 647 585L485 411L401 610L396 623C396 629 413 648 455 652C465 653 475 654 475 671C475 683 463 683 460 683C419 683 376 680 334 680C309 680 247 683 222 683C216 683 204 683 204 663C204 652 214 652 227 652C287 652 293 642 302 620L420 341L209 114C203 109 202 108 196 103C147 50 100 34 49 31C36 30 27 30 27 11C27 11 27 0 40 0C70 0 103 3 134 3C171 3 210 0 246 0C252 0 264 0 264 20C264 30 252 31 252 31C243 32 212 34 212 62C212 78 227 94 239 107L341 215L431 313L532 74L537 60C537 52 518 35 479 31C468 30 459 29 459 12C459 0 470 0 474 0L600 3C625 3 686 0 711 0C718 0 730 0 730 19C730 31 720 31 712 31C645 32 643 35 626 75L497 384C565 454 670 573 702 601C731 625 769 649 829 652C842 653 851 653 851 672Z" stroke="rgb(107,201,223)" stroke-opacity="1" stroke-width="8" fill="rgb(107,201,223)" fill-opacity="1"></path></g></g></g></g></svg>
</svg>
